<?xml version="1.0" encoding="UTF-8" standalone="no"?>
<!-- Created with Inkscape (http://www.inkscape.org/) -->

<svg
   width="148mm"
   height="105mm"
   viewBox="0 0 148 105"
   version="1.1"
   id="svg167"
   inkscape:version="1.2.1 (9c6d41e4, 2022-07-14)"
   sodipodi:docname="scribe.svg"
   xmlns:inkscape="http://www.inkscape.org/namespaces/inkscape"
   xmlns:sodipodi="http://sodipodi.sourceforge.net/DTD/sodipodi-0.dtd"
   xmlns="http://www.w3.org/2000/svg"
   xmlns:svg="http://www.w3.org/2000/svg">
  <sodipodi:namedview
     id="namedview169"
     pagecolor="#000000"
     bordercolor="#666666"
     borderopacity="1.0"
     inkscape:showpageshadow="2"
     inkscape:pageopacity="0"
     inkscape:pagecheckerboard="0"
     inkscape:deskcolor="#220025"
     inkscape:document-units="mm"
     showgrid="false"
     inkscape:zoom="9.3702382"
     inkscape:cx="182.86621"
     inkscape:cy="279.39524"
     inkscape:window-width="757"
     inkscape:window-height="652"
     inkscape:window-x="0"
     inkscape:window-y="25"
     inkscape:window-maximized="0"
     inkscape:current-layer="layer1"
     showguides="true">
    <sodipodi:guide
       position="59.30728,69.717392"
       orientation="0,-1"
       id="guide11888"
       inkscape:locked="false" />
  </sodipodi:namedview>
  <defs
     id="defs164" />
  <g
     inkscape:label="Layer 1"
     inkscape:groupmode="layer"
     id="layer1">
    <path
       style="fill:none;fill-opacity:1;stroke:#980e8b;stroke-width:0.2;stroke-linecap:round;stroke-linejoin:round;stroke-dasharray:none;stroke-opacity:1"
       d="m 1.4105797,1.3397831 c -0.2225003,0.1770021 -0.51768961,0.4725653 -0.70962781,0.823812 -0.03532,0.064636 -0.029197,0.080557 -0.018481,0.1548978 0.1125613,0.00775 0.1437224,-0.019451 0.2452322,-0.056196 C 1.3202209,2.120211 1.6298256,1.9299801 1.8542549,1.6976021 2.0832345,1.4605127 2.2005383,1.3072438 2.3077163,1.1178356 2.3491643,1.0445876 2.3726653,0.9969109 2.3495443,0.9216564 2.2361653,0.9032364 2.1992401,0.9080674 2.0777687,0.9561504 1.7891804,1.0703832 1.5231515,1.2502311 1.4105797,1.3397831 Z"
       id="path284"
       sodipodi:nodetypes="sscssscss" />
    <path
       style="fill:none;fill-opacity:1;stroke:#980e8b;stroke-width:1;stroke-linecap:round;stroke-linejoin:round;stroke-opacity:1"
       d="m 48.8352,34.017567 c -1.3945,1.100675 -2.67943,2.499259 -8.03028,0.636279 -5.485373,-1.909816 -16.207947,-3.872663 -19.364359,0.501233 3.931647,-0.869834 8.407185,0.771337 10.577308,0.750158 5.159343,-0.05035 5.29748,-3.547872 4.538636,-7.76576 C 35.416549,21.80325 32.133326,4.7063093 38.327747,2.6404427 42.005584,1.4138673 44.912396,4.8891453 44.473176,7.2765704 43.910255,10.336386 42.211046,11.497179 36.580146,9.9863859 28.543962,7.830246 23.417879,7.1902729 18.558089,10.032535"
       id="path284-0"
       sodipodi:nodetypes="cscsssssc" />
    <path
       style="fill:none;fill-opacity:1;stroke:#980e8b;stroke-width:1;stroke-linecap:round;stroke-linejoin:round;stroke-dasharray:none;stroke-opacity:1"
       d="m 55.787137,26.756522 c 0.272269,-0.490991 1.707239,-3.649824 3.184451,-3.341465 1.477208,0.308359 4.307156,11.527341 4.454878,12.606595 0.14772,1.079253 6.713249,-9.93815 6.334022,-13.237935"
       id="path14778"
       sodipodi:nodetypes="cssc" />
    <path
       style="fill:none;fill-opacity:1;stroke:#980e8b;stroke-width:1;stroke-linecap:round;stroke-linejoin:round;stroke-dasharray:none;stroke-opacity:1"
       d="m 50.644438,23.039031 c -5.252577,-0.140787 -7.194608,3.587709 -7.160949,6.399812 0.49185,6.006152 5.609638,7.597264 8.888784,5.284724 2.24999,-1.586755 3.758997,-4.995691 2.231041,-8.018732 -0.953912,-1.665789 -2.045628,-2.997582 -4.065674,-2.105688 -1.970228,0.869898 -1.825983,3.651831 -0.655283,4.795767 2.670469,2.609418 5.208479,-1.40776 5.904681,-2.68555"
       id="path11117"
       sodipodi:nodetypes="ccscssc" />
    <path
       style="fill:none;fill-opacity:1;stroke:#980e8b;stroke-width:0.999996;stroke-linecap:round;stroke-linejoin:round;stroke-dasharray:none;stroke-opacity:1"
       d="m 66.408789,31.7689 c 1.073735,-1.717817 4.056091,-2.533636 9.750357,-1.49197 2.450352,0.448248 6.411191,-0.139327 5.390117,-3.83513 -0.649403,-2.350536 -3.783879,-3.448366 -6.415691,-2.16716 -2.869459,1.396898 -4.033105,5.062995 -2.955084,7.939341 0.700561,1.86922 1.713263,3.235786 3.591135,3.832249 2.210556,0.702129 3.861632,0.502356 6.200812,-1.495758"
       id="path11679"
       sodipodi:nodetypes="csssssc" />
    <path
       style="fill:none;fill-opacity:1;stroke:#980e8b;stroke-width:1;stroke-linecap:round;stroke-linejoin:round;stroke-dasharray:none;stroke-opacity:1"
       d="m 84.679613,34.788963 c 0.656398,1.13763 -0.346791,2.042248 -1.172915,2.349565"
       id="path13038"
       sodipodi:nodetypes="cc" />
    <path
       style="fill:none;fill-opacity:1;stroke:#980e8b;stroke-width:1;stroke-linecap:round;stroke-linejoin:round;stroke-dasharray:none;stroke-opacity:1"
       d="M 34.541134,9.8383066 C 34.054264,12.7728 28.336667,15.65363 29.769748,19.996169 c 1.190642,3.607888 3.767019,1.504121 3.767019,1.504121 0,0 -1.075772,1.312657 -2.684771,2.858694"
       id="path13742"
       sodipodi:nodetypes="cscc" />
    <path
       style="fill:none;stroke:#980e8b;stroke-width:1;stroke-linecap:round;stroke-linejoin:round"
       d="m 42.846322,44.398185 c -6.635844,-1.97127 -11.873896,3.772874 -16.940755,7.094436 -3.678781,2.642906 -9.650796,4.596227 -13.293635,1.027877 -2.348142,-3.931303 2.729611,-6.715887 6.053108,-6.556512 5.277981,-0.316076 10.021414,3.075559 12.770273,7.446101 6.258898,8.166764 8.16669,18.602922 7.546076,26.784691 9.601524,-7.469198 16.942926,-19.496775 19.792797,-31.186109 0.835275,-3.106997 -1.296916,-5.592698 -3.428528,-4.332228 -1.674712,1.056888 -2.031122,3.123746 -0.334593,4.573225 1.464251,1.251026 4.015118,0.948108 7.528346,-2.955865 3.513229,-3.903973 3.513229,-5.632875 3.513229,-5.632875"
       id="path442"
       sodipodi:nodetypes="ccccccccssc" />
    <path
       style="fill:none;stroke:#980e8b;stroke-width:1;stroke-linecap:round;stroke-linejoin:round"
       d="m 46.968306,57.79523 c -1.300886,1.502437 -2.724799,2.988577 -5.330942,4.318113 1.066214,0.920016 2.069106,1.986492 2.575537,4.201286 1.471382,-1.598095 3.008205,-3.132182 5.051001,-4.171381 -1.732719,-1.137585 -1.952862,-2.762554 -2.295596,-4.348018 z"
       id="path793"
       sodipodi:nodetypes="ccccc" />
    <path
       style="fill:none;fill-opacity:1;stroke:#980e8b;stroke-width:0.999997;stroke-linecap:round;stroke-linejoin:round;stroke-dasharray:none;stroke-opacity:1"
       d="m 45.946366,73.56988 c 1.942267,-2.133387 5.332335,-3.339971 12.937215,-1.943574 3.272526,0.600894 8.562359,-0.186773 7.19868,-5.141153 -0.867298,-3.150991 -5.053495,-4.622679 -8.568368,-2.905168 -3.832257,1.8726 -5.386345,6.787156 -3.946612,10.643018 0.935623,2.505768 2.28812,4.337708 4.79608,5.13729 2.952271,0.941234 5.157337,0.67343 8.28139,-2.005125"
       id="path11679-8"
       sodipodi:nodetypes="csssssc" />
    <path
       style="fill:none;stroke:#980e8b;stroke-width:1;stroke-linecap:round;stroke-linejoin:round"
       d="m 66.501479,77.48154 c 5.229095,-4.712397 8.000009,-9.628458 8.736376,-12.289627 1.721579,3.30231 8.100053,7.46962 8.100053,7.46962 -2.982913,2.862075 -3.470255,5.846893 -2.735083,7.154 0.735172,1.307106 3.481171,3.304775 7.586283,-0.93089 6.771533,-7.129176 7.143706,-11.353451 6.068976,-12.795017 -0.481632,-0.646032 -2.149565,-0.663286 -2.581576,1.213403 -2.246708,9.759876 -1.335881,13.704632 4.538452,13.529763 m -0.02355,-0.0051 c 0.998473,-0.201957 1.930337,-1.476991 2.404834,-2.190269 11.019886,-16.565424 11.663836,-33.002619 7.803186,-32.693461 -2.35104,0.188271 -2.67455,7.413276 -2.61129,10.319031 0.0622,2.851717 2.5784,22.850265 6.45951,24.668933 2.54303,1.191655 3.57335,-4.353341 3.57335,-4.353341"
       id="path1030"
       sodipodi:nodetypes="cccccssccssssc" />
    <path
       style="fill:none;stroke:#980e8b;stroke-width:1;stroke-linecap:round;stroke-linejoin:round"
       d="m 115.84612,68.03002 c -2.38335,1.906875 -2.28941,7.887702 -1.71601,9.629715 0.69474,2.110686 2.66969,4.369925 5.43404,3.909092 4.3818,-0.73047 5.22249,-6.866367 6.26008,-12.351263 -0.4466,10.311923 -2.27593,17.852837 -6.14752,22.098723 -2.8559,3.131996 -8.05298,6.719632 -16.64481,8.127248 -8.591832,1.407615 -19.358194,-0.362469 -26.916211,-3.85458 -5.123217,-2.367133 -7.724266,-4.876214 -8.264026,-7.745132 -0.65584,-5.163645 6.206282,-6.612734 9.749235,-3.149777 2.403327,2.349062 1.934761,7.736839 -4.989629,8.945707 -6.473267,1.130112 -17.08443,-1.887329 -22.031337,-5.923362 10.080892,5.217058 18.819584,14.298179 18.819584,14.298179 7.104954,-9.558969 20.610501,-11.108289 31.411574,-2.270173"
       id="path1549"
       sodipodi:nodetypes="csscszscssccc" />
    <path
       style="fill:none;stroke:#980e8b;stroke-width:1;stroke-linecap:round;stroke-linejoin:round"
       d="m 130.48115,48.896393 c -0.3224,3.394014 -3.60229,6.091178 -6.99381,5.806469 -4.90601,0.08162 -9.79492,-0.479865 -14.68876,-0.748686 -7.1048,-0.512109 -14.202289,-1.228109 -21.322771,-1.455166 -2.444463,0.113413 -4.565201,2.803505 -3.494956,5.173896 0.716481,1.984976 3.126817,2.703783 4.974254,1.93356 1.746318,-0.582351 3.116679,-2.254404 5.029144,-2.265753 2.133139,0.418744 3.09626,3.829418 1.367252,5.197509 -1.87222,1.198078 -3.719184,-1.878824 -1.84881,-3.014331 l 0.01984,-0.019"
       id="path1876"
       sodipodi:nodetypes="csssscssc" />
    <path
       style="fill:none;stroke:#980e8b;stroke-width:1;stroke-linecap:round;stroke-linejoin:round"
       d="m 65.733485,58.04802 c 8.121885,-7.693951 12.664253,-2.578048 18.158694,-9.262626 -7.86938,6.019889 -14.644345,-1.90239 -24.12929,8.208938"
       id="path3698"
       sodipodi:nodetypes="ccc" />
    <path
       style="fill:none;stroke:#980e8b;stroke-width:1;stroke-linecap:round;stroke-linejoin:round"
       d="m 83.944293,48.759333 c 3.126908,-3.022976 0.729611,-5.524748 0.729611,-5.524748"
       id="path3891"
       sodipodi:nodetypes="cc" />
  </g>
</svg>
