<?xml version="1.0" encoding="UTF-8" standalone="no"?>
<!-- Created with Inkscape (http://www.inkscape.org/) -->

<svg
   width="148mm"
   height="105mm"
   viewBox="0 0 148 105"
   version="1.1"
   id="svg167"
   inkscape:version="1.2.1 (9c6d41e4, 2022-07-14)"
   sodipodi:docname="scribe.svg"
   xmlns:inkscape="http://www.inkscape.org/namespaces/inkscape"
   xmlns:sodipodi="http://sodipodi.sourceforge.net/DTD/sodipodi-0.dtd"
   xmlns="http://www.w3.org/2000/svg"
   xmlns:svg="http://www.w3.org/2000/svg">
  <sodipodi:namedview
     id="namedview169"
     pagecolor="#000000"
     bordercolor="#666666"
     borderopacity="1.0"
     inkscape:showpageshadow="2"
     inkscape:pageopacity="0"
     inkscape:pagecheckerboard="0"
     inkscape:deskcolor="#220025"
     inkscape:document-units="mm"
     showgrid="false"
     inkscape:zoom="2.5758685"
     inkscape:cx="436.16358"
     inkscape:cy="215.84953"
     inkscape:window-width="757"
     inkscape:window-height="652"
     inkscape:window-x="0"
     inkscape:window-y="25"
     inkscape:window-maximized="0"
     inkscape:current-layer="layer1"
     showguides="true">
    <sodipodi:guide
       position="60.470202,64.254381"
       orientation="0,-1"
       id="guide11888"
       inkscape:locked="false" />
  </sodipodi:namedview>
  <defs
     id="defs164" />
  <g
     inkscape:label="Layer 1"
     inkscape:groupmode="layer"
     id="layer1">
    <path
       style="fill:none;fill-opacity:1;stroke:#980e8b;stroke-width:0.2;stroke-linecap:round;stroke-linejoin:round;stroke-dasharray:none;stroke-opacity:1"
       d="M 2.7916791,2.2594122 C 2.5883425,2.4211533 2.3185775,2.6912332 2.1431708,3.0121957 2.1108926,3.071259 2.1164884,3.0858071 2.1262813,3.1537383 2.2291478,3.1608194 2.257625,3.1359644 2.3503919,3.1023874 2.7091025,2.972552 2.9920413,2.7987227 3.1971407,2.5863802 3.4063985,2.3697325 3.5135991,2.2296783 3.611546,2.0566008 3.6494242,1.9896681 3.6709013,1.9461021 3.6497716,1.877336 3.5461578,1.8605039 3.512413,1.864919 3.4014038,1.9088557 3.1376713,2.0132394 2.8945552,2.1775809 2.7916791,2.2594122 Z"
       id="path284"
       sodipodi:nodetypes="sscssscss" />
    <path
       style="fill:none;fill-opacity:1;stroke:#980e8b;stroke-width:1;stroke-linecap:round;stroke-linejoin:round;stroke-opacity:1"
       d="m 50.975396,39.489904 c -1.274394,1.005775 -2.448654,2.283774 -7.338641,0.581419 -5.012923,-1.745153 -14.811973,-3.538764 -17.696527,0.458017 3.593019,-0.794837 7.683083,0.704833 9.666296,0.68548 4.714974,-0.04601 4.841213,-3.241977 4.147728,-7.096201 -1.041773,-5.789922 -4.042215,-21.412776 1.618687,-23.300525 3.361068,-1.1208209 6.01752,2.054821 5.616129,4.236404 -0.514437,2.796 -2.067295,3.85671 -7.213211,2.476177 -7.344036,-1.970239 -12.028615,-2.555034 -16.469836,0.04217"
       id="path284-0"
       sodipodi:nodetypes="cscsssssc" />
    <path
       style="fill:none;fill-opacity:1;stroke:#980e8b;stroke-width:1;stroke-linecap:round;stroke-linejoin:round;stroke-dasharray:none;stroke-opacity:1"
       d="m 57.328569,32.854901 c 0.248819,-0.448658 1.560197,-3.335138 2.910178,-3.053366 1.349978,0.281773 3.936185,10.533462 4.071184,11.519663 0.134997,0.986201 6.135044,-9.081289 5.788479,-12.096569"
       id="path14778"
       sodipodi:nodetypes="cssc" />
    <path
       style="fill:none;fill-opacity:1;stroke:#980e8b;stroke-width:1;stroke-linecap:round;stroke-linejoin:round;stroke-dasharray:none;stroke-opacity:1"
       d="m 52.628806,29.45793 c -4.800178,-0.128649 -6.574944,3.278379 -6.544184,5.848024 0.449487,5.488306 5.126486,6.942233 8.123202,4.829079 2.056201,-1.449946 3.435239,-4.564966 2.038884,-7.327362 -0.871753,-1.522166 -1.86944,-2.739133 -3.715502,-1.924137 -1.800534,0.794896 -1.668713,3.336972 -0.598844,4.382279 2.440464,2.384436 4.759878,-1.286384 5.396117,-2.454004"
       id="path11117"
       sodipodi:nodetypes="ccscssc" />
    <path
       style="fill:none;fill-opacity:1;stroke:#980e8b;stroke-width:0.999996;stroke-linecap:round;stroke-linejoin:round;stroke-dasharray:none;stroke-opacity:1"
       d="m 67.03539,37.435115 c 0.981255,-1.569708 3.706744,-2.315187 8.910568,-1.363333 2.239306,0.4096 5.859002,-0.127314 4.925872,-3.504468 -0.59347,-2.147874 -3.457977,-3.15105 -5.863114,-1.980309 -2.622315,1.276459 -3.685738,4.626467 -2.700566,7.254817 0.640223,1.708057 1.565702,2.956799 3.281835,3.501835 2.020163,0.641592 3.529033,0.459043 5.666742,-1.366795"
       id="path11679"
       sodipodi:nodetypes="csssssc" />
    <path
       style="fill:none;fill-opacity:1;stroke:#980e8b;stroke-width:1;stroke-linecap:round;stroke-linejoin:round;stroke-dasharray:none;stroke-opacity:1"
       d="m 83.732566,40.194791 c 0.599864,1.039544 -0.316922,1.866166 -1.071893,2.146987"
       id="path13038"
       sodipodi:nodetypes="cc" />
    <path
       style="fill:none;fill-opacity:1;stroke:#980e8b;stroke-width:1;stroke-linecap:round;stroke-linejoin:round;stroke-dasharray:none;stroke-opacity:1"
       d="m 37.912463,17.395363 c -0.444937,2.681483 -5.670083,5.31393 -4.360432,9.282058 1.088093,3.296819 3.44257,1.374437 3.44257,1.374437 0,0 -0.983117,1.199481 -2.453535,2.612219"
       id="path13742"
       sodipodi:nodetypes="cscc" />
    <path
       style="fill:none;stroke:#980e8b;stroke-width:1;stroke-linecap:round;stroke-linejoin:round"
       d="m 45.502333,48.975512 c -6.064305,-1.801308 -10.851209,3.447579 -15.481665,6.482759 -3.361931,2.415036 -8.819583,4.199943 -12.148668,0.939254 -2.145899,-3.592349 2.494513,-6.136848 5.53176,-5.991214 4.823394,-0.288824 9.15828,2.810386 11.670383,6.804103 5.719825,7.462631 7.463301,16.998991 6.89614,24.475333 8.774555,-6.825209 15.483649,-17.815776 18.088064,-28.497264 0.763334,-2.839114 -1.185214,-5.110499 -3.133232,-3.958706 -1.530471,0.965764 -1.856184,2.854419 -0.305775,4.178925 1.338136,1.143163 3.6693,0.866362 6.879937,-2.701013 3.210638,-3.567375 3.210638,-5.147212 3.210638,-5.147212"
       id="path442"
       sodipodi:nodetypes="ccccccccssc" />
    <path
       style="fill:none;stroke:#980e8b;stroke-width:1;stroke-linecap:round;stroke-linejoin:round"
       d="m 49.269295,61.217473 c -1.188842,1.372898 -2.490115,2.730904 -4.871793,3.945808 0.974382,0.840693 1.890896,1.815218 2.353708,3.839054 1.344654,-1.460308 2.749112,-2.862127 4.615964,-3.811727 -1.583482,-1.039503 -1.784664,-2.524369 -2.097879,-3.973135 z"
       id="path793"
       sodipodi:nodetypes="ccccc" />
    <path
       style="fill:none;fill-opacity:1;stroke:#980e8b;stroke-width:0.999997;stroke-linecap:round;stroke-linejoin:round;stroke-dasharray:none;stroke-opacity:1"
       d="m 48.25796,75.683647 c 1.310499,-2.104259 4.95048,-3.103605 11.90036,-1.827604 2.990667,0.549085 7.824892,-0.17067 6.578665,-4.697886 -0.792598,-2.879315 -4.618243,-4.224115 -7.830383,-2.654687 -3.502189,1.711146 -4.922425,6.201972 -3.606695,9.725385 0.855039,2.289722 2.091047,3.963713 4.382999,4.694356 2.697995,0.860081 4.713141,0.615367 7.568122,-1.832245"
       id="path11679-8"
       sodipodi:nodetypes="csssssc" />
    <path
       style="fill:none;stroke:#980e8b;stroke-width:1;stroke-linecap:round;stroke-linejoin:round"
       d="m 67.120096,79.206443 c 4.778719,-4.306098 7.310977,-8.798299 7.983921,-11.230024 1.573301,3.017587 7.402404,6.825594 7.402404,6.825594 -2.725998,2.615309 -3.171365,5.342778 -2.499513,6.537187 0.671852,1.194409 3.181341,3.01984 6.932884,-0.850629 6.188308,-6.514503 6.528426,-10.374564 5.546262,-11.691839 -0.44015,-0.590332 -1.964426,-0.606098 -2.359228,1.108784 -2.053201,8.918386 -1.220823,12.523028 4.14756,12.363236 m -0.02152,-0.0047 c 0.912476,-0.184545 1.764079,-1.349646 2.197708,-2.001426 10.070756,-15.137164 10.659246,-30.157156 7.131106,-29.874653 -2.14855,0.172038 -2.44419,6.774108 -2.38638,9.429331 0.0568,2.605844 2.35632,20.880131 5.90316,22.541995 2.324,1.088911 3.26558,-3.977999 3.26558,-3.977999"
       id="path1030"
       sodipodi:nodetypes="cccccssccssssc" />
    <path
       style="fill:none;stroke:#980e8b;stroke-width:1;stroke-linecap:round;stroke-linejoin:round"
       d="m 112.21474,70.569826 c -2.17808,1.742466 -2.09223,7.20763 -1.56822,8.799448 0.63491,1.928704 2.43976,3.993153 4.96602,3.572053 4.0044,-0.66749 4.77268,-6.274354 5.7209,-11.286346 -0.40813,9.422836 -2.0799,16.313578 -5.61804,20.193386 -2.60992,2.861958 -7.35938,6.14027 -15.21121,7.426522 -7.851826,1.286251 -17.690893,-0.331217 -24.597946,-3.52224 -4.681959,-2.163041 -7.058983,-4.45579 -7.552254,-7.077352 -0.599353,-4.718439 5.671742,-6.042589 8.909544,-2.878206 2.196331,2.146528 1.768122,7.069774 -4.559878,8.174415 -5.915731,1.032674 -15.612965,-1.724605 -20.1338,-5.412654 9.212635,4.767247 17.198672,13.065398 17.198672,13.065398 6.493012,-8.7348 18.83534,-10.150538 28.706131,-2.074439"
       id="path1549"
       sodipodi:nodetypes="csscszscssccc" />
    <path
       style="fill:none;stroke:#980e8b;stroke-width:1;stroke-linecap:round;stroke-linejoin:round"
       d="m 125.58927,53.085888 c -0.29464,3.101384 -3.29203,5.566 -6.39144,5.305839 -4.48346,0.07458 -8.9513,-0.438492 -13.42364,-0.684135 -6.492869,-0.467955 -12.979059,-1.122222 -19.486261,-1.329703 -2.233924,0.103635 -4.172005,2.561789 -3.193939,4.727807 0.654771,1.813832 2.857507,2.470664 4.545827,1.766849 1.595909,-0.532141 2.848242,-2.06003 4.595989,-2.070401 1.949414,0.38264 2.829582,3.499248 1.249492,4.749383 -1.710968,1.094781 -3.398855,-1.716833 -1.689574,-2.754437 l 0.01813,-0.01736"
       id="path1876"
       sodipodi:nodetypes="csssscssc" />
    <path
       style="fill:none;stroke:#980e8b;stroke-width:1;stroke-linecap:round;stroke-linejoin:round"
       d="m 66.418249,61.448468 c 7.422355,-7.030584 11.573494,-2.355771 16.594704,-8.464009 -7.191598,5.500858 -13.383042,-1.738367 -22.051059,7.501169"
       id="path3698"
       sodipodi:nodetypes="ccc" />
    <path
       style="fill:none;stroke:#980e8b;stroke-width:1;stroke-linecap:round;stroke-linejoin:round"
       d="m 83.060579,52.960645 c 2.85759,-2.762337 0.66677,-5.048408 0.66677,-5.048408"
       id="path3891"
       sodipodi:nodetypes="cc" />
  </g>
</svg>
