<svg viewBox="0 0 148 105" xmlns="http://www.w3.org/2000/svg"><path d="M42.04 3.35a5 5 0 0 0-1.42.21l-.02.01-.08.02h-.01l-.04.02h-.03v.01h-.02l-.02.01-.1.04h-.01l-.03.01h-.01v.01h-.01l-.04.02h-.02l-.02.01-.07.03c-.57.24-1.04.54-1.37.79l-.02.02-.07.05h-.01v.01h-.01a7.51 7.51 0 0 0-1.73 2.03v.02l-.03.03-.04.08-.02.04-.01.02-.02.02v.01l-.03.06v.01l-.05.08-.02.05c-.31.62-.64 1.49-.88 2.75l-.05.26v.06h-.01v.02l-.42-.09h-.03l-1.2-.27c-.06 0-.11-.02-.17-.03a48.3 48.3 0 0 0-.5-.1l-.16-.03-.52-.1h-.06l-.05-.01-.32-.06-.19-.03-.28-.04H31.75l-.3-.05-.24-.03c-.85-.12-1.7-.2-2.54-.22H27.43l-.14.01h-.17l-.07.01h-.03a15.19 15.19 0 0 0-4.25.88l-.04.02h-.02a15.52 15.52 0 0 0-.24.1l-.06.02-.08.03-.06.03c-.23.1-.48.2-.74.33l-.07.03a17 17 0 0 0-.96.5v.01h-.02l-.18.11-.04.02a2.53 2.53 0 0 0-.94.95c-.03.06-.03.08-.02.15h.04c.04 0 .06 0 .1-.02a.97.97 0 0 0 .09-.03c.17-.06.32-.13.45-.21l.12-.07.11-.06.23-.13.23-.12.23-.12.09-.04h-.01.02-.01l.1-.05h.03l.06-.03.15-.07.06-.02h.01l.42-.16.02-.01.2-.07h.01l.09-.03a13.17 13.17 0 0 1 .43-.14l.15-.04.1-.03h.01a13.4 13.4 0 0 1 .6-.14l.1-.02a13.96 13.96 0 0 1 .5-.1h.02c.07 0 .14-.02.2-.03l.1-.01.13-.02.12-.01.17-.02h.03l.21-.03h.05l.25-.03h.17l.35-.03h.11a17.79 17.79 0 0 1 .65-.02H26.88l.53.02c2.35.1 4.97.59 8.02 1.35l-.06.09a2 2 0 0 0-.09.17 2.63 2.63 0 0 1-.03.16l-.04.16-.02.05a3.22 3.22 0 0 1-.07.21l-.01.03a4.69 4.69 0 0 1-.3.6 7 7 0 0 1-.08.1v.01l-.06.1-.03.04-.05.07-.12.17-.06.09-.06.07-.03.04-.09.1-.08.11-.1.11-.09.11-.1.12-.08.1-.2.23-.19.22c0 .02-.02.03-.03.04v.01l-.06.06v.01l-.15.17-.07.07-.07.1H33l-.07.09-.02.02-.02.03h-.01l-.03.05-.05.05-.06.07-.11.14-.01.01c-.54.65-1.07 1.35-1.5 2.11l-.02.02-.01.02-.02.04-.01.02-.02.03v.01l-.02.03-.01.02-.05.09-.01.02-.05.08v.03h-.01l-.09.18-.02.05v.01h-.01v.03l-.01.01-.01.01-.03.08v.01h-.01v.01a6.1 6.1 0 0 0-.04.09v.01l-.02.02V19l-.02.05v.02h-.01v.01l-.01.03-.02.03v.03l-.01.01-.02.04v.04h-.01v.02l-.01.03-.02.03v.03l-.01.02v.01l-.01.02v.02l-.02.05-.02.05-.1.37v.05a4.62 4.62 0 0 0-.08 1.12v.05a4.06 4.06 0 0 0 .02.1v.05l.03.2.02.16v.02l.02.07.01.05.03.1v.03l.1.36.03.07v.01l.06.15v.02l.02.03.02.07.02.05v.01l.03.06.03.07.03.06.01.03.02.04v.01l.02.04.02.04.02.04h.01l.01.03.02.04.07.12.02.02v.03h.01l.03.05.01.02.06.09.02.02.02.04.03.03.01.01.01.02.02.03.04.04.03.03.01.02.03.03.02.03.03.03.07.06c0 .02.02.03.03.04l.03.03.03.02.02.01.05.05.03.02.03.02.01.01.03.02.04.03h.02l.02.02a1.83 1.83 0 0 0 .05.03l.02.01.02.01.02.01.01.01h.01a1.71 1.71 0 0 0 .07.04l.03.01a1.67 1.67 0 0 0 .03.01h.01l.04.02.02.01h.02l.06.02.06.02.03.01h.02l.06.02h.09v.01a1.74 1.74 0 0 0 .07 0l.03.01h.05a2.38 2.38 0 0 0 .2 0h.05a2.38 2.38 0 0 0 .61-.11l.03-.01.03-.01.13-.05.03-.01.03-.02h.02l.05-.02.03-.01-.06.06-.1.1c0 .02-.01.02-.02.03l-.08.09-.1.12-.12.12a40.02 40.02 0 0 1-.3.32H33l-.05.05-.06.07-.15.14-.02.02-.03.04-.17.17-.15.14-.14.14-.15.15a2.43 2.43 0 0 0-.46.6c-.04.05-.03.06-.02.13a.44.44 0 0 0 .08 0c.05 0 .08-.03.14-.05.34-.12.61-.28.82-.48l.15-.14.14-.14.19-.19.1-.1.04-.04.1-.1a39.88 39.88 0 0 0 .54-.55l.06-.07.06-.06.06-.06.1-.1.01-.02.1-.12.11-.1.1-.12.19-.2.03-.03c0-.02.02-.03.03-.04l.03-.03v-.01l.22-.24.13-.15.1-.12.09-.1.06-.07.05-.06.01-.02.05-.05a3.28 3.28 0 0 0 .07-.09 2.48 2.48 0 0 0 .08-.09l.02-.03.02-.02c0-.02.02-.03.03-.05a2.12 2.12 0 0 0 .11-.2v-.11a.71.71 0 0 0-.1 0h-.02a2.54 2.54 0 0 0-.75.4h-.01l-.01.01-.02.01v.01a2.7 2.7 0 0 1-.56.18h-.02a1.97 1.97 0 0 1-.4-.02h-.04c-.66-.12-1.36-.65-1.83-2.09a4.4 4.4 0 0 1-.23-1.49V19.41l.01-.12.01-.11v-.02l.03-.19v-.01l.03-.12a4.64 4.64 0 0 1 .05-.22v-.02l.08-.28v-.02l.05-.11a5.5 5.5 0 0 1 .2-.53l.06-.1.04-.1.03-.04c.16-.32.35-.62.55-.92l.02-.03.05-.07a15.51 15.51 0 0 1 .24-.31l.15-.2.15-.18.16-.18.15-.19.11-.13a58.95 58.95 0 0 1 .36-.41l.03-.04.05-.05.06-.08.05-.06.05-.06.14-.16.04-.05.05-.06.06-.07.04-.04.09-.11.06-.07.01-.02.3-.37.02-.03v.25a33.22 33.22 0 0 0 0 .79c0 3.95.6 7.94.78 9.19l.02.19.1.59v.03a128.24 128.24 0 0 0 .13.81v.01l.06.44.06.33.08.52.06.3v.04l.1.56.03.18v.04l.07.36.06.36v.02l.24 1.3.1.56.06.34.03.16v.01l.01.08.06.4v.04l.03.14v.03l.02.15.02.17v.03l.02.14v.04l.02.13v.06l.02.11v.02l.01.15v.03a14.44 14.44 0 0 1 .01.13v.04l.01.13v.02a12.38 12.38 0 0 1 .02.61v.17a9 9 0 0 1 0 .15v.06l-.02.23h-.02l-.84-.16h-.04l-.44-.08-.06-.01-.12-.02h-.03l-.2-.04h-.1l-.03-.01h-.03c-.12-.03-.24-.04-.37-.06l-.25-.03-.23-.03-.1-.02c-.71-.08-1.5-.16-2.32-.2H32.12l-.04-.01h-.26l-.05-.01H30.37l-.03.01h-.19v.01h-.17l-.06.01h-.11l-.06.01h-.08l-.14.02h-.02a12.77 12.77 0 0 0-3.28.68l-.23.08-.02.01-.02.01h-.01l-.02.01-.03.01-.19.09-.04.01-.06.03-.22.1-.07.04c-.42.2-.97.51-1.49.9l-.04.04-.03.02-.01.01-.02.01v.01h-.02v.01l-.04.04h-.01c-.39.32-.8.73-1.19 1.22l-.04.06-.04.05-.01.02-.02.02-.01.02-.15.23c-.02.04-.02.06-.02.1v.04h.1c.49-.11.99-.18 1.48-.22h.11c.14-.02.29-.02.43-.03h.13a14.25 14.25 0 0 1 .37 0h.44l.19.01h.03l.21.01.24.02h.01l.24.02h.1l.02.01.12.01h.02c1.22.12 2.4.34 3.45.53l.37.07.26.05.18.03h.03l.18.03.14.03h.07l.1.03.14.02h.02a20 20 0 0 0 .28.04h.01l.1.01.05.01h.06v.01h.05l.06.01.08.01h.03l.07.01h.09l.03.01h.13v.01H32.55a6.18 6.18 0 0 0 .17.01h.44l.03-.01h.16c1.14-.08 1.75-.31 2-.4h.02v-.01l.1-.04c.5-.19.93-.4 1.3-.65l.07-.04.17-.12.04-.02.03-.02a4.99 4.99 0 0 0 .48-.42v-.02l.05-.04.03-.03.03-.03.38-.43A39.1 39.1 0 0 1 42 37.07l.13.04.13.05.16.05h.03l.1.03.11.04.15.04.1.03.16.04.1.03.09.02h.01l.2.05h.01l.12.04a15.07 15.07 0 0 0 .22.05l.08.01.02.01a13.67 13.67 0 0 0 .27.05h.03l.15.04h.07l.06.02h.06l.13.03h.07l.05.01.08.01.1.02h.06l.12.01.1.01h.07l.03.01a8.4 8.4 0 0 0 .56.02H46.25l.05-.01H46.4l.05-.01h.07c.64-.07 1.04-.2 1.25-.28l.03.01.03.02h.03l.03.02a5.23 5.23 0 0 0 .1.04l.02.01.05.02.1.04.04.01.12.04.03.01.11.04h.04l.15.05.16.04h.05l.1.03H49l.16.03h.04l.11.02h.02l.08.01.09.01h.05l.05.01h.13a5.83 5.83 0 0 0 1.75-.18l.06-.02.18-.05.31-.11.03-.01.04-.02.04-.01.06-.03.17-.06.06-.03.05-.02.06-.03a8.26 8.26 0 0 0 .73-.36l.06-.03.06-.04.31-.19.07-.04.06-.04.06-.04.02-.02h.02v-.01l.03-.02.03-.03.07-.05c.35-.25.67-.52.96-.81l.02-.02.03-.03.05-.06a9.5 9.5 0 0 0 1.4-1.82l.02-.02a9.53 9.53 0 0 0 .1-.18v-.02l.02-.02v-.01c.15-.26.35-.66.52-1.16l.02-.08.01-.03v-.01l.01-.02.01-.03.01-.03v-.01l.01-.02v-.02l.01-.02v-.02l.02-.05v-.02l.02-.04v.03l.01-.07.01-.04.02-.07.01-.06v-.01l.01-.02v-.02l.01-.02v-.03l.01-.02v-.03l.01-.02c.18-.83.2-1.72-.01-2.62v-.03h-.01a13.87 13.87 0 0 0 .68-1.06v-.02l.02-.01v-.02l.01-.02.01-.01v-.01h.01v-.02l.01-.01v-.02h.01v-.01h.01v-.02h.01v-.02h.01v-.02l.03-.05.1-.18.05-.1.12-.23.05-.09a13.11 13.11 0 0 1 .68-1.1l.07-.08.01-.01.05-.05v-.01l.04-.03.02-.02.04-.04v-.01c.02 0 .02-.02.03-.02l.02-.02H59.6a1 1 0 0 1 .08.01h.02l.02.01a.37.37 0 0 1 .1.04h.02l.02.02.04.02.06.05.01.01.04.04.07.08.04.05.04.04.08.11a3.59 3.59 0 0 1 .16.25l.09.15.09.15.08.17.09.17v.01l.08.18.1.2.08.2.09.2v.02l.09.2v.02l.09.21v.02l.05.12.04.1v.01l.04.1.06.14.08.23V29l.09.24v.02l.09.24v.02l.18.5v.03l.18.51v.03l.17.52v.01l.01.02.16.52.01.03.16.53v.02l.01.01.16.53v.03c.22.73.41 1.44.6 2.1v.04l.12.45.01.04.11.43.01.03.1.4.01.04.1.37v.04l.16.67v.03l.02.05a24.91 24.91 0 0 1 .14.64l.01.08v.01l.01.06v.02l.01.02.01.01.01.01h.02v.01h.09a.35.35 0 0 0 .04 0l.11-.05h.03v-.01h.02l.03-.02a2.66 2.66 0 0 0 1.03-.67l.01-.02.02-.01c.13-.14.49-.54 1.1-1.43l.05-.07v-.01l.05-.07.05-.08.17-.25v-.01l.05-.08.2-.3.02-.03c0-.02.02-.03.03-.05l.2-.32v-.01l.02-.03v-.01l.02-.02.02-.03a43.5 43.5 0 0 0 .26-.45l.01-.02.06-.09.03-.05.01-.03.06-.1.04-.06.05-.08.01-.03.02-.02v-.02l.06-.1.13-.22.11-.2.02-.03.01-.02.03-.06.08-.13.04-.06.02-.03.02-.04v-.01l.29-.25.02-.01.03-.01.06-.03a5.21 5.21 0 0 1 .31-.12l.02-.01h.02v-.01h.02l.12-.04h.03v-.01l.12-.03.12-.04h.01l.12-.03.06-.01.1-.02h.02l.02-.01.09-.02.07-.02h.05l.03-.01a9.27 9.27 0 0 1 .61-.09H71l.39-.04h.12l.1-.01.3-.02H72.16l.37-.01a6.76 6.76 0 0 0 .04.83l.03.28.01.03v.02l.07.38.01.04a6.23 6.23 0 0 0 .07.28l.08.26.04.14v.01l.01.02.04.1c.7 1.88 1.72 3.24 3.6 3.84l.1.03.1.04.07.01.04.02h.02l.07.02.09.02h.01l.05.02.08.02.16.04h.04l.05.02h.02l.1.02.1.02h.05l.04.01a6.09 6.09 0 0 0 .33.05h.05l.08.01H78.28l.07.01h.04a5.37 5.37 0 0 0 1.1-.06h.02l.01-.01h.02l.04-.01h.01a4.7 4.7 0 0 0 .09-.02h.02l.06-.02h.01l.07-.02h.03v-.01h.03l.01-.01.04-.01h.02l.02-.01h.02l.01-.01h.02l.01-.01h.01l.03-.01.05-.02h.03l.05-.03.05-.01.02-.01h.02v-.01l.11-.04h.02l.05-.02a8.71 8.71 0 0 0 1.25-.59c.5-.28 1-.62 1.52-1.03l.1-.08.1-.09.06-.04.05-.05c.02 0 .03-.02.05-.03l.06-.05v-.01l.12-.1c.21-.23.32-.37.42-.54.04-.07.06-.11.04-.18a.35.35 0 0 0-.16 0 2.69 2.69 0 0 0-.78.44l-.17.14h-.01c-.35.3-.68.54-1 .74a4.94 4.94 0 0 1-1.92.53 4.62 4.62 0 0 1-.19 0h-.12a7.17 7.17 0 0 1-2.2-.48c-1.66-.65-2.59-1.96-3.24-3.71a6.16 6.16 0 0 1-.29-1.03 29.99 29.99 0 0 1 2.83.4h.01l.1.02h.08v.01h.04l.05.01h.06l.03.01.07.01h.07l.03.01h.01l.14.01.11.01H77.9l.04.01H78.07a6.91 6.91 0 0 0 2.65-.36l.05-.02.03-.01.04-.02c.45-.16.93-.39 1.37-.7h.01l.01-.01.01-.01.02-.01.02-.01.02-.02h.01v-.01l.07-.05a4.61 4.61 0 0 0 .4-.33c0-.02.02-.03.03-.04l.02-.02.02-.02.01-.01.02-.03h.02v-.01l.01-.02a4.76 4.76 0 0 0 .76-.99l.02-.04.03-.05.02-.05a2.57 2.57 0 0 0 .11-.25l.01-.02.01-.03.01-.03a2.54 2.54 0 0 0 .07-.24v-.03l.01-.04.01-.04v-.03l.01-.04v-.04l.01-.04.02-.13v-.53a4.4 4.4 0 0 0-.1-.64v-.02l-.04-.16v-.02l-.01-.03v-.02l-.01-.01v-.03h-.01v-.03h-.01v-.03l-.02-.04-.01-.04-.01-.03v-.01l-.01-.01v-.01l-.02-.05-.01-.03v-.01a3.25 3.25 0 0 0-.15-.32l-.02-.04-.01-.03-.02-.03-.01-.01v-.01h-.01a3.3 3.3 0 0 0-.03-.06v-.01l-.02-.03a3.34 3.34 0 0 0-.05-.07l-.01-.02-.01-.01-.02-.03-.01-.02-.02-.02-.03-.05a3.43 3.43 0 0 0-.07-.09l-.02-.03-.01-.01-.04-.05h-.01v-.02h-.01l-.03-.03v-.01h-.01l-.01-.02-.02-.02-.03-.03-.02-.02-.02-.03H83l-.02-.02-.03-.04h-.01a3.67 3.67 0 0 0-.05-.05l-.02-.02-.03-.03-.03-.02-.02-.02-.02-.02-.02-.01-.01-.02h-.01l-.03-.03h-.01v-.01l-.04-.03a3.87 3.87 0 0 0-.03-.03h-.01l-.03-.03-.02-.01-.03-.02-.02-.02-.02-.01a4.01 4.01 0 0 0-.05-.04l-.02-.01-.02-.02-.02-.01-.03-.02a4.12 4.12 0 0 0-.05-.03l-.02-.01-.04-.03-.02-.01h-.02v-.01a4.2 4.2 0 0 0-.08-.05h-.01l-.01-.01-.03-.01-.02-.02-.04-.02H82v-.01l-.04-.02h-.02l-.03-.02-.02-.02h-.03c-.01-.02-.03-.02-.05-.03l-.02-.01-.04-.02h-.01l-.02-.01-.03-.02h-.02l-.02-.01h-.01l-.03-.02h-.02l-.03-.02-.08-.03h-.02l-.02-.02-.05-.01h-.01l-.03-.01a4.73 4.73 0 0 0-.1-.04h-.03v-.01l-.04-.01h-.02l-.02-.01-.03-.01h-.03l-.05-.02-.03-.01h-.04l-.05-.02h-.04v-.01h-.04l-.03-.02h-.07l-.05-.02h-.04l-.06-.02h-.03l-.09-.01h-.02l-.09-.02a6.27 6.27 0 0 0-.73-.05h-.2c-.69.04-1.29.2-1.87.42l-.02.01h-.01c-.02.02-.04.02-.07.03l-.03.01-.1.05-.03.01a7.7 7.7 0 0 0-.1.05l-.07.03-.05.02-.05.03-.02.01h-.02v.01h-.02a7.18 7.18 0 0 0-1.34.83v.02h-.02v.01l-.03.02h-.01v.01l-.02.01a8.76 8.76 0 0 0-2.01 2.3l-.04.07-.03.04a7 7 0 0 0-.03.07h-.01v.01a7.95 7.95 0 0 0-.15.28l-.02.05a6.8 6.8 0 0 0-.1.2l-.01.02-.02.04v.01l-.04.08v.02l-.01.02-.01.01-.01.03-.03.07-.01.02-.01.04-.03.06v.02l-.01.01v.02l-.03.05v.03l-.01.01v.02l-.02.02v.04l-.02.02v.03l-.01.03-.02.05v.01l-.01.02v.01l-.01.02-.01.04-.01.04-.01.04-.01.02v.01l-.01.03v.02l-.03.06-.05.23-.02.07-.01.08-.02.07-.07.01h-.02l-.11.01h-.04l-.04.01h-.07l-.03.01h-.02l-.07.01h-.02l-.02.01h-.03l-.09.02h-.07l-.02.01h-.03l-.08.02h-.05l-.03.01h-.04l-.05.02h-.03l-.1.02h-.03a7.2 7.2 0 0 0-1.22.37h-.02l-.05.03-.05.02h-.01l-.05.02-.02.01-.06.03-.02.01-.03.01c-.2.1-.47.23-.75.4l.02-.05.1-.19.04-.07v-.01l.04-.07v-.01a55.18 55.18 0 0 0 .2-.4l.02-.04.02-.03.01-.02.02-.03.02-.04.03-.06v-.02l.04-.08.04-.07.01-.03.03-.06.03-.06.01-.02.02-.03.03-.06.01-.03.02-.03.09-.2.03-.05v-.02l.07-.14.01-.02.07-.13c0-.03.02-.06.03-.08l.01-.02.1-.2v-.03l.13-.26.03-.09.08-.16.01-.04.07-.15.03-.06.03-.09.01-.01.02-.06.05-.12.05-.1v-.01l.02-.04.02-.06.01-.03.05-.1.01-.03v-.01l.03-.08.06-.13.01-.04.01-.02v-.02l.02-.03.04-.11.03-.06.01-.05.02-.03v-.02l.02-.04.06-.17.01-.02v-.02l.02-.03.01-.03v-.01l.06-.15V27l.05-.12.02-.07v-.02l.04-.09.02-.05.02-.06.03-.12.01-.03.02-.06.06-.18v-.01l.01-.05.05-.15v-.02l.01-.03.02-.05v-.01l.02-.07v-.03l.02-.04.02-.08.01-.05v-.03l.04-.12v-.03l.04-.17v-.01l.02-.06v-.05l.05-.22.03-.2V24.64l.03-.15.01-.2v-.08l.01-.1v-.25l-.01-.03v-.05a.2.2 0 0 0-.01-.03c-.1-.02-.14-.01-.25.03-.27.1-.52.27-.62.35a2.67 2.67 0 0 0-.67.78.12.12 0 0 0-.01.08l.01.16v.09c0 .14 0 .3-.02.46l-.02.2-.02.13-.08.4-.01.04-.02.06a10.53 10.53 0 0 1-.26.92 21.79 21.79 0 0 1-.27.8l-.07.17-.04.1-.1.29-.12.28-.36.87-.08.16-.06.13a47.76 47.76 0 0 1-.55 1.18l-.05.1v.02l-.23.45v.02a52.57 52.57 0 0 1-2.35 4.19l-.18.28c-.17-.78-.53-2.22-.98-3.83v-.03l-.01-.02-.02-.06-.01-.05a99.98 99.98 0 0 0-.16-.56l-.04-.13v-.02l-.04-.11-.04-.17-.04-.12-.11-.39-.02-.05v-.01l-.1-.36-.1-.27v-.05l-.14-.42-.01-.04-.16-.51-.02-.04a57.97 57.97 0 0 0-.18-.55l-.1-.3-.1-.27-.14-.42-.02-.04-.01-.04a28.54 28.54 0 0 0-.33-.87l-.03-.06a21.99 21.99 0 0 0-.21-.5l-.05-.11v-.01l-.02-.03a14.17 14.17 0 0 0-.14-.3v-.02l-.09-.16v-.01l-.08-.16v-.01l-.09-.15v-.02l-.04-.05a5.66 5.66 0 0 0-.05-.08v-.01a4.54 4.54 0 0 0-.07-.11l-.01-.02a2.76 2.76 0 0 0-.15-.21l-.01-.01a2.17 2.17 0 0 0-.03-.04l-.01-.01-.03-.03v-.01a1.25 1.25 0 0 0-.11-.11h-.01a.67.67 0 0 0-.1-.08l-.01-.01a.56.56 0 0 0-.1-.05l-.04-.01h-.05l-.01-.01h-.02a2.28 2.28 0 0 0-.18-.02h-.2l-.04.01h-.02l-.03.01a1.28 1.28 0 0 0-.09.02h-.02l-.03.02h-.03l-.08.03-.05.02-.03.02h-.02l-.03.01-.16.07-.04.02-.03.02-.04.02-.04.02-.04.02-.04.02-.03.02-.04.02-.04.02-.03.02-.04.02-.04.02a4.97 4.97 0 0 0-.07.05l-.03.02-.03.02-.04.02-.1.07-.03.02-.03.02-.03.03-.03.02-.04.03-.02.02-.02.01-.02.02-.02.02a5.6 5.6 0 0 0-.17.14l-.04.03-.03.04a6.48 6.48 0 0 0-.08.06l-.03.03-.03.03-.03.03-.02.02-.04.04-.01.01-.03.03-.01.01-.01.01-.02.02-.02.02-.01.02c-.6.61-1.09 1.34-1.52 2.1l-.01.03-.03.05-.04.07v-.01h-.01a5.85 5.85 0 0 0-.06-.14l-.01-.02a5.96 5.96 0 0 0-.06-.12l-.06-.11-.03-.05-.04-.06-.05-.09-.01-.02a12.4 12.4 0 0 0-.13-.2l-.01-.03-.06-.08-.02-.04a9.12 9.12 0 0 0-.05-.06l-.05-.08-.01-.02v-.01a7.65 7.65 0 0 0-.07-.09l-.02-.02a6.72 6.72 0 0 0-.14-.2l-.05-.06a5.47 5.47 0 0 0-.15-.17v-.02c-.02 0-.03-.02-.03-.03l-.03-.03h-.01l-.04-.05-.04-.04-.02-.02-.02-.02a3.42 3.42 0 0 0-.26-.24h-.01l-.01-.02-.03-.02-.04-.03-.02-.02-.03-.01-.03-.03a2.68 2.68 0 0 0-.06-.04l-.03-.02-.03-.02h-.02a2.48 2.48 0 0 0-.1-.07l-.03-.02a2.3 2.3 0 0 0-.17-.08h-.01a2.17 2.17 0 0 0-.2-.07 2.1 2.1 0 0 0-.06-.02l-.03-.01-.04-.01a2.09 2.09 0 0 0-.1-.02h-.01l-.05-.01a2.79 2.79 0 0 0-.53-.04h-.17l-.02.01h-.03c-.26.03-.54.11-.87.24l-.03.01-.04.02h-.03v.01h-.02l-.02.02c-.02 0-.03 0-.05.02h-.01l-.02.01-.04.02-.05.02-.36.18-.04.02a5.1 5.1 0 0 0-.58.38l-.01.01h-.01l-.01.02-.06.04a5 5 0 0 0-.49.45l-.05.06c-.37.4-.6.78-.68.92v.02l-.02.02v.01l-.01.02-.01.01v.02a3 3 0 0 0-.27.7v.03l-.01.04v.02h-.01v.04l-.01.03v.03l-.01.02v.03l-.01.03v.04l-.01.05v.05l-.01.03V29.04l-.01.1v.02a3.7 3.7 0 0 0 0 .24v.03c0 .2.02.36.03.44v.04a3.65 3.65 0 0 0 .03.13v.02l.03.13v.04l.01.02.01.03v.03l.01.02.03.1.02.05v.02l.01.04v.01l.03.06.01.04.01.02.02.04.02.06a3.25 3.25 0 0 0 .04.08v.02l.04.07.02.04v.01l.01.01.02.04.02.04.01.01.04.06v.01l.08.12.01.02.04.06.02.03.02.02.02.03.03.03.01.02.01.01.03.04.03.02c0 .02.02.02.02.03l.02.02a2.16 2.16 0 0 0 .1.1l.02.01.05.05.02.02.03.03.02.01.02.03.05.04.05.04h.01l.05.04.06.05h.01l.05.04.06.04.03.02.02.01.02.01.03.02a2.84 2.84 0 0 0 .25.13l.03.02.05.02h.01l.17.07h.01l.06.02a2.25 2.25 0 0 0 .23.06h.04l.04.01a2.1 2.1 0 0 0 .1.01h.09a2.65 2.65 0 0 0 .86-.09l.3-.1.39-.16h.03v-.01h.01l.04-.02.03-.02a6.6 6.6 0 0 0 1.86-1.33l.02-.02.01-.01.01.09.02.13v.12l.01.04v.02l.01.11v.2a5.92 5.92 0 0 1-.01.44v.02l-.01.12v.02l-.02.1v.03l-.02.13v.09l-.02.07-.02.12v.02a6.4 6.4 0 0 1-.06.25 6.5 6.5 0 0 1-.07.26l-.04.14v.02l-.04.13a6.73 6.73 0 0 1-.1.27v.01l-.05.12v.02l-.05.1-.01.04-.04.08v.02l-.02.02c-.2.45-.46.89-.76 1.28-.2.2-.4.38-.62.55l-.05.04-.08.05v.01l-.15.1-.05.03-.08.05a5.5 5.5 0 0 1-1.53.47c-.75.08-1.5 0-2.22-.23l-.06-.02.24-.19h.01l.01-.02.03-.02.03-.02.05-.04.07-.06.02-.02h.01l.01-.01.01-.01.04-.03.06-.05.02-.02c.02 0 .03-.02.04-.03l.02-.01.06-.05.15-.14c.22-.22.32-.36.42-.54.04-.06.06-.1.04-.18-.1-.01-.14-.01-.25.03-.26.1-.5.27-.61.36l-.02.01-.03.02-.01.01-.02.01v.01h-.01v.01c-.02 0-.02.01-.03.02h-.01v.01l-.02.02-.09.06-.01.02-.24.18-.01.01-.04.04-.08.05-.13.1v.01a7.33 7.33 0 0 1-.25.17l-.08.04h-.01c-1.5-.74-2.75-2.25-3.23-4.56l-.02-.1v-.03l-.02-.1-.02-.12v-.03a10.03 10.03 0 0 1-.08-.5 10.57 10.57 0 0 1-.02-.54v-.14l.02-.13a6.37 6.37 0 0 1 .11-.83l.03-.14.04-.14c0-.05.02-.1.03-.14l.04-.14a6.55 6.55 0 0 1 .1-.28c.17-.46.4-.92.7-1.35l.02-.04a5.85 5.85 0 0 1 .31-.33l.06-.05.04-.04.05-.04.08-.07.03-.02v-.01a5.87 5.87 0 0 1 .34-.26s.02 0 .02-.02l.12-.08h.02l.18-.09.04-.01.09-.04a6.63 6.63 0 0 1 .75-.26h.02l.02-.01h.02l.03-.01.1-.03.2-.04h.03l.17-.04h.04l.39-.06c.29-.03.6-.05.9-.06h.52c.76.02.75-.07.3-.1.26-.1.47-.23.65-.39l.08-.08c.21-.22.32-.36.42-.53.03-.05.05-.1.05-.14v-.05h-.46c-1.4 0-2.36.28-2.96.51l-.03.01h-.01l-.07.03h-.01l-.02.02-.04.01c-.88.36-1.56.8-1.99 1.13l-.02.01-.06.04-.06.05-.03.03a8.39 8.39 0 0 0-.34.28l-.07.07-.05.05-.07.06a8.68 8.68 0 0 0-1.58 2.02l-.02.03-.01.03-.03.05-.01.03-.02.03-.03.07-.03.05v.01l-.03.05a6.36 6.36 0 0 0-.06.13l-.03.07v.01l-.01.01-.01.03v.01l-.02.04a6.5 6.5 0 0 0-.04.09v.01l-.01.02v.01l-.01.02-.02.03-.01.04v.02a6.97 6.97 0 0 0-.15.41l-.02.06a6.7 6.7 0 0 0-.06.23l-.02.05-.04.19-.01.06-.03.13-.01.06a6.6 6.6 0 0 0-.03.16v.05l-.04.27v.05l-.01.02v.08l-.02.17V31.8l.01.05v.09l.05.32.01.1.01.06.01.06v.02l.01.05.01.07v.01l.01.03v.03l.02.1v.01l.02.06.02.1v.04l.04.14.01.06v.01l.02.07v.01l.01.02.02.06.02.08.02.07c0 .04.02.07.03.1v.02l.02.07.03.08.01.05.01.03.02.06v.01l.01.01v.01l.02.04v.03l.03.05v.03l.01.01.01.03.02.06.01.02v.01l.01.02.03.05v.01l.01.03.02.04.01.03.04.1c0 .02.01.02.02.03 0 .03.02.05.03.07l.01.04.02.03v.02H45v.02l.03.04.02.05.06.12.07.13.06.1v.01l.01.01v.01h.01l.02.05.02.03.04.07.02.03.03.04.01.02.03.04v.01l.06.08v.02l.06.07.01.02.03.04.04.05.01.02.1.12.05.07.02.02V36l.07.08.06.07.04.05h.01v.01l.05.05.02.03h.01v.02c.02 0 .02.01.03.02l.03.03.04.04.02.02.01.01.01.01a17.25 17.25 0 0 1-3.57-.97l-.14-.04-.38-.13c-.04 0-.08-.02-.11-.03l-.5-.15-.15-.04-.54-.16h-.01l-.56-.15-.12-.03a43.24 43.24 0 0 0-1.05-.26h-.04l-.14-.04.02-.04.02-.06.06-.19.02-.06.01-.07.02-.07.07-.35.02-.07c.05-.34.08-.71.07-1.15v-.1a16.45 16.45 0 0 0-.28-2.75v-.02l-.06-.33-.01-.04v-.01l-.05-.27-.01-.05-.04-.24-.25-1.36a221.35 221.35 0 0 1-.55-3.27 122.47 122.47 0 0 1-.73-5.68 66.06 66.06 0 0 1-.09-.98v-.01l-.04-.5-.03-.45v-.06l-.01-.15-.02-.3-.02-.47c-.03-.65-.05-1.3-.05-1.92V12.48l.02-.32.35.1.25.06.24.06h.02l.23.06.41.1.07.01.1.02.13.03.08.02.4.07.18.04.09.01.13.02.07.01.15.02.05.01.12.02a13.38 13.38 0 0 0 .2.02l.08.01.11.01.08.01.12.01h.11l.1.01H40.92l.24.02h.37l.32-.01h.08a4.88 4.88 0 0 0 1.15-.22l.04-.01.02-.01.04-.01.02-.01.06-.03h.04v-.01h.01l.02-.01.02-.01c.82-.3 1.42-.71 1.86-1.16l.04-.04.03-.02v-.01l.01-.01c.31-.32.57-.64.82-1.08l.03-.05.02-.04.01-.02c.15-.27.35-.69.52-1.4V8.7l.08-.37v-.01l.02-.06v-.03a2.7 2.7 0 0 0 0-.06l.01-.02V8.1l.01-.04v-.12c.02-.18 0-.36-.01-.52v-.05a3.73 3.73 0 0 0-.05-.24v-.05l-.02-.04v-.05l-.02-.04-.02-.08v-.04h-.01l-.02-.07v-.02a4.06 4.06 0 0 0-.06-.15v-.02a4.35 4.35 0 0 0-.09-.22v-.02l-.03-.06-.01-.02-.01-.02V6.2l-.02-.02-.04-.08v-.02h-.01a4.66 4.66 0 0 0-.1-.2l-.04-.07-.02-.04-.02-.03-.01-.02a4.9 4.9 0 0 0-.06-.09v-.02c-.02 0-.02-.02-.03-.03l-.01-.02-.03-.03v-.01l-.01-.02a5.08 5.08 0 0 0-.04-.05c0-.02-.02-.03-.03-.05l-.01-.01a5.06 5.06 0 0 0-.09-.11c0-.01 0-.02-.02-.03 0 0 0-.02-.02-.03a5.12 5.12 0 0 0-.03-.04l-.02-.02-.02-.02-.02-.03-.01-.02-.03-.03a5.09 5.09 0 0 0-.08-.1l-.03-.02a5.1 5.1 0 0 0-.05-.06l-.01-.01-.01-.01-.02-.03a5.14 5.14 0 0 0-.03-.03l-.03-.02-.01-.02c-.01 0-.02 0-.02-.02l-.02-.02-.03-.02-.02-.02-.01-.02h-.01l-.04-.04a5.12 5.12 0 0 0-.06-.05l-.02-.02a5.08 5.08 0 0 0-.07-.06l-.02-.01v-.01l-.03-.02-.03-.03-.02-.02h-.02V4.4l-.04-.03-.01-.01h-.01l-.03-.03-.05-.04-.02-.01a4.94 4.94 0 0 0-.08-.06l-.03-.02-.03-.02-.03-.03h-.02v-.01l-.03-.01a4.88 4.88 0 0 0-.06-.05h-.01l-.05-.03a4.86 4.86 0 0 0-.1-.06l-.04-.02a4.78 4.78 0 0 0-.08-.05h-.01V3.9l-.04-.02-.06-.03-.02-.01-.04-.02a4.69 4.69 0 0 0-.08-.04l-.04-.02-.04-.01-.04-.02-.05-.02-.05-.03a4.56 4.56 0 0 0-.18-.07h-.01a4.5 4.5 0 0 0-.1-.03h-.02a4.51 4.51 0 0 0-.1-.04h-.01l-.1-.03-.11-.03h-.01l-.03-.01-.08-.02h-.01l-.1-.02-.12-.02h-.02l-.05-.01a4.92 4.92 0 0 0-.74-.06zm-1.48 1.3.36.01a4.4 4.4 0 0 1 .42.05l.13.03h.02l.08.02h.03l.02.01c.04 0 .07.02.11.03h.01l.12.03a4.5 4.5 0 0 1 .22.07l.03.01.04.02.05.02h.02l.03.02.04.01.06.03.04.02.09.04h.02l.12.07.13.06.02.01.07.04.08.05a4.82 4.82 0 0 1 .1.06l.04.03.06.04.11.07.01.01.03.02a5 5 0 0 1 .09.07h.01a5 5 0 0 1 .09.07l.04.03.01.02.05.03.07.06.01.02.08.07.07.06.06.06.14.13v.01l.08.08v.01a5.13 5.13 0 0 1 .16.18v.01h.01a5.1 5.1 0 0 1 .11.15h.01l.08.11v.02a5 5 0 0 1 .14.2h.01l.05.1a4.87 4.87 0 0 1 .09.14v.02c.03.03.04.06.06.1l.06.12v.01l.06.1.03.08.02.05.04.1v.02l.01.01.04.1v.02l.02.03.02.08v.02l.07.22v.03a3.76 3.76 0 0 1 .03.1l.01.05.01.05v.01l.02.1v.03l.02.12v.15a2.87 2.87 0 0 1 0 .23V9.23l-.01.05v.06l-.01.01-.02.1a9.54 9.54 0 0 1-.05.29l-.03.13a6.98 6.98 0 0 1-.27.86c-.08.2-.17.38-.27.54l-.07.06-.13.05c-.12.04-.23.08-.35.1l-.03.01-.04.01-.06.02a4.46 4.46 0 0 1-.42.07H43.43l-.22.02c-1.1.05-2.51-.16-4.34-.65l-.75-.2h-.03l-.62-.17-.2-.05-.19-.04c0-.09.02-.17.03-.26l.04-.42a19.49 19.49 0 0 1 .2-1.22l.08-.39a13.22 13.22 0 0 1 .3-1.09l.04-.11.08-.23c0-.03.02-.07.04-.1v-.01c.19-.47.4-.9.66-1.27.15-.16.3-.3.46-.43l.04-.02.06-.03.09-.03a5.34 5.34 0 0 1 1.36-.24zM35 22.84zm16.77 1.9h-.05.05zM78.15 26h.17a5.17 5.17 0 0 1 .33.02 5.1 5.1 0 0 1 .33.03h.04v.01a4.99 4.99 0 0 1 .35.07l.08.02.15.04a4.75 4.75 0 0 1 .3.1l.04.01.04.01.07.03.07.03h.02a4.5 4.5 0 0 1 .13.06l.02.01.08.04.04.02.06.04.1.05.04.02a4.18 4.18 0 0 1 .16.1 4.08 4.08 0 0 1 .16.1l.03.03.09.06a3.93 3.93 0 0 1 .09.07l.03.03.05.05.09.07.03.03.05.05a3.65 3.65 0 0 1 .08.07v.01l.07.08.08.08.02.03.05.05a3.43 3.43 0 0 1 .2.27 3.32 3.32 0 0 1 .09.16l.02.03V28l.05.09.03.07.02.03v.01l.09.2.01.03.03.07.02.07a3.23 3.23 0 0 1 .04.15l.03.07.01.08v.02h.01v.03l.02.05v.05l.01.02v.02l.01.03.01.05v.02l.01.03v.04l.02.07v.02a4 4 0 0 1 .02.12V29.52l.01.04v.2l.01.03v.27h-.01v.08l-.01.01a2.65 2.65 0 0 1-.02.1v.02l-.01.04v.02l-.02.04v.04l-.02.03v.03l-.01.02v.01l-.02.06-.02.03v.01a2.34 2.34 0 0 1-.05.12v.02l-.02.03v.02h-.01v.01l-.01.02-.01.02-.01.02v.01l-.01.01-.02.02v.01l-.02.01-.01.01-.04.03c-.42.18-.89.3-1.37.38a7.82 7.82 0 0 1-2.65-.15l-.17-.03-.18-.03h-.02l-.16-.03h-.06l-.02-.01-.22-.03h-.03a29.73 29.73 0 0 0-3.16-.28v-.03l.02-.28v-.02l.03-.26v-.01l.02-.15.03-.14.02-.14.03-.14v-.03a6.84 6.84 0 0 1 .29-.94l.05-.14.02-.04a6.61 6.61 0 0 1 .15-.35l.03-.06c.14-.25.28-.5.45-.74l.02-.03c.21-.24.45-.46.7-.66l.07-.04a5.47 5.47 0 0 1 .26-.15l.13-.06.13-.06.05-.02h.02c.04-.03.09-.04.13-.06h.03l.04-.02.04-.01.25-.07.03-.01.04-.01a5.33 5.33 0 0 1 .35-.06h.04a5.3 5.3 0 0 1 .49-.05h.12zm-25.67.58H52.71l.01.01c.07 0 .14.02.2.03h.02a2.09 2.09 0 0 1 .19.05h.02a2.13 2.13 0 0 1 .32.14l.03.02a2.37 2.37 0 0 1 .1.05l.02.01.04.03.05.03.04.03.03.02.02.01a2.81 2.81 0 0 1 .08.07h.01l.04.03a3.2 3.2 0 0 1 .13.11v.01l.04.03.02.02.02.02.04.04.01.01.03.03.01.01.05.06.02.01.04.04.04.05.01.01.03.04.02.02.02.02a5.3 5.3 0 0 1 .07.1h.01l.03.04.22.3.05.07.03.04a8.95 8.95 0 0 1 .14.21l.02.04.02.03.03.04.07.11.02.04v.01l.09.14.02.04.07.12.05.1v.01l.05.1.01.02v.02a5.87 5.87 0 0 1 .13.3l.01.02.01.03v.01l.04.1.02.06a5.77 5.77 0 0 1 .07.22v.01l.01.02.02.08v.01l-.06.08-.07.1-.08.1c-.24.24-.5.47-.77.66l-.06.03-.04.02h-.01l-.01.01a2.89 2.89 0 0 1-.5.15h-.11c-.6.02-1.24-.23-1.9-.86a3.13 3.13 0 0 1-.83-1.87v-.02a3.62 3.62 0 0 1-.01-.36v-.18l.01-.09a3.31 3.31 0 0 1 .1-.52l.02-.09.03-.08.02-.08.03-.08v-.01h.01c0-.02.01-.03.02-.03l.02-.06.02-.03.01-.02v-.01l.05-.08.01-.01.03-.02h.02l.03-.02h.03l.08-.03h.01l.14-.05h.03v-.01h.05l.07-.02h.01l.13-.01h.08l.04-.01h.06zm-23.22 7h-.05.05zm69.77 1.12a.44.44 0 0 0-.15.05 2.7 2.7 0 0 0-.82.52 2.53 2.53 0 0 0-.48.65V36a3.61 3.61 0 0 0 .88 2.31 3.43 3.43 0 0 1-.04.45l-.02.07v.05l-.02.06-.08.3a3.85 3.85 0 0 1-.56 1.13l-.07.08-.06.07-.07.07-.05.05-.15.12-.16.11-.1.07-.06.05-.16.1-.16.11-.16.1-.16.1-.02.02-.05.02c-.51.28-1.03.5-1.54.68l-.06.02-.1.03-.21.07-.05.01-.04.01-.15.05h-.03l-.02.01h-.02l-.04.02-.05.01-.07.02a12.04 12.04 0 0 1-.33.08h-.04a12.68 12.68 0 0 1-1.18.22l-.09.01h-.02l-.06.01-.37.04-.16.02a18.96 18.96 0 0 1-1.85.08 49.4 49.4 0 0 1-1.55 0H87.47c-.68 0-1.33 0-1.97.03l-1.15.04h-.21l-.06.01h-.04l-.28.01-.39.02-.22.01-.3.01h-.04l-.1.01-.4.02h-.14l-.17.02-.4.02h-.09l-.13.01h-.01l-.23.02h-.03l-.42.03c-.7.05-1.36.1-2 .17-1 .1-1.95.24-2.85.42l-.27.05-.1.02h-.03l-.09.03h-.04l-.06.02h-.04l-.02.01-.11.03h-.05l-.07.02h-.01l-.02.01h-.03l-.14.04-.08.02h-.03l-.02.01-.03.01-.1.03h-.04l-.07.03h-.02l-.1.03-.16.04-.05.02h-.02l-.17.05-.05.01-.11.04h-.03l-.02.01h-.02l-.03.02c-.37.11-.7.22-.98.33h-.02v.01h-.02l-.11.05-.04.01-.16.06-.07.03-.11.05h-.02l-.07.03-.06.03c-.98.4-2.43 1.12-3.98 2.3v.01l-.03.02-.15.12-.02.02h-.02l-.01.02-.17.13-.04.04-.14.12.08-.08-.42.36-.05.05-.17.15-.03.03-.02.01-.02.01-.2.19-.2.17-.09.08c-.68.57-1.3 1.02-1.9 1.38-.37.2-.73.36-1.08.49l-.05.02h-.02l-.15.05v-.01l.04-.16.07-.27v-.02l.01-.02v-.01l.01-.03v-.02l.01-.02v-.03l.02-.06v-.03l.01-.02.01-.03v-.02l.01-.04v-.02l.01-.02v-.05h.01v-.02l.01-.05v-.02l.01-.05v-.02l.01-.05.01-.07v-.04l.01-.03v-.05l.01-.02c.05-.5.05-1.1-.12-1.75l-.01-.03c0-.03-.02-.06-.03-.08v-.03l-.02-.06v-.02l-.02-.03a3.8 3.8 0 0 0-.03-.1l-.01-.02-.03-.07v-.01l-.02-.03-.01-.03v-.02l-.02-.02v-.02L63 46.9l-.02-.05v-.01l-.01-.01-.02-.04v-.01l-.02-.02-.01-.04h-.01l-.04-.08v-.01l-.01-.01-.01-.02-.02-.03-.02-.04-.01-.01-.01-.02-.04-.06a3.1 3.1 0 0 0-.05-.07v-.01h-.01v-.01l-.04-.05-.02-.02v-.01l-.01-.02a2.9 2.9 0 0 0-.04-.04l-.01-.02-.04-.04-.02-.02v-.01h-.01v-.02h-.01a2.75 2.75 0 0 0-.06-.06l-.03-.04-.02-.02-.04-.03-.02-.02-.03-.03a2.52 2.52 0 0 0-.04-.04l-.02-.01-.02-.02-.02-.02h-.01v-.01a2.4 2.4 0 0 0-.07-.05h-.01l-.01-.02-.03-.02-.03-.02-.04-.02v-.01h-.02l-.04-.03-.02-.01-.01-.01-.03-.02h-.01l-.03-.02h-.01l-.01-.01a2.07 2.07 0 0 0-.13-.06l-.03-.02h-.02l-.02-.01-.02-.01h-.01l-.02-.01h-.02v-.01h-.02l-.05-.02h-.02a1.96 1.96 0 0 0-.11-.04l-.05-.01-.08-.01h-.01l-.04-.01h-.01l-.05-.01a2.96 2.96 0 0 0-.39-.02h-.16a2 2 0 0 0-.48.11l-.04.02-.04.01-.05.02-.08.03h-.02v.01h-.03v.01h-.01l-.12.06h-.02l-.02.01-.07.04h-.02l-.17.09-.02.01a5.51 5.51 0 0 0-.1.06l-.07.04-.04.02h-.01l-.03.02-.02.01-.02.02h-.01l-.02.02-.03.02-.02.01-.26.18-.06.04-.01.01-.04.03-.03.02-.02.02-.03.02-.03.02v.01h-.01l-.01.02h-.01c-.19.15-.38.33-.57.53l-.05.05a5.65 5.65 0 0 0-.77 1.05l-.03.04-.01.03v.01l-.01.01c-.1.19-.22.46-.28.8v.03l-.01.04v.03l-.01.01V49.03l-.01.03v.11l-.01.02v.03c0 .24.03.4.03.43v.05l.02.06v.06l.01.02.02.06v.04h.01v.03h.01V50l.01.02.02.03v.03l.01.02.01.02.01.04.01.02.01.02v.01l.01.02.01.01v.02h.01l.01.02v.02l.01.01.01.02.02.04.01.02.01.01v.01l.02.03.03.04.01.03.02.02.01.02v.01h.01l.01.02.02.03v.01l.01.01.02.02.01.02.02.03.02.03.02.02.02.02a2.51 2.51 0 0 0 .07.08l.01.01.01.01.01.02.02.02.02.01v.01l.02.02.03.03.02.01.01.02.03.02.03.03.03.02.01.02h.01l.02.02.02.01.01.02c.02 0 .02.01.03.02l.01.01c.02 0 .03.02.04.03l.07.05.03.03.06.03.06.04.07.05h.01l.03.03.06.03.07.04v.01l.08.04.17.09.07.04.1.04.08.03.02.01a3.89 3.89 0 0 0 .15.06l.03.01a3.84 3.84 0 0 0 .22.07 3.79 3.79 0 0 0 .28.07l.1.02c.07 0 .14.02.2.03h.03a4 4 0 0 0 .1 0l.08.01h.05l.04.01h.06a4.65 4.65 0 0 0 1.22-.1v-.01h.01l.05-.01h.03l.01-.01h.02l.03-.01h.03v-.01h.01l-.1.38-.15.55-.15.55-.34 1.1-.17.54-.1.3-.08.25-.16.47-.03.08-.4 1.1-.2.54-.43 1.09-.22.54a59.58 59.58 0 0 1-3.94 7.78l-.09.15-.22.36-.31.51-.33.5v.01l-.32.5-.12.18-.21.32-.34.5-.08.1-.26.38-.25.36-.1.13-.16.24-.08.1a56.94 56.94 0 0 1-2.29 2.96l-.38.46-.07.08-.11.12h-.01v.01l-.07.07-.02.03a57.78 57.78 0 0 1-.76.9h-.01a50.12 50.12 0 0 1-4.72 4.48l-.25.21.01-.2v-.05l.01-.12.01-.14v-.09l.02-.27v-.29l.01-.18v-.14l.01-.06V78.9l.01-.07V77.34l-.01-.18V77.1l-.01-.26v-.16l-.01-.13v-.2l-.01-.03v-.16l-.01-.05v-.1l-.01-.07v-.14l-.02-.27V75.47l-.01-.09-.01-.08v-.1l-.01-.05v-.09l-.01-.04-.01-.15v-.08l-.01-.03v-.02l-.01-.13-.01-.07v-.05l-.01-.06v-.03l-.02-.14v-.11l-.02-.17v-.04l-.01-.06v-.05l-.01-.05-.03-.2V73.46l-.01-.02-.01-.09v-.07l-.01-.02V73.21l-.01-.02V73.13l-.02-.09v-.08l-.01-.01V72.89l-.01-.02v-.07a43.07 43.07 0 0 0-.09-.58v-.04l-.1-.68-.04-.17-.02-.13v-.04l-.01-.04-.02-.13-.02-.12-.01-.04-.01-.05-.09-.48-.01-.06-.01-.08-.07-.34-.01-.05-.01-.05-.02-.07-.02-.11-.09-.42v-.03l-.04-.17-.04-.15v-.05h-.01v-.03l-.01-.03-.12-.5v-.02l-.13-.5v-.02l-.02-.03v-.03l-.05-.19a41.37 41.37 0 0 0-.09-.3v-.02l-.12-.43-.03-.1-.02-.09-.12-.4-.02-.05v-.01l-.05-.16-.07-.23-.05-.14-.13-.43-.05-.12a39.66 39.66 0 0 0-.32-.95l-.04-.1-.15-.39-.05-.14-.17-.44-.02-.03a38.3 38.3 0 0 0-.17-.44l-.07-.16-.12-.28-.09-.2v-.03a37.4 37.4 0 0 0-.2-.42v-.01l-.2-.46-.05-.1-.46-.94-.04-.08-.24-.46v-.02l-.25-.44-.07-.13-.2-.36-.1-.17-.02-.03-.18-.32-.02-.03-.19-.32-.03-.06-.59-.93-.06-.1-.43-.63-.04-.06-.18-.25-.02-.03c-.15-.22-.3-.43-.46-.63l-.02-.03-.03-.04a32.9 32.9 0 0 0-.33-.47l-.02-.03a18.15 18.15 0 0 0-.2-.3l-.07-.1-.02-.03-.12-.17-.03-.04-.11-.16-.06-.08-.07-.09s0-.02-.02-.03l-.03-.04-.09-.12-.1-.13-.02-.03-.1-.13-.04-.04a18.2 18.2 0 0 0-.54-.64l-.02-.02-.14-.16-.02-.03-.31-.33-.01-.01a17.44 17.44 0 0 0-.3-.3 17.46 17.46 0 0 0-.27-.27l.59-.43.38-.3.4-.28.32-.24.07-.05c.02 0 .04-.02.05-.03a52.53 52.53 0 0 1 1.14-.8l.4-.26.41-.26.2-.12a25.56 25.56 0 0 1 1.16-.66l.48-.23.15-.06.07-.03.14-.06.04-.02.07-.03h.02l.15-.07h.01l.11-.04h.01l.22-.08.2-.07h.02l.15-.05.11-.04.34-.1.08-.02.41-.1.46-.1h.01l.2-.03.22-.03h.01l.12-.02h.03l.18-.02c1.14-.1 2.33 0 3.56.36l.13-.01.04-.02.06-.02c.25-.1.47-.2.64-.34l.21-.18c.21-.22.32-.36.42-.54.04-.06.06-.1.04-.18l-.2-.06-.07-.01a10 10 0 0 0-.2-.05h-.02l-.02-.01a9.73 9.73 0 0 0-.47-.1h-.02a9.56 9.56 0 0 0-.17-.04h-.06l-.22-.04a9.76 9.76 0 0 0-4.59.42l-.16.06h-.02l-.18.07h-.03l-.08.04-.06.02-.04.01-.04.02h-.01l-.05.02-.05.02-.05.02-.1.04-.06.02-.1.04h-.02l-.07.04h-.01l-.03.01a24.07 24.07 0 0 0-4.9 2.8l-.13.1h-.01l-.09.07-.3.2v.01h-.01l-.02.02-.07.05-.06.05-.13.1-.11.07-.11.08-.04.03-.17.12-.08.06-.1.07v.01l-.14.1-.07.05-.08.06-.07.06-.06.04-.3.22-.04.03-.08.06-.22.17-.04.03-.07-.06-.01-.01-.14-.13h-.01l-.14-.13c-.02 0-.03-.02-.04-.03a16.52 16.52 0 0 0-.23-.18l-.01-.01-.18-.15-.02-.01-.17-.13-.08-.06-.09-.07a15.82 15.82 0 0 0-.31-.22l-.05-.04-.09-.06-.17-.11-.03-.02-.55-.35-.07-.04-.17-.1-.21-.12-.03-.02a14.25 14.25 0 0 0-.36-.19l-.1-.05-.15-.07-.02-.01a13.8 13.8 0 0 0-.27-.13l-.04-.02-.14-.06-.19-.08-.08-.04-.1-.04-.04-.01-.15-.06-.02-.01a13.04 13.04 0 0 0-.5-.18h-.01l-.22-.08-.2-.06-.12-.03-.1-.04-.1-.02-.11-.03-.1-.03c-.05 0-.08-.02-.12-.03l-.1-.02-.2-.05h-.01l-.47-.09h-.01l-.12-.02-.06-.01-.09-.01-.08-.02h-.02a12.63 12.63 0 0 0-1.88-.12l-.47.02H22.33l-.07.01h-.06l-.07.01-.06.01a7.04 7.04 0 0 0-.26.03l-.06.01-.06.01-.06.01-.06.01a8.22 8.22 0 0 0-1.57.43l-.07.02-.03.01-.02.01-.15.06h-.02A11.45 11.45 0 0 0 17.15 49l-.02.01-.04.04a6.76 6.76 0 0 0-.2.15c-.3.25-.58.51-.84.8h-.01l-.01.02-.07.07-.02.02c-.28.32-.58.7-.82 1.14l-.04.06-.02.03v.02l-.02.03c-.47.9-.36 1.55-.33 1.76v.02l.01.02v.04l.01.04a2.68 2.68 0 0 0 .04.18v.02l.01.02v.02l.01.01v.02l.02.04v.02l.05.13a3.03 3.03 0 0 0 .04.11l.13.3h.01l.01.02.08.14.1.16.06.09.03.04.03.04.04.06.03.03a4.75 4.75 0 0 0 .16.17l.01.02a6.91 6.91 0 0 0 .22.2h.02l.07.07.03.02.06.05.03.02.07.06a6.62 6.62 0 0 0 .44.31l.03.02.08.05h.01l.02.02h.02l.05.04c.02 0 .03.02.05.03h.02l.03.03.1.05.03.02.05.02.05.03.04.02.03.02.39.18.2.08h.02l.18.07.03.01.17.06.08.02.1.03.07.02.18.05h.04l.16.04.04.01.4.08h.03a7.92 7.92 0 0 0 .41.05h.02l.17.02h.08l.16.02h.32a9.64 9.64 0 0 0 .36 0H21.1l.03-.01h.06l.1-.01h.12l.04-.01h.04l.04-.01h.07l.05-.01h.06v-.01h.08l.02-.01h.06l.02-.01h.04l.03-.01c1.35-.18 2.42-.57 2.83-.72l.04-.01.02-.01.14-.05h.02v-.01c1.62-.6 3.06-1.39 4.27-2.22l.07-.04.02-.02.03-.02.02-.01.03-.02.02-.02.09-.06.07-.05.1-.06.07-.05.12-.08.02-.02.03-.02.02-.01.24-.16.03-.02v-.01l.02-.01h.01l.05-.04.05-.04h.01l.05-.04.05-.03.09-.06.16-.12.04-.02v-.01l.05-.03.02-.02.06-.04.04-.03h.01l.02-.02.08-.06.08-.06h.01l.02-.02h.01l.03-.03h.01l.02-.02.08-.06c.02 0 .03-.02.05-.04a17.98 17.98 0 0 1 2.9 3.53 37.8 37.8 0 0 1 7.12 17.09l.02.1.09.57v.01l.04.28v.07l.01.05.02.1v.08l.01.04.03.25.08.66v.1c.02.07.02.15.03.23v.02l.03.3.01.1v.05l.03.29a42.7 42.7 0 0 1 .06.84v.05l.01.19.02.23v.27a42 42 0 0 1 .03.7l.01.33v.63a40.87 40.87 0 0 1 0 .64V80.55l-.02.3v.03a39.35 39.35 0 0 1-.08 1.5v.08c.1 0 .14-.02.23-.05l.2-.08a2 2 0 0 0 .47-.27v-.01l.02-.01.4-.33c.02 0 .03 0 .03-.02l.02-.01.02-.01a50.03 50.03 0 0 0 3.94-3.51l.01-.02.04-.04.02-.01.01-.02.09-.08.01-.02.03-.03h.01l.05-.05.07-.08.16-.15.02-.03.3-.31.04-.04.03-.02.01-.02.06-.07.2-.2.15-.16A58.19 58.19 0 0 0 50 75.15v-.01l.03-.02c.29-.3.6-.58.96-.83l.02-.01.03-.02.1-.05.04-.02a7.6 7.6 0 0 1 .62-.27l.07-.02.04-.01.05-.02.02-.01h.03l.03-.02a8.97 8.97 0 0 1 .17-.05l.08-.02.02-.01h.02l.17-.05a9.99 9.99 0 0 1 .9-.2h.03l.02-.01h.01l.36-.06.16-.02.05-.01.16-.02h.05l.11-.02.33-.03h.01c.15 0 .3-.02.44-.03h.03a17.28 17.28 0 0 1 .42-.01h.31v.04a9.01 9.01 0 0 0 .05 1.06l.05.36v.03l.01.03.06.36v.01l.08.36.01.05.04.14v.01l.1.34.02.07.05.13.01.03.06.17c.94 2.5 2.29 4.33 4.8 5.13l.29.1.05.01.08.02.1.03h.03l.1.04c.03 0 .05 0 .07.02h.03l.1.03.07.01.08.02.05.01.06.02.21.04.06.01.16.03h.05l.09.02h.04l.03.01.07.01h.02l.12.02h.01l.12.01.21.02h.05l.1.01h.04a7 7 0 0 0 1.5-.1l.07-.01.04-.01h.03l.04-.02h.03l.1-.02h.01l.01-.01.06-.01h.02l.02-.02h.04l.01-.01h.03l.02-.01h.02v-.01h.01l.04-.01.03-.01h.02l.03-.01.01-.01h.03c.03-.02.05-.03.08-.03h.01l.02-.01.03-.01.02-.01.04-.01.08-.03.04-.02.04-.01h.01l.05-.02.06-.02.04-.02h.02v-.01l.04-.01.1-.04a13.07 13.07 0 0 0 3.56-2.19l.02-.01.03-.03.13-.1.02-.02.02-.02.02-.02h.01v-.02h.01l.03-.02.1-.1.04-.03.02-.01.01-.02.02-.01.19-.18.23-.22.05-.04.06-.06.44-.42v-.01l.1-.1.04-.04.08-.08.07-.06.03-.04.02-.01.02-.02.16-.16.06-.06.05-.06.03-.03.1-.1.02-.02.03-.03.02-.02.19-.2.04-.04.03-.03.02-.02c.9-.94 2-2.18 3.1-3.67l.05-.07.01-.02.03-.03v-.01l.03-.03c0-.02.02-.03.04-.05 0-.02.02-.03.03-.04V73l.21-.3.02-.02.02-.03.02-.02.12-.18.01-.01.03-.04.05-.07.01-.02.01-.01c0-.02.02-.03.03-.04v-.02l.04-.05.01-.02.02-.01a33.63 33.63 0 0 0 1.05-1.64l.04-.07.16-.27.01-.03.02-.02.1-.19.06-.1.07-.11.02-.04v-.01l.08-.15.06-.11.02-.02.05-.1v-.02c.05-.07.09-.15.13-.24l.01-.02.04-.08c.08-.14.15-.3.22-.45 2.08 2.78 6.47 5.78 7.28 6.33a13.69 13.69 0 0 0-1.92 2.58l-.02.04-.04.07v.01l-.04.08-.02.03v.01l-.02.02-.01.03a8.78 8.78 0 0 0-.2.4v.02l-.02.02-.03.07-.01.04h-.01l-.01.04-.04.08-.01.04-.03.06v.02l-.01.01-.03.08v.01l-.02.03a7.4 7.4 0 0 0-.03.1v.01h-.01l-.02.07-.01.03-.01.03v.01l-.01.02-.02.06-.02.04v.04l-.03.06v.02l-.01.02-.11.43-.01.06-.01.06a6 6 0 0 0-.04.22l-.01.05V80l-.02.05a5.26 5.26 0 0 0 0 1.15v.04l.02.05v.02a3.02 3.02 0 0 0 .04.2v.01l.02.07v.02l.02.06v.01l.01.02a2.4 2.4 0 0 0 .04.1l.01.04v.02l.02.02v.02l.01.01.02.04v.02l.07.11c0 .02.02.04.03.05v.01l.03.05.01.01.01.02.01.02a2.73 2.73 0 0 0 .06.08l.01.02.03.03a2.97 2.97 0 0 0 .05.08l.01.01.04.05.05.05.01.02.02.01.05.06.05.05.01.02.06.05v.01c.02 0 .02.01.03.02l.04.04.02.02.05.04.02.02.05.04.02.01.14.11h.01l.03.03c.02 0 .03.02.04.03l.16.1h.02v.01l.26.14h.02l.08.04a3.33 3.33 0 0 0 .3.12h.02l.09.03h.02l.21.06a3.38 3.38 0 0 0 .35.05h.03l.1.01h.03a4.05 4.05 0 0 0 .1.01h.02l.43-.01h.1l.04-.01h.05l.01-.01h.07l.01-.01H87.04l.01-.01h.03c.43-.08.76-.2.92-.26l.03-.01.07-.02.02-.01h.01l.01-.01a9.46 9.46 0 0 0 2.5-1.42c.4-.3.8-.66 1.2-1.06l.07-.06v-.01l.03-.02.02-.03.08-.07.06-.07.03-.03.04-.05.07-.06v-.01l-.07.07h.01l.13-.14.11-.12.07-.07.05-.05.25-.27.1-.11.64-.72.02.09v.05l.01.02v.01l.03.16v.03l.01.01v.02l.04.18v.01l.01.02.05.2.05.17.01.03v.01l.04.12.01.03v.01l.02.03.02.07v.02l.02.04.02.03.01.04.04.1v.01l.01.02.04.08.02.04.02.04.03.07.02.03.02.04.04.07v.03l.02.01.04.07.05.1.03.04.02.03.05.08.04.05.01.02.04.05.06.08.05.06.03.04.02.02.03.03.01.02.01.01.05.05v.01h.01l.01.01.01.01.02.03.02.01.01.01v.01l.02.01.03.04h.01v.01h.01l.04.04.01.01.01.01.05.04V82l.04.03.03.02.03.03.1.07v.01l.02.02.04.02.03.02.01.01.03.02.02.01.01.01.02.02a3.8 3.8 0 0 0 .2.12l.08.04.03.02.02.01.03.02.04.02.1.04.01.01.09.04.07.03.02.01.03.01.08.04h.03l.01.01h.01l.04.02.04.02c.02 0 .04 0 .06.02h.03l.02.01.1.03.04.02a5.38 5.38 0 0 0 .15.04h.02l.04.01h.02l.14.04h.02l.03.01.16.03h.02a6.7 6.7 0 0 0 .22.05l.2.02h.03l.2.03h.05l.16.02h.13-.04a9.53 9.53 0 0 0 .22.01h.1l.42.01h.31c.06 0 .1-.02.15-.04l.13-.04.1-.04.05-.02a4.99 4.99 0 0 0 1.59-.96v-.01h.01l.01-.01.01-.01v-.01h.01l.04-.03.03-.04h.01l.19-.18v-.01l.04-.03v-.01l.03-.02v-.01l.02-.01.02-.03.01-.01.01-.01.03-.04a11.32 11.32 0 0 0 .3-.32l.04-.05.04-.05.05-.05.04-.05a10.27 10.27 0 0 0 .08-.1l.04-.05.04-.05.13-.16.04-.06.04-.05.04-.06.04-.06.05-.05.12-.19.03-.03v-.01l.02-.02.04-.06.05-.07.04-.07.01-.01.01-.02.02-.02v-.01l.47-.71.5-.8.08-.11.8-1.32.01-.01a74.08 74.08 0 0 0 .45-.78l.01-.01.08-.14.1-.17.11-.2.26-.46.08-.14V75l.01-.01.05-.08.06-.12a62.76 62.76 0 0 0 .44-.82l.03-.05.05-.1.14-.27.3-.58.06-.11v-.01l.38-.75.17-.36.16-.31v-.02l.18-.38.16-.35.08-.16.02-.05.06-.13.04-.07v.04l.37 1.83.08.39.04.15.14.65.02.08.12.51.08.33.07.31.02.08.04.16.15.61.04.13.14.51v.02l.03.12.17.6.02.08v.02l.1.3.05.16v.03l.07.2c0 .04.02.08.03.11l.01.03.12.37.03.1.12.36v.02l.02.02.13.37.02.08.02.03.1.27.02.05v.02l.14.35.13.32.04.1a15.89 15.89 0 0 0 .31.68l.13.25.03.06.14.27.03.04.01.03a9.04 9.04 0 0 0 .15.25l.14.23h.01l.1.16.04.04.07.1v.01l.03.04.1.13c.02 0 .02.02.03.03l.08.08.04.05.1.11.12.1c0 .02.02.02.03.03l.1.08v.01l.03.02.07.05.02.01.07.05.03.02.05.03.03.02a1.69 1.69 0 0 0 .14.06l.12.05.05.02.06.02.11.02h.03l.03.01h.01l.04.01h.08l.01.01h.06a1.9 1.9 0 0 0 .2 0h.04l.06-.01h.03c.21-.04.34-.1.4-.12h.02c.6-.23 1.08-.54 1.49-.94l.02-.02.03-.03.01-.02h.01l.01-.02.02-.02c.11-.11.22-.23.32-.36h.01l.02-.03.02-.02c.19-.23.37-.5.56-.81v-.02l.02-.02.04-.07.08-.15.02-.04.04-.07v-.01l.03.04a6.87 6.87 0 0 0 .12.24l.01.03.02.04.04.07.01.03.03.04.02.05v.01l.05.07.06.1.05.09.05.08.04.06.03.03.01.03a6.56 6.56 0 0 0 .2.28l.06.08.06.07.01.02.06.06.06.07v.01l.04.05.05.05.03.03a5.54 5.54 0 0 0 .28.3h.01a5.36 5.36 0 0 0 .09.08v.01l.08.06.02.02.07.06.07.06.04.03a5.13 5.13 0 0 0 .25.19h.01l.07.05.03.02.08.05.17.1.04.02.03.02.09.05.06.03.1.05.04.01.06.03.04.02.05.02.05.02.07.02.03.02.05.01.06.03h.04l.06.03.1.03h.05l.05.02.06.02h.05l.04.02h.06l.07.02h.03l.07.02h.04l.07.01a4.07 4.07 0 0 0 .3.03h.03a4.65 4.65 0 0 0 .42 0h.14l.04-.01h.07l.03-.01h.04l.04-.01h.05l.01-.01H122.45l.04-.02h.07l.05-.02h.05l.03-.01c.38-.08.63-.18.76-.22l.03-.01.02-.01c1-.37 1.84-.9 2.53-1.6l.02-.02.03-.04c.02 0 .03-.02.04-.03l.02-.03.02-.01.02-.02c.41-.44.84-.95 1.28-1.7l.03-.05.08-.14.01-.01.01-.02v-.01h.01v-.01l.01-.02.02-.04.01-.01v-.01l.01-.01v-.01l.02-.02c0-.02.02-.04.03-.05v-.01l.02-.03v-.01l.01-.02.02-.03c0-.02.02-.04.03-.05v-.02l.01-.02.01-.01.06-.11v-.02l.15-.3-.01.09-.04.26v.02l-.07.44-.03.22-.04.24-.03.16v.04a51.9 51.9 0 0 1-.6 3.02l-.02.06v.03l-.02.07a38.75 38.75 0 0 1-.26.99l-.1.35-.09.34a28.7 28.7 0 0 1-.52 1.64l-.12.3-.07.2-.04.11-.24.6-.07.18-.05.12-.1.25h-.01v.02h-.01a18.77 18.77 0 0 1-1.76 3.17V92l-.12.15-.17.21-.18.21-.17.21-.06.07-.12.13-.28.3-.29.3-.3.3-.06.05c-.92.84-2 1.7-3.28 2.5l-.19.11a26.3 26.3 0 0 1-.24.15l-.24.14-.25.13-.26.14-.15.08-.1.06-.27.13-.13.07-.14.07-.27.13-.27.13-.11.05-.17.08-.24.1c-.92.41-1.91.8-2.97 1.14l-.21.06h-.01l-.03.01a34.88 34.88 0 0 1-5.13 1.2c-.4.07-.8.13-1.22.18h-.05l-.1.02-.75.08-.4-.31c-.05-.05-.1-.1-.17-.14l-.42-.32-.47-.34-.12-.1-.37-.25-.1-.07a27.7 27.7 0 0 0-.5-.32l-.04-.03c-.14-.1-.29-.19-.43-.27l-.08-.06a26.67 26.67 0 0 0-1.48-.84l-.1-.05-.46-.24-.14-.06-.35-.17-.15-.07a25 25 0 0 0-.46-.2l-.1-.05-.4-.17-.1-.05-.48-.19c-.04 0-.08-.02-.12-.04l-.37-.14-.15-.05-.36-.12-.14-.05a23.43 23.43 0 0 0-1-.3l-.09-.02-.49-.13-.08-.02-.4-.1-.15-.03-.48-.1h-.05a22.23 22.23 0 0 0-.56-.1l-.11-.03-.32-.05h-.05l-.12-.02a21.8 21.8 0 0 0-3.17-.22h-.12a21 21 0 0 0-.2 0l-.11.01H89.04l-.35.02h-.14c0 .01 0 0 0 0l-.02.01h-.04l-.2.02h-.03l-.15.01H88l-.02.01h-.03l-.2.02h-.03l-.08.01-.43.05h-.05c-.07.02-.13.03-.2.03h-.03c-1.75.25-3.16.68-4.18 1.05l-.18.07-.25.1h-.04v.01l-.04.01-.3.12-.03.02-.85.37a36.64 36.64 0 0 1-3.12-1.57l.64-.26c.9-.4 1.89-.99 2.74-1.84h.01l.01-.02.08-.08c.45-.46.84-.94 1.19-1.54v-.02l.02-.02.01-.02.01-.01.01-.03.01-.01.02-.04v-.01h.01v-.02h.01v-.02h.01v-.01l.02-.03v-.02h.01l.01-.02v-.01h.01v-.02l.03-.05.01-.03h.01l.01-.04.02-.04.01-.01.01-.03.03-.07v-.01l.01-.01.01-.02v-.02l.02-.03.03-.08v-.01l.01-.01v-.02l.01-.01c.25-.67.5-1.72.2-2.93v-.01l-.01-.02v-.02l-.02-.03-.01-.06-.01-.03-.03-.09-.02-.07-.02-.06a4.6 4.6 0 0 0-.03-.1l-.01-.02v-.01l-.06-.14v-.02a4.5 4.5 0 0 0-.06-.12v-.01a4.5 4.5 0 0 0-.14-.27l-.02-.03a4.36 4.36 0 0 0-.23-.37l-.02-.03a4.12 4.12 0 0 0-.39-.47l-.01-.03a4.08 4.08 0 0 0-.29-.27l-.06-.06a6.34 6.34 0 0 0-.14-.11v-.01a6.37 6.37 0 0 0-.2-.16h-.01a6.44 6.44 0 0 0-.28-.2l-.03-.02a6.57 6.57 0 0 0-.07-.05l-.04-.03a6.51 6.51 0 0 0-.11-.06l-.04-.03-.02-.01a6.57 6.57 0 0 0-.17-.1 6.6 6.6 0 0 0-.2-.1l-.1-.05-.04-.02a6.76 6.76 0 0 0-.34-.15l-.02-.02a6.87 6.87 0 0 0-.41-.16h-.05a6.88 6.88 0 0 0-.24-.08l-.03-.01-.1-.03a7.03 7.03 0 0 0-.22-.06h-.02l-.08-.02h-.04l-.02-.01-.1-.02a7.04 7.04 0 0 0-.25-.05h-.01l-.11-.02h-.04a7.55 7.55 0 0 0-1.07-.08c-.48 0-1.04.06-1.63.2l-.08.03-.09.02h-.01l-.02.01-.07.02h-.01l-.03.02h-.03l-.03.01h-.02l-.03.02h-.02l-.01.01h-.02l-.06.03-.04.01h-.02l-.01.01-.03.01-.03.01h-.02v.01h-.01l-.09.04-.1.04c-.73.3-1.3.67-1.66.94l-.03.03h-.01l-.07.06-.03.02-.05.04-.02.01c-.47.4-1.09 1.01-1.55 1.83l-.04.07v.01l-.02.03-.03.06-.02.03v.01a4.48 4.48 0 0 0-.4 2.64V90.12c.32 1.69 1.36 3.25 3.2 4.74h-.11a23.6 23.6 0 0 1-1.16-.03 37.61 37.61 0 0 1-12.56-3.12 57.36 57.36 0 0 0-5.16-3.02h-.07l-.04.01h-.01c-.02.02-.04.02-.07.03a2.67 2.67 0 0 0-1.27 1.11c-.03.07-.03.08-.02.15a14.43 14.43 0 0 0 .45.35l.06.05.16.11.1.07.2.15.1.06.16.12.07.04.22.15.02.01.27.17.26.16.1.06.2.12c.02 0 .04.02.05.03a24.12 24.12 0 0 0 .56.31l.47.25.05.03c.15.08.3.16.47.23l.05.03.43.2.07.04.46.21.11.05h.01a73.9 73.9 0 0 1 3.73 2.63 90.7 90.7 0 0 1 10 8.67H72.32a.27.27 0 0 0 .06-.02l.04-.01a1.83 1.83 0 0 1 .2-.07v-.01l.1-.04.04-.02.08-.04.04-.03a2.32 2.32 0 0 0 .12-.07l.04-.02.06-.05c.02 0 .04-.02.05-.03l.02-.02c.02 0 .03-.02.04-.03l.04-.03.08-.08.16-.17.03-.04.08-.1.02-.02.17-.23.16-.21.35-.43.2-.24.24-.26a20 20 0 0 1 3.88-3.28l.2-.1.13-.08.3-.16.1-.06.33-.16.14.06.13.06a39.05 39.05 0 0 0 1.32.54l.17.06.31.12.15.05.46.17h.02l.42.15.18.07.3.1.16.05.92.3.19.05.35.1.14.04.3.1.23.05.46.13.1.03a51.78 51.78 0 0 0 .55.14l.28.07a53.27 53.27 0 0 0 2.43.55h.07c.23.06.47.1.7.14l.2.04a54.6 54.6 0 0 0 1.79.3l.17.02.33.04c.07.01.14.03.22.03l.37.05.12.02h.08c.14.03.29.04.43.06l.24.03.24.02a53.99 53.99 0 0 0 1.83.16h.06l.12.01.19.02a49.83 49.83 0 0 0 .46.02l.24.02.34.01h.11l.3.02h.31l.2.01h.37l.19.01h1.19l.42-.01.39-.01h.08l.2-.01.17-.01.5-.02h.07l.15-.02.38-.02h.07l.19-.02h.06l.11-.01h.04l.14-.02h.06l.37-.04h.06a.3.3 0 0 0 .09-.01h.03l.05-.01h.06l.1-.02.26-.02h.02l.02-.01h.07l.2-.03.16-.02.16-.02.13-.02h.06l.03-.01h.03l.16-.03.21-.03.38-.06h.03l.03-.01.76-.13h.03l.08-.02h.02l.24-.05h.02l.06-.02.1-.02a36.22 36.22 0 0 0 4.53-1.19l.7-.25.11-.04.24-.09h.03l.05-.02.1-.04.13-.05a31 31 0 0 0 2.23-.94l.07-.03.04-.02.16-.08h.01l.05-.03.06-.03.1-.04.02-.02.07-.03.07-.03.08-.04.12-.06.03-.02.02-.01.02-.01.09-.04.02-.02c1.7-.86 4.2-2.35 6.48-4.62l.04-.04.07-.07.17-.18.09-.09.03-.03v-.01l.02-.01.33-.36.03-.02v-.01l.05-.05a16.8 16.8 0 0 0 .59-.7l.07-.08.07-.1c.36-.45.73-.96 1.1-1.55l.07-.12.18-.3.08-.12.04-.08.02-.04v-.01l.02-.02c0-.02.02-.03.03-.05l.1-.19.01-.02a20.5 20.5 0 0 0 1.58-3.56l.01-.04v-.01l.1-.3.02-.06.18-.52v-.03l.03-.09.02-.05.01-.04.01-.04.03-.08v-.02l.01-.03v-.01l.02-.05.02-.07.02-.07.01-.04.02-.05v-.04l.03-.06.04-.14.02-.1v-.01h.01v-.02l.05-.15v-.04l.04-.13v-.01l.01-.02.02-.06c0-.05.02-.09.03-.13v-.02l.01-.03.01-.04.01-.04v-.02l.01-.02v-.02l.02-.04.01-.05v-.02l.04-.12.03-.12.01-.06.02-.08v-.04l.01-.01.03-.11v-.02l.01-.04.02-.05.04-.18v-.03l.01-.04v-.02l.02-.03v-.03l.02-.06v-.06l.01-.02v-.03l.01-.02.03-.1v-.02l.02-.07.09-.44.02-.1v-.04l.01-.01.01-.07v-.02l.01-.02.01-.04v-.03l.01-.03v-.03l.05-.21v-.01l.02-.12v-.02l.01-.03.07-.36c.2-1.12.38-2.3.53-3.52v-.04l.08-.71v-.08a72.24 72.24 0 0 0 .1-.82v-.02l.01-.15.06-.72.02-.19.06-.77V73l.05-.68.01-.12v-.08l.01-.12.04-.69v-.08l.01-.02v-.13l.04-.7v-.19h-.07c-.06 0-.1 0-.18.03a2.69 2.69 0 0 0-.68.4l-.02.02-.06.06-.02.01-.07.07-.01.02-.08.08a2.3 2.3 0 0 0-.25.33h-.01a2.01 2.01 0 0 0-.1.17v.02l-.05.26-.01.07-.03.14-.01.06v.04l-.01.02-.01.05-.03.17-.04.2-.01.07c-.15.8-.3 1.62-.47 2.42l-.2.96-.22.93-.06.23-.06.23-.06.23-.06.22-.13.44-.07.22-.07.21c-.1.29-.19.56-.3.83l-.05.15v.01h-.01l-.02.07-.05.12-.09.19-.08.19-.1.18-.08.19-.1.18-.04.08-.02.03-.09.15v.03l-.04.05-.1.17a8 8 0 0 1-.1.14l-.01.03a7.48 7.48 0 0 1-.2.3c-.21.2-.43.38-.67.54l-.06.03-.42.16-.03.01-.03.01a4.6 4.6 0 0 1-.56.13 4.5 4.5 0 0 1-.26.03l-.06.01h-.05a4.35 4.35 0 0 1-.38.02H123c-2.26-.14-3.87-2.1-4.48-3.97a7.78 7.78 0 0 1-.28-1.65v-.08a15.27 15.27 0 0 1-.04-.48 16.48 16.48 0 0 1 0-.5v-.69a17.42 17.42 0 0 1 .03-.72l.01-.18.02-.19v-.06l.04-.28v-.02l.02-.19a14.68 14.68 0 0 1 .15-.9v-.04l.01-.05.05-.23.01-.02v-.02a11.07 11.07 0 0 1 .19-.69 9.01 9.01 0 0 1 .16-.5 7.6 7.6 0 0 1 .12-.3c.13-.29.28-.56.44-.81l.01-.01.1-.1.04-.03.02-.02.16-.15a2.48 2.48 0 0 0 .47-.64l-.01-.07c-.1-.02-.14-.02-.25.03a2.7 2.7 0 0 0-.68.4l-.03.03a6.7 6.7 0 0 0-1.45 1.74l-.02.04-.02.04-.03.04a8.87 8.87 0 0 0-.06.1v.02l-.02.03-.03.06-.02.05c-.14.29-.3.66-.45 1.15v.02l-.04.12v.02l-.02.04-.01.05a9.9 9.9 0 0 0-.03.12l-.02.06v.01a11 11 0 0 0-.03.13l-.02.05-.02.08v.04l-.03.1v.05l-.01.01-.01.06v.01l-.01.03v.03l-.01.03v.01l-.01.04-.01.05v.03l-.02.04v.06l-.01.03v.02l-.02.1v.03l-.01.03-.01.07-.02.12-.01.05v.04l-.02.1v.07h-.01v.07l-.02.14v.04l-.01.04-.01.1v.04l-.01.05v.04l-.01.08-.01.06-.01.18v.03l-.01.06V75.72l-.01.03v.1l-.01.09v.05l-.01.18v.26l-.01.03v.07a15.72 15.72 0 0 0 0 .06V77.41a7.3 7.3 0 0 0 .01.17v.14l.01.06v.04l.01.1V78.05l.01.07.01.13v.02l.02.1V78.47l.01.08v.02l.01.07a1.98 1.98 0 0 0-.06.13l-.03.13-.05.23-.03.14c-.05.18-.1.4-.18.64 0 .04-.02.07-.03.1l-.03.11-.02.07-.02.04-.03.11-.08.23-.04.12-.1.23-.03.09a7.06 7.06 0 0 1-.54 1.05l-.02.01h-.02l-.04.01c-.23.01-.48-.04-.74-.16-1.1-.51-2.07-2.46-2.93-5.07l-.03-.1-.1-.33-.08-.24-.03-.1-.03-.12-.04-.12v-.02l-.02-.04v-.03l-.08-.25-.13-.46a56.89 56.89 0 0 1-.26-.96v-.01l-.03-.12-.03-.13a65.55 65.55 0 0 1-.3-1.25 76.84 76.84 0 0 1-.57-2.6l-.03-.16a103.79 103.79 0 0 1-.37-1.92l-.09-.53.01-.04.02-.04.05-.13.12-.3.06-.15.2-.55v-.01h.01v-.03l.09-.22.03-.08.12-.34.02-.05.05-.15.14-.4.02-.04.1-.29.09-.27.03-.09.05-.15.03-.11.07-.2.02-.06.05-.18v-.01l.07-.2.01-.03v-.02l.02-.04.02-.06.08-.26.01-.05.06-.17c0-.02 0-.04.02-.06l.07-.27.1-.3.01-.06v-.02l.01-.02.01-.04.03-.12.02-.05.02-.08.06-.2.02-.07.01-.06.08-.28v-.03l.04-.11v-.05l.02-.03.02-.1v-.01l.02-.04v-.06l.04-.1.04-.18.03-.13v-.02l.03-.09.03-.1v-.05l.03-.09.02-.1.02-.1.02-.07v-.01l.02-.08.01-.03.01-.05v-.01l.06-.26v-.02l.07-.27.01-.07.07-.34.01-.03.03-.14v-.05l.02-.06.03-.14c0-.05.02-.1.03-.14l.02-.12v-.02l.02-.07v-.02l.02-.1.01-.07.04-.24v-.02l.02-.04v-.01l.01-.08V57l.01-.01v-.05l.07-.4v-.02l.01-.03v-.04l.02-.05v-.04l.02-.1.4.02h.17l.08.01h.09l.3.02H113.76l.05.01H113.93l.64.04h.14l.1.01h.19l.03.01h.11l.99.05h.05l1.44.07h.06l1.22.06.45.02h.07l.42.03h.02l1.07.05h.01l1.07.05h.02l1.07.06h.01l1.07.06h.01l1.08.06.2.01.76.05h.13l.04.01h.13a8.45 8.45 0 0 0 .18.01h.1a8.15 8.15 0 0 0 1.06-.06h.06l.06-.01.05-.01h.06l.05-.02h.06l.39-.09c.4-.1.67-.2.82-.25l.03-.01.1-.04h.01l.03-.01a9.41 9.41 0 0 0 2.31-1.3l.02-.02.03-.02.03-.03h.01v-.01c.02 0 .02-.01.03-.02h.01v-.01l.1-.09.02-.01.45-.42.04-.04.02-.02.04-.04v-.01h.01a8.6 8.6 0 0 0 1.25-1.63v-.02h.01v-.01l.05-.09.05-.08.03-.05c.22-.41.56-1.14.73-2.14v-.04l.02-.1V50.21h.01l.01-.08v-.07l.02-.12v-.08h-.07c-.06-.01-.1 0-.19.03a2.69 2.69 0 0 0-.65.4 2.65 2.65 0 0 0-.64.78l-.02.16-.05.32-.02.15-.1.46-.14.44-.05.13c-.2.54-.47 1.04-.8 1.5v.01l-.12.1a6.15 6.15 0 0 1-.22.2v.01l-.1.1-.1.06c-.13.11-.28.21-.43.31-.43.22-.9.4-1.4.51h-.01a7 7 0 0 1-1.42.15l-.35-.01-.19-.01h-.13l-.02-.01h-.09l-.13-.01h-.06l-.1-.01h-.02l-.26-.02h-.04l-.1-.01h-.16l-.3-.03h-.02l-.2-.01h-.15l-.03-.01h-.04l-.12-.01h-.14l-.06-.01-.18-.01h-.04l-.12-.01h-.11l-.12-.01h-.04l-.3-.02h-.04l-.13-.01h-.16l-.24-.02-.28-.02h-.05l-.35-.02h-.23l-.07-.01h-.14l-.1-.01-.32-.02H122.44l-.04-.01h-.16l-.03-.01-.9-.04h-.1l-.07-.01-.34-.02-.34-.01-.88-.04h-.08l-.35-.02-1.51-.07h-.07l-1.44-.08h-.03l-.36-.01-.35-.02-.55-.03h-.17l-.04-.01h-.11l-.5-.03h-.14l-.43-.03-.2-.01h-.11l-.06-.01-.3-.02.01-.06v-.03l.03-.22v-.09l.03-.2V54.2l.04-.36v-.08l.02-.32v-.12l.01-.02V53.13l.02-.19v-.13l.01-.35v-1.01l-.01-.1-.01-.18v-.14l-.01-.11-.01-.16-.01-.07v-.1l-.01-.02v-.01l-.01-.11a10.52 10.52 0 0 0-.2-1.3l-.02-.06v-.04l-.01-.03-.01-.04-.02-.07v-.03l-.04-.1a6.4 6.4 0 0 0-.03-.11v-.02a5.4 5.4 0 0 0-.09-.24v-.01a4.13 4.13 0 0 0-.15-.35v-.01a2.7 2.7 0 0 0-.27-.47l-.03-.04-.03-.04-.02-.02v-.01a2.05 2.05 0 0 0-.04-.04v-.01h-.01l-.02-.03a1.73 1.73 0 0 0-.1-.11h-.02v-.01a1.58 1.58 0 0 0-.06-.05l-.02-.01-.05-.04-.03-.02a1.38 1.38 0 0 0-.06-.04l-.03-.02-.04-.02-.02-.01-.04-.02-.02-.01a1.24 1.24 0 0 0-.05-.02h-.01l-.04-.02-.03-.01a1.33 1.33 0 0 0-.04-.01l-.04-.01h-.01l-.03-.01h-.02l-.02-.01h-.03a1.68 1.68 0 0 0-.38-.02h-.02a.56.56 0 0 0-.13.04H110.5l-.03.01h-.02l-.03.01-.14.04-.03.01h-.02c-.37.15-.7.37-.92.53l-.02.02-.02.01-.03.03h-.01v.01a5.34 5.34 0 0 0-1.2 1.45l-.01.01-.03.05-.03.06-.01.02v.01l-.02.03c-.1.2-.22.45-.34.8v.03c-.02.02-.02.05-.03.07l-.01.02-.06.17-.02.08-.01.05-.01.02v.03l-.02.04-.02.06v.03l-.02.04v.03l-.03.08v.02l-.01.05-.01.02v.03l-.01.02-.02.06-.03.14v.03l-.01.02v.01l-.04.13v.05l-.01.03-.01.04-.03.13v.05h-.01v.01l-.04.2v.04l-.03.15-.01.05v.02l-.02.08a20.03 20.03 0 0 0-.05.28v.01l-.01.1v.03l-.02.07-.03.18v.03a29.7 29.7 0 0 0-.17 1.55l-1.76-.14H105c-.11-.02-.22-.02-.34-.03l-.47-.04-.75-.06-.14-.01h-.08l-.1-.01-.35-.03-.2-.02H102.43l-.2-.02a460.33 460.33 0 0 0-1.9-.14h-.05l-.04-.01H100.16l-.1-.01-.34-.02-.4-.03h-.09l-.1-.02H98.93l-.06-.01-.15-.01h-.11l-.02-.01h-.12v-.01h-.16l-.3-.03-.31-.02h-.07l-.12-.01h-.1l-.18-.02h-.18l-.04-.01-.27-.02h-.1l-.12-.01h-.06l-.31-.02h-.11l-.09-.01-.26-.02h-.25l-.12-.01-.26-.02-.32-.01h-.1l-.02-.01H94.45l-.02-.01h-.13l-.1-.01-.42-.02H93.57l-.13-.01h-.12l-.05-.01h-.01l-.28-.01h-.16l-.03-.01h-.21l-.1-.01-.57-.02h-.32l-.01.01h-.05l-.12.02h-.02c-.35.06-.64.15-.85.23-.03 0-.05.02-.07.03h-.04c-.01.02-.03.02-.05.03l-.02.01-.12.05-.04.02a6.4 6.4 0 0 0-.8.43h-.01c-.21.13-.4.26-.56.39l-.04.02-.02.02-.03.03-.02.01v.01h-.01a6.93 6.93 0 0 0-.84.8c0 .01 0 .02-.02.03l-.01.01-.33.41-.01.02-.01.01-.16.22v.01l-.01.01-.05.08-.02.03-.01.01a6.2 6.2 0 0 0-.19.31l-.01.03-.01.02-.03.05v.01l-.02.02-.18.42-.07.18-.01.03-.05.17c-.07.25-.1.48-.12.67-.02.39.03.65.04.75l.04.21a3.29 3.29 0 0 0 .28.81v.02l.08.17.04.07.02.04.04.06.04.07v.01l.1.16.02.02a3.18 3.18 0 0 0 .18.22l.02.03.02.02.05.05.03.03.03.03.02.02v.01h.01l.1.1.03.02.05.05.03.02.04.03.02.02.06.05.02.02a3.45 3.45 0 0 0 .2.13l.03.02.02.01.03.02h.01l.02.02.04.02.01.01.04.02a3.63 3.63 0 0 0 .11.06l.03.01.07.04.07.03h.01l.05.03.15.06c.02 0 .03 0 .05.02h.04a3.88 3.88 0 0 0 .12.05h.02l.06.02.03.01.04.01.03.01h.02l.04.02a4.03 4.03 0 0 0 .14.03 4.06 4.06 0 0 0 .17.03h.03l.05.01h.04l.07.02a4.13 4.13 0 0 0 .28.02h.19a4.58 4.58 0 0 0 .41-.01h.08l.03-.01h.04l.04-.01h.07l.03-.01h.04l.03-.01.46-.1.05-.02.04-.02.04-.01a4.05 4.05 0 0 0 .08-.02l.12-.05.04-.01.02-.01h.02v-.01h.02l.02-.01.02-.01.03-.01h.02v-.01h.03l.01-.01h.01l.07-.03.02-.01h.01l.01-.01h.02l.01-.01h.01l.02-.01.45-.19.15-.07.26-.12.06-.03h.01l.02-.02h.02l.02-.02.03-.01.03-.02.03-.01.01-.01h.02v-.01l.05-.03h.01l.01-.01.05-.03.05-.03.36-.2.05-.04.13-.07.04-.03.07-.04.05-.04h.02v-.01l.03-.02.03-.01v-.01l.11-.07.04-.02.08-.05.18-.12.18-.11.02-.01.07-.05.1-.05.08-.06.1-.05.03-.02.06-.04.09-.05a9.48 9.48 0 0 1 .09-.05h.01l.03-.02h.02l.05-.03.02-.01h.02l.03-.02.05-.02.03-.01h.02l.03-.02.05-.02.04-.01.04-.01h.02l.02-.02h.04l.03-.02h.04l.01-.01.05-.01h.02l.01-.01.04-.01.06-.01h.05l.05-.02h.05l.05-.01h.05l.06-.01h.1a3.37 3.37 0 0 1 .1-.01h.08l.05.02H97l.02.01h.02l.01.01.03.01h.02l.04.02a2.27 2.27 0 0 1 .15.06c.02 0 .03 0 .04.02h.01l.04.02h.02l.05.03.02.01.03.01.01.01.05.03.03.02.05.03a2.52 2.52 0 0 1 .12.08l.02.01.01.01.02.01.06.05.01.01.04.03.04.03.03.03.01.01.01.01a2.85 2.85 0 0 1 .06.06h.02v.01l.02.02.02.02.01.02.03.02v.01l.04.03v.01l.03.04h.01l.03.04.03.04a3.2 3.2 0 0 1 .15.19v.01h.01l.05.09.02.02.01.02.03.04v.01l.04.05v.01l.08.15.02.03v.02h.01l.02.05.03.05c0 .03.02.05.03.07v.02l.04.08v.02a3.76 3.76 0 0 1 .03.07l.02.05.03.08.02.08.01.02a3.77 3.77 0 0 1 .03.1l.05.2a3.66 3.66 0 0 1 .03.18v.06l.02.04v.05a3.55 3.55 0 0 1 .01.08v.12l.01.09V63.09l-.02.04a2.95 2.95 0 0 1 0 .08l-.01.01v.04l-.02.07-.02.05v.05l-.02.04-.01.04v.01a2.6 2.6 0 0 1-.05.13v.02l-.02.04-.01.02v.02h-.01l-.01.04c-.2 0-.39-.04-.56-.11l-.04-.02c-.26-.1-.5-.29-.68-.5 0-.02-.02-.03-.03-.04a2 2 0 0 1-.45-1.52l.02-.04v-.04l.01-.01.01-.02.02-.05v-.02h.02l.03-.03.01-.01.04-.03.07-.06.01-.01.02-.02.03-.03.02-.01.04-.04c0-.02.02-.03.03-.04l.04-.04a3.77 3.77 0 0 0 .09-.1l.01-.02.04-.05.01-.01.04-.05v-.02l.04-.04.01-.02.01-.01.02-.04v-.01l.02-.02v-.01l.02-.02c.04-.07.06-.11.04-.18-.1-.02-.14-.01-.26.03a2.55 2.55 0 0 0-.42.22h-.01l-.02.02h-.01l-.02.02h-.01v.01h-.01l-.02.01-.01.01-.04.03-.02.01-.02.02-.03.01-.02.02-.02.02-.03.01-.02.02-.01.01-.02.01v.01h-.02l-.02.03-.02.01-.02.01c0 .02-.02.02-.03.03l-.03.03-.03.02-.04.03-.03.03-.1.1-.04.03a4.5 4.5 0 0 0-.03.03l-.04.04-.03.04-.04.03-.03.04-.04.04-.03.04-.03.04-.04.04-.03.04-.04.04c0 .02-.02.03-.03.05l-.03.04c-.1.12-.18.24-.25.38l-.01.02h-.01v.02l-.01.01-.02.03v.02h-.01l-.02.03v.03l-.02.03-.01.02-.07.19v.02l-.01.02-.01.03-.02.07v.05l-.01.02v.04l-.01.02V62.96c-.02.1-.01.18 0 .25v.1l.02.04v.08h.01v.05l.01.01a1.98 1.98 0 0 0 .01.05v.04l.01.02v.01l.01.01v.03l.01.02.02.04v.03l.01.02.02.04v.01l.02.06v.01l.02.03.01.02.01.03.02.03V64h.01l.02.04v.01l.01.01.01.03.01.01v.01l.01.01.02.03v.01h.01l.02.04.02.03.02.03a2.13 2.13 0 0 0 .02.03l.02.03.01.01.01.02.02.02.01.02.05.06h.01v.01l.03.02v.01l.01.01.03.03.01.01.01.01.03.03.01.01.02.02.02.02.03.02.01.01.02.02.05.04.02.01v.01l.04.02.02.02h.01l.02.02h.02v.01l.03.02h.01v.01l.04.02.02.01a1.67 1.67 0 0 0 .08.04l.03.02.03.01h.02l.02.02h.03l.01.01h.02V65h.02l.02.01h.02l.01.01h.02v.01h.04v.01h.04v.01h.04l.02.01h.02l.04.01h.06l.02.01H97.34a1.93 1.93 0 0 0 .11 0h.11a1.71 1.71 0 0 0 .13-.02c.2-.03.33-.1.4-.12h.02c.22-.09.43-.18.62-.29h.02l.14-.09h.01l.01-.01.01-.01h.01l.02-.02.03-.01.01-.01.03-.02a2.04 2.04 0 0 0 .08-.06h.01l.03-.03.01-.01h.01l.01-.02h.01l.03-.03.03-.02.02-.02.03-.02.02-.02.02-.02.03-.02.02-.03h.01l.04-.04.01-.01.03-.04.02-.01v-.01l.03-.02.01-.02.03-.02.05-.06.03-.02.02-.03.03-.03.03-.03.02-.03.03-.03.02-.03.03-.03.02-.03.02-.03.03-.03.02-.03.03-.03.02-.03.02-.03.02-.03.03-.03.02-.03.02-.03a4.3 4.3 0 0 0 .09-.13l.02-.03.02-.03.02-.04.02-.03.01-.02v-.01h.01l.02-.04.02-.04.02-.04a2.9 2.9 0 0 0 .27-.75v-.04a3.34 3.34 0 0 0 .04-.17v-.05l.02-.14v-.09c.02-.28 0-.6-.06-.94v-.01l-.02-.04v-.02l-.01-.05-.02-.07v-.03l-.01-.01v-.02l-.01-.02v-.02l-.02-.03v-.03a3.65 3.65 0 0 0-.06-.17v-.01a3.7 3.7 0 0 0-.12-.29l-.01-.02-.02-.03-.02-.04-.02-.05-.08-.14-.02-.03a3.3 3.3 0 0 0-.19-.29v-.01l-.01-.01-.02-.02a3.2 3.2 0 0 0-.09-.12l-.02-.02-.01-.01-.02-.03-.01-.01-.03-.03a2.93 2.93 0 0 0-.06-.06l-.01-.02-.03-.03-.04-.03a2.82 2.82 0 0 0-.07-.07l-.04-.03a2.74 2.74 0 0 0-.07-.06l-.04-.03-.04-.03-.04-.03-.04-.03-.04-.03-.04-.02v-.01l-.04-.02h-.01l-.03-.02a2.43 2.43 0 0 0-.08-.05H99l-.02-.02-.02-.01a2.35 2.35 0 0 0-.07-.03l-.02-.01-.02-.01a2.32 2.32 0 0 0-.08-.03h-.01l-.03-.02a2.27 2.27 0 0 0-.1-.03l-.05-.02-.04-.01h-.01l-.04-.01h-.02a2.25 2.25 0 0 0-.12-.03H98.04l-.03.01H98a3.93 3.93 0 0 0-1.01.23l-.04.02-.1.04h-.03v.01h-.03l-.01.01h-.01l-.04.02-.02.01-.03.01-.02.01c-.5.2-.96.47-1.38.72l-.05.04h-.02l-.02.02h-.02l-.02.02-.1.06-.04.03-.03.02h-.01a36 36 0 0 0-.06.05h-.02l-.01.01-.05.03-.12.08-.06.04-.12.07-.11.08-.04.02-.08.05-.12.08-.12.07-.06.04h-.02l-.03.02-.04.02-.02.01-.06.04-.06.03-.06.03-.06.04a6.6 6.6 0 0 1-.1.05h-.02a5.32 5.32 0 0 1-.2.09h-.02l-.02.01-.05.02-.05.02h-.01l-.06.02c-.29.12-.59.2-.9.26h-.03a4.1 4.1 0 0 1-1.82-.25c-.88-.35-1.63-1.01-1.98-1.97l-.02-.06a3.2 3.2 0 0 1-.2-1.85c.08-.37.23-.72.42-1.04l.04-.07.07-.1.05-.06c.14-.15.3-.3.46-.42l.04-.02.05-.02.05-.02.27-.1.1-.03.07-.01.04-.01.11-.02.11-.02a3.56 3.56 0 0 1 .23-.03h.18c.17 0 .34 0 .51.02H91.3l.92.04h.06l.14.01.74.04h.05l.3.02H93.66l.9.05.49.03h.1l.44.03.36.02h.04l.7.05.24.01h.02l.25.02.67.05.94.06.94.07 1.31.1.57.04a831.38 831.38 0 0 1 3.77.3l1.28.1v.25a41 41 0 0 0-.03.75 40.46 40.46 0 0 0 0 .34l-.01.05v1.24l.01.28v.08l.01.09v.04l.02.24.01.15.03.35a73.72 73.72 0 0 0 .3 2.74l.08.62.11.81.05.34v.06l.02.13v.03-.03l.02.07v.06l.04.27.04.28.03.16v.05l.13.8v.04l.14.88.04.23.14.87.01.03v.03l.06.34-.03.09-.08.2-.21.5-.09.21-.18.44-.08.2a67 67 0 0 1-4.25 8.2l-.44.71-.5.78-.5.78-.05.07-.04.06-.06.08-.05.08-.1.12v.03h-.01a10.84 10.84 0 0 1-.13.17 9.3 9.3 0 0 1-.13.17l-.01.01-.04.04-.04.04-.04.04-.04.04-.04.04-.04.04-.04.03-.08.07-.03.02h-.02l-.01.01h-.02a1.57 1.57 0 0 1-.1.03 12.43 12.43 0 0 1-.72 0 9.6 9.6 0 0 1-.44-.03 8.1 8.1 0 0 1-.2-.02c-2.51-.31-3.8-1.73-4.08-4.46a29.3 29.3 0 0 0 2.4-3.49l.02-.02.04-.07.03-.06.03-.04.03-.06.05-.08.01-.03.11-.2.01-.02.01-.01v-.02h.01l.08-.14.01-.03.01-.03.01-.02.01-.01.07-.13.01-.03.04-.07.01-.03.01-.02.03-.05.06-.14.02-.03v-.01l.06-.12v-.01l.01-.01v-.02h.01l.02-.04v-.02l.01-.02.01-.02.02-.03.03-.08.04-.08v-.01l.01-.02v-.02l.04-.08.01-.02v-.02l.05-.1v-.01l.02-.03v-.03l.07-.16v-.02l.02-.02.01-.03.02-.06.03-.08.01-.03.01-.04.02-.03v-.03l.01-.01v-.01l.02-.05v-.02l.01-.02v-.01l.05-.13v-.03l.01-.01.02-.05.03-.1c0-.04.02-.07.03-.1v-.04l.01-.02.02-.05v-.01l.02-.07v-.04c.05-.15.08-.3.11-.46l.02-.09.09-.6v-.1a4.62 4.62 0 0 0-.1-1.3v-.04a2.97 2.97 0 0 0-.02-.06v-.01l-.01-.02-.02-.07v-.01a2.45 2.45 0 0 0-.04-.09v-.01a2.3 2.3 0 0 0-.04-.08v-.01a2.17 2.17 0 0 0-.04-.07v-.01a2.07 2.07 0 0 0-.04-.07v-.01a1.95 1.95 0 0 0-.04-.07l-.02-.02v-.02l-.03-.04-.01-.01-.01-.02a1.78 1.78 0 0 0-.04-.05l-.01-.01v-.01l-.03-.02V67h-.01l-.01-.02-.02-.02h-.01v-.01l-.02-.01-.01-.01-.01-.01-.02-.02-.02-.01-.02-.01a1.02 1.02 0 0 0-.09-.06h-.01v-.01l-.03-.01-.02-.01-.03-.01-.04-.02-.04-.02h-.01l-.05-.02h-.05v-.01h-.05l-.01-.01-.05-.01h-.04a1.66 1.66 0 0 0-.95.1c-.02 0-.03.01-.03.02h-.03l-.02.01-.11.05h-.01v.01h-.01l-.03.01-.02.01-.02.01c-.3.15-.56.32-.73.45l-.04.03-.02.02a4.1 4.1 0 0 0-.07.06l-.03.03-.03.02-.03.03-.03.02-.03.03-.03.03-.03.03-.03.02c-.3.3-.52.6-.65.8l-.02.03-.02.04-.02.03a3.8 3.8 0 0 0-.05.09h-.01l-.01.03v.01l-.01.01-.02.03v.02h-.01l-.01.02c0 .02-.01.03-.02.03v.02l-.02.02v.02l-.01.02a2.77 2.77 0 0 0-.14.36v.01l-.01.03v.03l-.01.01-.01.03v.02l-.01.02v.02l-.01.02v.03l-.03.09-.04.2-.04.16-.04.16v.01l-.03.16v.02l-.03.1-.04.2-.05.23-.01.06v.02l-.08.34-.08.43c-.76 3.84-.74 5.66-.64 6.62l-.25.3-.27.31-.27.31-.29.32-.08.1-.21.23-.3.33h-.01l-.29.3v.01l-.1.1-.1.1-.08.08-.1.1-.08.07-.02.01-.02.03c-.42.37-.82.67-1.2.92a4.76 4.76 0 0 1-1.43.48h-.03l-.1.01a3.79 3.79 0 0 1-.54.02h-.12A3.34 3.34 0 0 1 85 80.78c-.2-.36-.32-.86-.3-1.44v-.11a4.73 4.73 0 0 1 .07-.53l.02-.11.02-.11a6.04 6.04 0 0 1 .12-.46l.01-.04.05-.16v-.02l.01-.02.05-.12.01-.05a7.5 7.5 0 0 1 .08-.2l.05-.12.05-.12a8.14 8.14 0 0 1 .17-.35l.01-.03v-.02h.01l.02-.04a9.97 9.97 0 0 1 .93-1.45 12.89 12.89 0 0 1 .71-.76l.02-.01.12-.12.04-.05a2.49 2.49 0 0 0 .45-.58v-.02a.2.2 0 0 0 .02-.05.15.15 0 0 0 0-.06s-6.39-4.17-8.1-7.47l-.08-.01-.1.01c-.03 0-.05.02-.08.03a2.7 2.7 0 0 0-.68.4l-.03.03-.03.03a2.9 2.9 0 0 0-.08.08l-.03.02a2.9 2.9 0 0 0-.08.08l-.02.03a2.8 2.8 0 0 0-.04.05l-.05.05-.05.07-.04.05-.01.01-.01.02-.05.08-.02.02a1.98 1.98 0 0 0-.07.14l-.08.26-.09.27-.1.28-.1.29-.26.6v.02l-.05.1v.01h-.01c-.37.81-.84 1.7-1.44 2.66l-.05.08-.1.15-.25.4-.28.4-.29.42c-.25.34-.5.7-.78 1.05l-.17.21-.17.22-.17.21-.18.22-.05.06-.02.03-.3.34-.18.22-.29.33-.3.32-.2.22-.22.22-.21.23a40.04 40.04 0 0 1-.44.44l-.22.21v.01l-.24.22-.23.22-.2.18c0 .02-.02.03-.03.05l-.39.35-.05.04-.11.1-.03.02-.04.03c-.48.39-.94.72-1.39 1a7.7 7.7 0 0 1-1.02.45l-.03.01a6.17 6.17 0 0 1-1.88.32h-.09a9.35 9.35 0 0 1-2.6-.5c-2.51-.8-3.86-2.63-4.8-5.13a8.38 8.38 0 0 1-.46-1.86 36.56 36.56 0 0 1 4.38.58h.08l.03.01h.03l.01.01h.05l.04.01.05.01h.03l.13.02h.04l.07.01.08.01h.04l.07.01h.03l.1.02h.18l.06.01h.07l.05.01h.02a9.65 9.65 0 0 0 3.33-.38c.16-.05.27-.1.34-.11l.04-.02h.02l.05-.02c.53-.2 1.08-.47 1.6-.83h.01l.07-.05.02-.02h.02v-.01l.02-.02.18-.13.05-.04a5.53 5.53 0 0 0 .09-.08l.05-.04.22-.2.02-.03.04-.04a3.36 3.36 0 0 0 .06-.05v-.02l.1-.1a5.34 5.34 0 0 0 1-1.52l.02-.03.01-.04.01-.04a3.34 3.34 0 0 0 .06-.17v-.04l.02-.04a3.53 3.53 0 0 0 .02-.1l.01-.04c.03-.12.05-.24.06-.37v-.05a5.1 5.1 0 0 0-.11-1.6v-.01l-.01-.02v-.01l-.01-.05-.01-.03-.01-.04v-.01l-.02-.06v-.03l-.02-.03v-.03l-.01-.02v-.02l-.02-.06v-.01l-.01-.02v-.01l-.01-.03v-.02c-.02-.02-.02-.05-.03-.07l-.02-.04v-.03l-.03-.06v-.03l-.03-.05V67l-.03-.07-.01-.03-.02-.04-.02-.04-.02-.04v-.01l-.01-.02-.02-.03-.03-.06-.02-.04v-.02l-.02-.02-.02-.04-.02-.03v-.01l-.02-.04-.02-.03-.04-.07v-.01l-.03-.03-.06-.1a4.58 4.58 0 0 0-.06-.08l-.02-.04-.02-.02v-.02a4.57 4.57 0 0 0-.13-.16v-.01a4.65 4.65 0 0 0-.08-.1h-.01v-.01h-.01l-.04-.05-.03-.03v-.01l-.02-.02-.01-.01-.01-.02-.05-.04s0-.02-.02-.02v-.01l-.02-.02-.02-.02a4.93 4.93 0 0 0-.07-.07l-.01-.01-.02-.02-.02-.02-.03-.02a4.96 4.96 0 0 0-.06-.07l-.02-.01-.02-.02-.03-.03-.04-.03a5.08 5.08 0 0 0-.08-.07l-.04-.03a5.18 5.18 0 0 0-.07-.06l-.05-.04a5.3 5.3 0 0 0-.12-.09l-.03-.02-.03-.02h-.01l-.01-.01a5.38 5.38 0 0 0-.08-.06c-.02 0-.03-.02-.05-.03l-.03-.02h-.01v-.01h-.02a5.54 5.54 0 0 0-.07-.05l-.02-.01-.01-.01h-.01a5.65 5.65 0 0 0-.2-.12l-.04-.02-.02-.01-.02-.01-.03-.02H68v-.01c-.02 0-.03-.01-.03-.02l-.03-.01h-.01l-.01-.01-.06-.03-.04-.02-.02-.01h-.01l-.03-.02-.05-.02-.07-.03h-.02l-.03-.02h-.01l-.02-.01-.06-.03h-.03l-.02-.02h-.02l-.07-.03-.02-.01c-.03 0-.05-.02-.07-.03h-.03l-.06-.03h-.02l-.02-.01-.05-.01-.04-.02h-.02l-.04-.02h-.04a6.37 6.37 0 0 0-.52-.14l-.15-.03-.06-.01h-.05l-.03-.01-.05-.01h-.05l-.09-.02-.1-.02-.22-.02h-.07l-.07-.01a7.48 7.48 0 0 0-.28-.02H64.99a7.13 7.13 0 0 0-.33 0h-.13c-.84.05-1.59.25-2.27.5l-.08.04h-.02l-.02.02h-.02l-.03.02h-.02l-.02.01-.03.01a9.3 9.3 0 0 0-.12.06l-.04.01-.04.02-.27.13h-.02l-.02.02a10.08 10.08 0 0 0-1.69 1.04l-.02.02-.1.07a10.6 10.6 0 0 0-2.6 3.05v.01l-.01.02-.02.03-.05.08-.02.05-.01.01v.02l-.02.02-.01.02-.06.1v.01l-.09.18v.01l-.01.02-.01.02-.02.04v.02l-.02.02-.02.04v.02l-.02.02v.02l-.02.03v.02a9.2 9.2 0 0 0-.05.1v.01l-.01.01v.01l-.01.02v.01l-.01.01-.03.06-.02.05v.03l-.02.02v.02l-.04.08c0 .02 0 .04-.02.06v.03h-.01l-.02.05-.01.04v.02l-.01.02-.01.02v.02l-.01.01-.02.06-.02.06-.01.02-.03.1-.02.04v.01l-.01.04-.02.07v.02l-.02.03v.04l-.02.03-.02.08-.01.06c-.1.35-.17.7-.22 1.02l-.12.01h-.05l-.16.02h-.02l-.04.01h-.09l-.06.02H55.35l-.09.02h-.05l-.03.01h-.02l-.05.01h-.05l-.01.01H55l-.06.02h-.03l-.06.01h-.02l-.06.02-.08.01h-.04l-.03.01h-.03l-.02.01h-.04l-.06.02h-.03v.01h-.02l-.04.01h-.01c-.6.13-1.08.28-1.43.41l-.06.03a8.23 8.23 0 0 0-.14.05h-.03l-.07.04-.03.01-.05.02h-.01l-.02.01c-.24.1-.62.28-1.05.53a61.32 61.32 0 0 0 3.42-4.68l.06-.09.1-.15.01-.02.08-.12.06-.1s.02-.01.02-.03l.06-.08.05-.08.06-.1.07-.1.01-.02.01-.02.01-.01.02-.04.01-.01v-.01l.02-.02.02-.03.1-.16.02-.03v-.01l.03-.04.06-.1.01-.02.04-.05.08-.13v-.01l.04-.07.06-.09.02-.03.1-.16.05-.08.01-.02.02-.03.22-.36.06-.1c0-.02.01-.03.02-.03l.09-.16.15-.25.08-.15.09-.14v-.02h.01l.02-.05.16-.27.09-.15.05-.1.01-.02a62 62 0 0 0 .11-.2l.01-.01.07-.12.04-.08.03-.05.12-.22.1-.17.13-.25v-.01l.06-.11a61.4 61.4 0 0 0 2.6-5.48l.14-.36v-.01l.02-.03.41-1.05.02-.04.02-.06.17-.44.02-.05a57.92 57.92 0 0 0 .18-.5l.01-.04.14-.4.05-.13V55l.15-.41v-.03l.02-.03.02-.06v-.02l.02-.03.08-.24v-.03l.02-.05.05-.15.02-.05.01-.04.01-.03.02-.04.04-.15v-.02l.01-.01.03-.1.04-.11.01-.05.02-.06.09-.27v-.04l.05-.13v-.01l.05-.16.07-.24.04-.14.02-.04.03-.12v-.02l.01-.03.03-.1.02-.07v-.02l.06-.2.05-.17.03-.13c1.17-.5 2.47-1.3 3.97-2.6h.01l.04-.03.02-.02.1-.08.06-.06.17-.16.02-.01a18.45 18.45 0 0 1 .65-.56l.21-.17.22-.17.22-.17.22-.16.22-.15a15.46 15.46 0 0 1 .67-.44h.01l.13-.07.68-.34h.01l.06-.03.15-.07a15.66 15.66 0 0 1 .71-.29l.04-.01h.01l.02-.01.08-.03.03-.01.06-.02.25-.09.16-.05.03-.01.08-.03.17-.05.17-.05.35-.1.23-.07h.03l.17-.05.1-.03c.03 0 .06 0 .08-.02h.05l.13-.04.44-.1.13-.02.03-.01.05-.01h.03l.37-.08.13-.03a27.14 27.14 0 0 1 .71-.12l.25-.03.12-.02.18-.03h.06l.02-.01h.02c.97-.13 2-.23 3.1-.31l-.03.02A17.45 17.45 0 0 0 77 45.69l-.17.12a19.69 19.69 0 0 0-.75.55l-.02.01-.07.05-.1.09c-.02 0-.02.01-.03.02h-.02l-.05.05-.02.02-.03.02-.1.08-.11.1-.04.02-.1.08-.1.08-.09.08-.1.08-.09.09-.09.08a24.37 24.37 0 0 0-.18.16l-.1.08-.08.08-.09.08-.09.09-.08.08-.09.08-.08.08-.09.08a28.08 28.08 0 0 0-.75.75c-.08.1-.16.17-.24.25l-.01.02c-.13.13-.26.3-.36.48-.03.06-.02.07-.01.14a.3.3 0 0 0 .16-.03h.02l.04-.02.1-.03c.32-.13.57-.3.76-.49l.06-.07.11-.11.08-.08a20.74 20.74 0 0 1 3.3-2.82l.01-.01.23-.14.46-.25.23-.12.22-.1.23-.11.02-.01.02-.01.05-.02.13-.07a13.75 13.75 0 0 1 .45-.18l.08-.03.02-.01.16-.06h.02a13.54 13.54 0 0 1 .82-.27h.03l.07-.03a13.84 13.84 0 0 1 .15-.04h.03l.05-.02.05-.01h.01l.1-.03h.01l.4-.1c1.6-.33 3.16-.37 4.68-.37h.81l.29.01H88.4l1.13-.03a16.6 16.6 0 0 0 2.34-.27l.06-.01.23-.05h.02l.06-.02h.03l.01-.01.09-.02.07-.02.18-.04h.03l.04-.02.05-.01.06-.02.04-.01.04-.01h.02l.03-.02h.03l.02-.01h.03l.02-.02h.04l.01-.01.03-.01.09-.03h.02l.05-.02h.02l.06-.02.06-.03h.01c.03 0 .05-.02.08-.03h.04l.01-.01.03-.01.06-.03h.03l.02-.01.03-.01h.02v-.01h.02l.05-.02v-.01l.05-.02.13-.04c.6-.23 1.17-.49 1.74-.8-.27.22-.53.42-.8.6l-.04.03-.12.07-.12.07-.08.04-.04.02a9.2 9.2 0 0 1-.12.07l-.07.03a9.3 9.3 0 0 1-.18.1h-.02c-.34.15-.68.28-1.02.4h-.03l-.04.01-.02.01-.04.01-.13.04h-.02l-.02.01h-.02l-.02.01-.1.03-.07.02h-.02l-.02.01-.25.07c-.66.16-1.34.28-2.03.4l-.23.05-.59.11-.06.01h-.02l-.14.03a36.21 36.21 0 0 0-.77.16l-.12.03a21.9 21.9 0 0 0-.26.06l-.13.03c-.59.15-1.18.33-1.81.56h-.01l-.06.03c-.03 0-.06.02-.08.03h-.03l-.14.06-.02.01h-.02l-.04.02-.1.04-.01.01h-.02l-.03.02-.03.01-.83.37h-.01l-.02.01-.02.01-.13.06-.03.02h-.01l-.07.04h-.01l-.01.01-.03.01-.01.01h-.01l-.13.07h-.01l-.03.02h-.01c-1.2.62-2.2 1.31-2.98 1.91l-.02.01-.1.08-.04.03-.01.01-.03.02-.02.02-.1.08-.05.04-.12.1-.03.01-.06.06-.03.02-.04.04c-.36.29-.7.59-1.02.88l-.02.02h-.01l-.2.18-.16.17-.02.01c-.18.17-.36.38-.49.61-.03.06-.02.08-.01.15h.08l.14-.06.3-.12c.2-.1.37-.22.5-.35a25.34 25.34 0 0 1 .77-.7l.07-.05a23.89 23.89 0 0 1 .5-.42l.18-.15a21.32 21.32 0 0 1 .55-.42l.13-.1.05-.04.18-.13.1-.07.09-.06.17-.1.34-.22.17-.1.17-.1.17-.09.12-.06.05-.03.16-.08.17-.09.16-.08.16-.08.16-.07.16-.07h.02l.02-.02.05-.02.03-.01.07-.03.3-.12.03-.01.07-.03h.03l.07-.04h.03l.1-.04.03-.01h.02l.01-.01h.02l.02-.02.05-.01.02-.01.2-.06.14-.05.14-.04a17.14 17.14 0 0 1 .6-.17l.13-.03.14-.03.18-.05.07-.01.2-.05.12-.02a28.82 28.82 0 0 1 1.08-.22c.05 0 .1-.02.14-.03l.17-.03.24-.04.24-.04.27-.06h.04l.07-.02.08-.01c1.57-.3 1.9-.4 2.26-.53l.1-.04.1-.04a11.05 11.05 0 0 1 .22-.09l.14-.05.04-.01.06-.02c.42-.16.83-.34 1.23-.55h.01l.03-.02.02-.01.03-.01.03-.02.07-.04h.01l.04-.03h.01l.06-.03.04-.02.01-.01a12.2 12.2 0 0 0 2.95-2.3l.06-.07.12-.12.06-.07.06-.06.06-.07.06-.07.07-.07.06-.07.07-.08.06-.07.03-.04.04-.04.07-.07.03-.03.04-.04c.3-.3.55-.6.75-.88.44-.5.73-1 .92-1.46l.01-.03.03-.06.02-.06.02-.06a3.88 3.88 0 0 0 .05-.13l.02-.06.02-.06.01-.06.02-.06.01-.06.02-.06v-.06l.02-.06.02-.1v-.01a3.38 3.38 0 0 0 .02-.18V37.23l.01-.05a3.49 3.49 0 0 0 0-.11V36.91a3.33 3.33 0 0 0-.02-.2c-.12-1.22-.86-2-.86-2a.53.53 0 0 0-.1 0zm7.91 27.06.03.2a106.45 106.45 0 0 0-.03-.2zm3.47-14.79.17-.05-.18.05h.01zm-85.82-.02h.08-.08zm5.05-12.17a23.9 23.9 0 0 1 .86.01h.02l.2.01c2.18.08 4.46.44 6.55.9l-.03.07a3.79 3.79 0 0 1-.15.32l-.01.01a3.4 3.4 0 0 1-.04.06l-.04.06v.02l-.22.16c-.2.1-.42.18-.66.25l-.05.01a7.83 7.83 0 0 1-1.74.21h-.19a4.9 4.9 0 0 1-.14 0h-.08a6.3 6.3 0 0 1-.13-.01h-.04l-.07-.01-.09-.01-.16-.02h-.09l-.09-.02-.09-.01-.09-.01-.09-.02h-.06l-.09-.02a56.08 56.08 0 0 1-1.8-.32h-.05l-.1-.02-.8-.15h-.07l-.15-.03-.05-.01-.18-.03h-.06l-.29-.05h-.02l-.1-.02h-.05l-.03-.01-.15-.02h-.04c-.42-.07-.84-.11-1.27-.15H27.5l-.01-.01h-.11l-.07-.01h-.1l-.06-.01H27.06l-.12-.01h-.06l-.06-.01h-.3l-.03-.01H26.1c-.64 0-1.27.04-1.88.14h-.03l-.07.01-.05.01-.06.01c.1-.08.2-.17.31-.24l.05-.03.26-.12h.01l.12-.06.13-.05.28-.1.04-.02.06-.02.15-.05.08-.03.15-.05.15-.04h.02l.25-.06.04-.01.29-.07.06-.01.5-.09h.05l.02-.01.29-.04.28-.04.13-.01.18-.02.12-.01a17.45 17.45 0 0 1 .55-.04h.08l.3-.02a20.78 20.78 0 0 1 .52-.01h.16zm21.15.39zm36.09.58-.13.03-.03.02a2.7 2.7 0 0 0-.9.6l-.02.02-.02.03-.02.02-.02.02-.02.03-.02.02-.03.03a2.63 2.63 0 0 0-.08.1l-.02.04-.13.2v.01l-.01.01a.12.12 0 0 0-.01.08v.04l.02.03v.01l.01.02.01.01v.01l.01.01.01.02.01.03.02.02.02.05.04.1v.03a1.43 1.43 0 0 1 .03.1v.03l.01.02v.03l.01.02v.05l.01.03v.23l-.01.01v.03l-.02.04V38l-.01.04-.02.04v.01l-.01.02v.02l-.01.01c-.27.11-.52.28-.62.36l-.02.02-.02.01-.02.02-.02.02-.11.1-.02.01-.02.02-.03.03-.02.02-.02.02-.02.03-.02.02-.03.02-.02.03-.02.02-.02.03-.02.03-.02.02-.02.03a2.42 2.42 0 0 0-.17.26v.01l-.01.01a.12.12 0 0 0-.02.06l.01.06c.07 0 .1 0 .14-.02h.03l.01-.01h.01l.03-.02.04-.01.04-.01.01-.01h.01a5.33 5.33 0 0 0 .94-.48l.03-.02.03-.02.04-.02.03-.02.03-.03.03-.02.03-.02.03-.02.04-.03.03-.02.03-.03.1-.07.03-.03.03-.03.03-.02.03-.03a3.98 3.98 0 0 0 .06-.06l.03-.03.03-.03.04-.03.02-.03.01-.01.02-.02.35-.39.02-.03.02-.02.02-.03.02-.03.02-.03.02-.02.02-.03.02-.03.05-.08.02-.03.02-.03.02-.03.04-.07.01-.02v-.02h.01l.02-.04.01-.02.01-.02.01-.01v-.02h.01v-.02h.01v-.01l.01-.02.02-.04a1.44 1.44 0 0 0 .07-.95 1.62 1.62 0 0 0-.03-.07v-.02l-.01-.02-.01-.02-.01-.03v-.01l-.01-.02v-.01l-.01-.01v-.01l-.01-.02-.01-.01v-.02l-.02-.02v-.02H87v-.02l-.01-.01v-.01h-.01l-.01-.02-.01-.03h-.1zm-3.93.65-.08.05.08-.05zm2.52 1.9-.01.03v-.01l.01-.03zm.06.3-.03.04.03-.04zm-26.2 8h.08l.06.01H59.56a1.85 1.85 0 0 1 .08.02H59.71l.01.01.12.03h.01l.06.02h.02a2 2 0 0 1 .05.02l.06.02h.02v.01h.01l.04.02h.02l.02.02.05.02a2.12 2.12 0 0 1 .07.03l.02.01.02.01a2.18 2.18 0 0 1 .1.06l.02.02h.01l.04.03h.02l.02.03h.02V47l.02.01.03.03.02.01.02.02.02.01.06.06h.01l.02.02.02.02h.01l.02.02v.01l.04.03.01.02.02.02.02.02.02.01v.01l.07.07v.01l.06.07.01.01.05.06v.01c.02.01.03.02.03.04l.03.02v.01l.01.02.02.02.01.02.02.02c0 .02.02.04.03.05l.01.03.03.03v.01l.1.18v.01l.05.1.02.03.03.06v.02l.03.06v.02h.01l.01.02.04.1a3.82 3.82 0 0 1 .05.14 3.92 3.92 0 0 1 .04.14l.01.05v.01a4.06 4.06 0 0 1 .05.17l.02.1v.03l.01.05v.02c.02.05.02.1.03.16v.02l.01.05v.02l.01.1v.01l.01.12V49.92c0 .14 0 .27-.02.4v.01a5.2 5.2 0 0 1-.01.1v.07l-.02.1-.02.08v.07l-.01.02H61.58a3.97 3.97 0 0 1-2.86-1.38 2.26 2.26 0 0 1-.42-1.05 2.24 2.24 0 0 1-.01-.3V47.94l.01-.12v-.01l.02-.07.01-.08.02-.07.01-.07.02-.08.03-.07.02-.07.01-.03.01-.02.02-.05c.05-.1.1-.2.17-.3l.14-.15h.02l.07-.06.04-.02h.02l.03-.02H59l.03-.01.03-.01h.05l.02-.01a1.98 1.98 0 0 1 .07 0h.01l.06-.01h.07zm-37.5 1.07zm87.62.54h.04a1.23 1.23 0 0 1 .12.02l.06.01.03.01.05.02a1.2 1.2 0 0 1 .07.02h.01l.04.02.03.02a1.28 1.28 0 0 1 .08.04l.05.03.04.03h.01l.01.01a1.46 1.46 0 0 1 .09.07l.02.02a1.68 1.68 0 0 1 .2.21l.02.02.05.06v.01l.03.03a3.77 3.77 0 0 1 .32.57v.03l.05.11.05.12v.01l.06.17c0 .03.02.05.03.08l.07.26.02.06.03.13.03.14.06.32.1.65v.09l.03.26v.09a14.89 14.89 0 0 1 .04.68v.01l.01.4v.9l-.01.06-.04.79-1.35-.1-.12-.02-.22-.01-.23-.02-.73-.06-.14-.01-.12-.01-.2-.02.01-.06.02-.42a37.48 37.48 0 0 1 .1-1.27l.03-.2.02-.21.02-.1v-.08l.03-.22a25.44 25.44 0 0 1 .16-1.04 18.94 18.94 0 0 1 .12-.6l.04-.19.04-.19.05-.19.05-.18a11.01 11.01 0 0 1 .14-.47l.02-.06.06-.16a7.42 7.42 0 0 1 .18-.46l.01-.03a4.85 4.85 0 0 1 .1-.18v-.02zm-87.15 0c3.25.02 6.26 1.43 8.69 3.57l-.13.1-.17.11-.05.04c-.02 0-.03.02-.05.03l-.2.15c-.02 0-.03.02-.05.03l-.04.03-.27.19-.04.02-.01.01a32.19 32.19 0 0 1-.37.24l-.01.01-.1.06-.17.13-.18.12-.18.12-.05.04-.13.08-.19.12-.19.12-.03.02-.31.18c-.95.5-1.98.94-3.03 1.24h-.01l-.01.01-.07.02-.04.01a13.26 13.26 0 0 1-1.61.33h-.08l-.13.02a10.76 10.76 0 0 1-.9.07h-.02a9.36 9.36 0 0 1-.65-.01l-.2-.01a6.8 6.8 0 0 1-4.3-1.91c-.68-.85-.88-1.67-.75-2.43.09-.34.24-.66.43-.96l.04-.05.09-.1.06-.06c.07-.08.14-.14.22-.2l.01-.02.13-.12h.02c.04-.05.09-.08.14-.12l.3-.23.02-.01.02-.02.04-.02.34-.17.16-.07.06-.03.1-.04.05-.02a9.37 9.37 0 0 1 .35-.14l.07-.02a10.15 10.15 0 0 1 .44-.15h.02l.1-.04h.04l.03-.02h.01l.16-.04h.02l.11-.03h.03l.15-.04.18-.03.17-.03h.07c.32-.05.63-.07.93-.07h.16l.02.01H21.67a2.58 2.58 0 0 0 .15 0h.02l.05-.01.4-.01zm35.8 2.37zm50.1 5.38 3.02.23-.04.28v.02l-.07.52v.03l-.08.49-.01.1-.08.5v.03l-.1.56-.01.02-.24 1.18v.03l-.14.58v.02l-.12.48-.05.23-.1.35-.06.26-.08.3-.11.41-.29 1-.05.2-.04.1a55.42 55.42 0 0 1-.36 1.14l-.05.16-.06-.35-.27-1.85a116.02 116.02 0 0 1-.57-4.96 36.02 36.02 0 0 1-.04-2v-.06zm-76.4 6.67h-.05l-.03.01-.03.01-.03.01-.02.01a2.36 2.36 0 0 0-.15.06c0 .01 0 .02-.02.02l-.02.01-.02.01-.05.03-.06.03-.02.01-.04.03-.06.04-.05.03h-.02l-.01.02-.02.01-.03.02V63l-.02.01-.02.02-.02.01-.02.02h-.01l-.01.02c-.02 0-.03.02-.04.03l-.01.01-.04.03-.01.02-.03.02a2.9 2.9 0 0 0-.13.14h-.01l-.03.04-.01.01-.01.01-.24.28-.12.14-.13.14-.04.04-.09.1-.13.14-.13.14-.13.14-.13.14-.14.13-.08.07-.15.14-.15.14-.1.1-.06.03-.16.14-.14.12-.01.01h-.01l-.15.13a15.02 15.02 0 0 1-1.06.76l-.04.02-.02.01c-.13.09-.27.17-.42.25l-.11.06-.08.05-.04.02-.11.06-.07.04-.05.02-.12.07-.11.05h-.01l-.13.08-.03.02-.02.01h-.02l-.05.04-.07.05-.1.07-.02.02-.05.04-.03.02-.01.02-.03.02-.02.02-.01.01-.02.02-.02.02-.03.03-.04.04-.03.03-.02.02-.01.01-.04.04v.01l-.04.05-.01.01-.08.1-.03.04-.02.03-.01.02-.02.03a2.06 2.06 0 0 0-.07.11c-.03.06-.03.08-.02.15a7.13 7.13 0 0 1 2.58 4.2c.08 0 .11 0 .17-.03l.06-.02a3.17 3.17 0 0 0 .13-.05l.04-.02.08-.04a2.54 2.54 0 0 0 .18-.09 2.16 2.16 0 0 0 .2-.13 1.92 1.92 0 0 0 .05-.04l.03-.03.03-.01.07-.07.01-.01a1.6 1.6 0 0 0 .12-.13l.28-.3.14-.15.05-.05.02-.02a28.12 28.12 0 0 1 1.29-1.28l.05-.04a19.09 19.09 0 0 1 .25-.23l.05-.04.02-.02a16.93 16.93 0 0 1 .4-.33l.1-.08a15.05 15.05 0 0 1 .4-.3l.16-.12.17-.12.15-.1.15-.1h.01l.07-.05.11-.06.1-.05.09-.05.06-.04a11.96 11.96 0 0 1 .12-.07l.17-.08.02-.01.05-.03h.01l.05-.03.05-.03.05-.03.05-.04h.01l.05-.04.03-.02.01-.01.03-.03h.02c0-.02.01-.02.02-.03l.04-.03.02-.03h.01a1.6 1.6 0 0 0 .1-.11l.03-.02.04-.06h.01l.05-.06.04-.06H34a2.14 2.14 0 0 0 .04-.07l.02-.03.03-.03c0-.02.01-.03.02-.03l.02-.05.03-.05.02-.02v-.02l.02-.04v-.04l.01-.01a.17.17 0 0 0 0-.05 4.61 4.61 0 0 1-1.98-2.9l-.03-.13v-.01l-.06-.21v-.04l-.04-.13c0-.05-.02-.1-.03-.14 0-.05-.02-.1-.03-.14l-.05-.27V63l-.01-.04v-.02l-.01-.02-.01-.05v-.02l-.01-.02v-.03l-.01-.02v-.03l-.01-.01v-.04h-.01v-.05h-.01v-.02h-.09zm-1.34 1.8c.1.46.2.92.34 1.36l.02.06c.27.78.67 1.52 1.43 2.13l-.03.02a15.91 15.91 0 0 0-.32.22l-.07.05-.08.06a16.14 16.14 0 0 0-.14.1l-.06.05-.17.12-.04.03v.01l-.02.01-.07.05-.01.01-.02.02-.03.02-.06.05-.04.03-.04.03-.05.04-.03.03h-.01l-.03.03-.02.02h-.01l-.01.02h-.02l-.01.02h-.01l-.03.03h-.01v.01l-.07.06-.04.03-.01.01-.04.03-.02.02-.03.02-.04.04h-.01v.01h-.01a24.73 24.73 0 0 0-1.51 1.43l-.01-.03-.01-.04v-.02l-.02-.03v-.02l-.02-.04-.01-.05-.03-.08v-.02l-.02-.06-.01-.03-.02-.05-.01-.04-.01-.02v-.02l-.02-.05-.01-.03-.02-.05-.01-.02-.03-.07v-.01l-.03-.07-.03-.08-.02-.05-.01-.02v-.01l-.03-.06-.01-.02-.07-.15-.02-.04c0-.01 0-.03-.02-.04v-.02l-.03-.05-.01-.02a6.66 6.66 0 0 0-.07-.13l-.02-.04-.01-.02v-.01a6.55 6.55 0 0 0-.04-.05v-.02l-.03-.04-.01-.03-.02-.03-.02-.03-.02-.03-.02-.04-.02-.02-.02-.05h-.01v-.01a6.34 6.34 0 0 0-.03-.05l-.05-.06-.03-.06-.03-.03-.01-.02v-.02H28l-.02-.04-.04-.05-.01-.03-.02-.02-.03-.04-.05-.07-.04-.04a6.63 6.63 0 0 0-.08-.11l-.04-.04-.01-.02a6.95 6.95 0 0 0-.07-.08l-.02-.02a7.12 7.12 0 0 0-.14-.16 7.83 7.83 0 0 0-.18-.18v-.02l-.08-.07a9.36 9.36 0 0 0-.21-.2l-.03-.03.2-.12.1-.06.48-.32.1-.07.09-.06.09-.07.26-.2.09-.06.09-.06.05-.04.08-.07.03-.02.01-.01.03-.02.02-.02.03-.02.05-.04.03-.03h.01v-.01l.05-.03.03-.03.08-.06v-.01h.01l.02-.02.09-.08c.3-.26.6-.52.86-.78l.05-.05.04-.04.07-.06.03-.03a20 20 0 0 0 .17-.18h.01l.1-.1s0-.02.02-.03l.01-.01.03-.03.01-.01zm32.95.69h.19l.3.01h.03l.15.01.16.02h.01l.15.02.16.02.16.03c.06 0 .11.02.16.03h.02a6.53 6.53 0 0 1 .17.04l.13.03h.01l.14.05h.03l.12.04h.01l.27.1.05.01.12.05.28.12a5.9 5.9 0 0 1 .14.07h.01l.13.07.27.15.13.08.13.09h.01l.11.08.12.1a5.03 5.03 0 0 1 .1.07l.04.03.1.08a4.86 4.86 0 0 1 .29.27v.02a4.8 4.8 0 0 1 .13.13l.07.07v.02l.05.04.07.1.06.07.03.04.01.02.08.1.02.03.06.1h.01l.15.25v.02c.05.08.1.16.13.24v.02c.05.08.09.17.12.26v.01l.05.13.03.07v.02l.02.05a4.36 4.36 0 0 1 .07.25v.02l.03.08v.03a6.76 6.76 0 0 1 .03.11l.01.06v.01l.01.04.01.04v.01l.01.06v.02l.01.02v.02l.02.06.02.2.01.09v.04l.02.08a5 5 0 0 1 0 .06V70l.01.12v.46l-.01.06v.01l-.01.03v.04l-.01.05a3.55 3.55 0 0 1-.04.18v.02l-.01.02a3.35 3.35 0 0 1-.02.09l-.01.02v.03l-.02.04-.01.04-.01.04-.02.04-.01.04-.02.03v.01a3.1 3.1 0 0 1-.08.2v.01h-.01l-.03.08-.02.02-.01.03v.01l-.03.05-.05.09-.03.04-.16.13-.03.02-.06.04-.03.02-.06.04a6.9 6.9 0 0 1-1.93.56h-.04c-1.07.12-2.17.06-3.1-.1a47.6 47.6 0 0 0-.7-.13h-.03l-.09-.02-.14-.02-.03-.01h-.01a43.21 43.21 0 0 0-.28-.05l-.12-.01-.2-.03-.11-.02-.75-.1a27.34 27.34 0 0 0-3.39-.23v-.1l.02-.19.01-.2v-.01l.04-.34v-.05a9.26 9.26 0 0 1 .18-.93l.05-.19a9.17 9.17 0 0 1 .36-1.1 8.92 8.92 0 0 1 .23-.53l.06-.1a8.63 8.63 0 0 1 .67-1.1c.33-.4.7-.76 1.12-1.08h.01l.01-.01.17-.1.08-.05.1-.06.16-.09.18-.09.17-.08.06-.03h.01a7.17 7.17 0 0 1 .28-.1h.02v-.01a7.14 7.14 0 0 1 .32-.1l.03-.01.1-.03.07-.02.1-.02a7.09 7.09 0 0 1 1.01-.14h.18l.17-.01zm32.8 2.84a1.54 1.54 0 0 1 .04 0h.03a1.42 1.42 0 0 1 .19.02l.06.02h.04l.05.02.04.01h.01l.03.02h.03v.01h.01l.08.04.03.02.03.02h.01l.03.03.02.01h.01l.02.02.01.01.01.01H97v.01l.04.04h.01v.01l.02.01v.01l.01.01.02.01v.01l.01.01.01.01.11.17.04.06.02.05.04.08.02.05.04.1.02.05.03.1.02.06a2.82 2.82 0 0 1 .08.42l.03.24v.55l-.03.3-.01.08-.07.37v.01a7.9 7.9 0 0 1-.23.9l-.14.39-.04.12-.1.27-.11.26-.1.24-.16.32-.02.06-.01.02-.03.06-.05.09-.01.03c-.39.76-.88 1.6-1.5 2.5v-.15a15.58 15.58 0 0 1 .04-1.2 22.05 22.05 0 0 1 .27-2.43c.06-.38.12-.76.2-1.16v-.07l.03-.1v-.01l.1-.56.01-.05v-.02l.1-.42.08-.43.1-.44a81.3 81.3 0 0 1 .23-1.03v-.04l.02-.04a2.92 2.92 0 0 1 .03-.08v-.04l.03-.06v-.01zM55.9 73.49v.02-.02zm19.75 11.58a6.91 6.91 0 0 1 5.03 2.12l.1.12h.01l.08.1v.02l.02.02c.1.12.18.25.25.38l.01.01.07.13.08.14a4.49 4.49 0 0 1 .13.3 4.55 4.55 0 0 1 .1.29h.01v.02l.05.14v.01l.04.15.04.14v.03l.03.15v.02l.05.28v.09l.01.06.01.19v.06a4.7 4.7 0 0 1 0 .46l-.02.16-.02.17v.02l-.02.07v.03l-.02.07v.02l-.04.17-.02.07v.01l-.01.01-.02.08v.02a4.8 4.8 0 0 1-.04.1l-.02.05v.03l-.03.05-.01.05a4.8 4.8 0 0 1-.04.1l-.01.02-.03.07v.01l-.04.08-.02.04-.06.13v.01l-.04.08-.01.02-.03.06-.04.06-.02.04-.03.05v.01l-.1.15-.05.08-.01.02-.04.06-.06.08c-.3.29-.64.56-1.03.81-.42.22-.89.41-1.4.58a11.02 11.02 0 0 1-.79.21h-.02l-.05.02a13.03 13.03 0 0 1-.5.1h-.03l-.15.04c-2.52-1.64-3.99-3.37-4.52-5.26a6.1 6.1 0 0 1-.03-.1v-.02a6.12 6.12 0 0 1-.06-.25v-.03l-.01-.02-.02-.08a5.58 5.58 0 0 1-.04-.47V88.15a4.88 4.88 0 0 1 .01-.33l.01-.11.01-.1.02-.11.01-.1.02-.1a4.17 4.17 0 0 1 .07-.3l.02-.05c.1-.33.25-.63.43-.9.16-.17.33-.33.52-.47h.02l.04-.03.08-.03.08-.04h.02l.02-.01.07-.03h.01l.04-.02.03-.01.06-.02.09-.03a5.73 5.73 0 0 1 .22-.07h.02l.02-.01h.03l.11-.04h.03a6.08 6.08 0 0 1 .3-.07h.05l.14-.03h.02a6.41 6.41 0 0 1 .27-.04h.03a6.66 6.66 0 0 1 .5-.03zM64.89 95.14l.45.1.07.03.51.11.15.03.52.1.04.02.49.09.13.02a35.79 35.79 0 0 0 1.06.18l.13.02.5.06.13.02.42.05.1.01.53.05.06.01.55.04a26.97 26.97 0 0 0 1.8.06h.16c.82 0 1.7-.06 2.56-.19h.01l.15-.02c1.02.65 2.2 1.3 3.57 1.92l.06.03c-.75.45-1.43.91-2.02 1.37H77l-.03.02-.25.2-.05.04-.04.03-.29.23-.01.01c-1.2 1-2.16 1.99-2.9 2.85a92.83 92.83 0 0 0-8.55-7.49zm8.37.99zm15.02.04h.44c4.48.09 9.16 1.61 13.48 4.71h-.08l-1.15.02a46.67 46.67 0 0 1-1.2-.02l-.44-.01h-.02l-.84-.04h-.03l-.44-.03-.44-.03-.45-.04h-.04a52.3 52.3 0 0 1-.8-.07h-.04l-.45-.05-.44-.05-.1-.01-1.65-.22h-.02l-.27-.05-.14-.02h-.07l-.04-.01-.1-.02-.24-.04c-3.8-.63-7.5-1.66-10.71-2.98l.23-.08.34-.11.44-.13.06-.01.44-.12.07-.02.46-.1.5-.1.05-.01c.32-.06.64-.12.96-.16l.1-.02.97-.1h.02l.5-.04h.03l.52-.03H88.29zm19.16 4.28zm-34.54 3.59-.03.02.03-.02z" fill="#000" stroke="none"/></svg>