<svg xmlns="http://www.w3.org/2000/svg" viewBox="32 87 40 48" stroke="#000" stroke-width=".8" style="stroke-linecap:round;stroke-linejoin:round"><g fill="red" stroke="red"><path d="M58.116 112.343c.74 1.482 2.778-.74 4.074-1.666.926-.926 3.148-2.223 2.778-3.519-2.037.926-2.963.74-4.63 1.852-2.037 1.111-2.593 2.037-2.222 3.333"/><path d="M59 111.874c.741 1.481 2.778-.741 4.075-1.667.926-.926 3.148-2.222 2.778-3.518-2.037.925-2.963.74-4.63 1.851-2.037 1.112-2.593 2.037-2.222 3.334"/><path d="M59.786 111.353c.74 1.482 2.778-.74 4.074-1.666.926-.926 3.149-2.223 2.778-3.519-2.037.926-2.963.74-4.63 1.852-2.037 1.111-2.592 2.037-2.222 3.333"/><path d="M60.476 110.787c.74 1.481 2.778-.741 4.074-1.667.926-.926 3.148-2.222 2.778-3.519-2.037.926-2.963.741-4.63 1.852-2.037 1.111-2.593 2.037-2.222 3.334"/><path d="M61.072 110.179c.741 1.481 2.778-.741 4.074-1.667.926-.926 3.149-2.222 2.778-3.519-2.037.926-2.963.741-4.63 1.852-2.037 1.112-2.592 2.037-2.222 3.334"/><path d="M61.58 109.534c.74 1.482 2.777-.74 4.073-1.666.926-.926 3.149-2.223 2.778-3.519-2.037.926-2.963.74-4.63 1.852-2.037 1.111-2.592 2.037-2.222 3.333"/><path d="M62 108.858c.74 1.482 2.777-.74 4.074-1.666.926-.926 3.148-2.223 2.777-3.519-2.037.926-2.963.74-4.63 1.852-2.036 1.111-2.592 2.037-2.222 3.333"/><path d="M62.336 108.156c.741 1.481 2.778-.741 4.074-1.667.926-.926 3.149-2.222 2.778-3.519-2.037.926-2.963.741-4.63 1.852-2.037 1.111-2.592 2.037-2.222 3.334"/><path d="M62.593 107.429c.741 1.481 2.778-.74 4.074-1.667.926-.926 3.149-2.222 2.778-3.518-2.037.926-2.963.74-4.63 1.852-2.036 1.11-2.592 2.037-2.222 3.333"/><path d="M62.792 106.593c.741 1.481 2.778-.74 4.074-1.667.926-.926 3.149-2.222 2.778-3.518-2.037.926-2.963.74-4.63 1.851-2.037 1.112-2.592 2.038-2.222 3.334"/><path d="M62.903 105.738c.74 1.482 2.778-.74 4.074-1.666.926-.926 3.148-2.223 2.778-3.519-2.037.926-2.963.74-4.63 1.852-2.037 1.111-2.593 2.037-2.222 3.333"/><path d="M62.928 104.874c.74 1.481 2.777-.741 4.074-1.667.926-.926 3.148-2.222 2.778-3.519-2.037.926-2.963.741-4.63 1.852-2.037 1.111-2.593 2.037-2.222 3.334"/><path d="M62.87 104.007c.74 1.482 2.778-.74 4.074-1.667.926-.926 3.148-2.222 2.778-3.518-2.037.926-2.963.74-4.63 1.852-2.037 1.11-2.593 2.037-2.222 3.333"/><path d="M62.732 103.147c.74 1.482 2.777-.74 4.074-1.667.926-.926 3.148-2.222 2.778-3.518-2.038.926-2.963.74-4.63 1.852-2.037 1.11-2.593 2.037-2.222 3.333"/><path d="M62.516 102.302c.74 1.481 2.778-.74 4.074-1.667.926-.926 3.148-2.222 2.778-3.518-2.037.926-2.963.74-4.63 1.852-2.037 1.11-2.592 2.037-2.222 3.333"/><path d="M62.226 101.48c.74 1.481 2.778-.74 4.074-1.667.926-.926 3.148-2.222 2.778-3.518-2.037.925-2.963.74-4.63 1.851-2.037 1.112-2.593 2.038-2.222 3.334"/><path d="M61.864 100.69c.74 1.48 2.778-.742 4.074-1.668.926-.925 3.148-2.222 2.778-3.518-2.037.926-2.963.74-4.63 1.852-2.037 1.11-2.593 2.037-2.222 3.333"/><path d="M61.432 99.938c.741 1.482 2.778-.74 4.075-1.667.925-.925 3.148-2.222 2.777-3.518-2.037.926-2.963.74-4.63 1.852-2.036 1.11-2.592 2.037-2.222 3.333"/><path d="M60.935 99.235c.74 1.482 2.777-.74 4.074-1.666.926-.926 3.148-2.223 2.778-3.519-2.038.926-2.963.74-4.63 1.852-2.037 1.111-2.593 2.037-2.222 3.333"/><path d="M60.366 98.58c.741 1.482 2.778-.74 4.074-1.667.926-.926 3.149-2.222 2.778-3.518-2.037.926-2.963.74-4.63 1.852-2.036 1.11-2.592 2.037-2.222 3.333"/><path d="M59.73 97.962c.74 1.482 2.778-.74 4.074-1.666.926-.926 3.148-2.223 2.778-3.519-2.037.926-2.963.74-4.63 1.852-2.037 1.111-2.593 2.037-2.222 3.333"/><path d="M59.044 97.395c.74 1.482 2.778-.74 4.074-1.666.926-.926 3.148-2.223 2.778-3.519-2.037.926-2.963.74-4.63 1.852-2.037 1.111-2.593 2.037-2.222 3.333"/><path d="M58.313 96.88c.741 1.48 2.778-.742 4.074-1.667.926-.926 3.149-2.223 2.778-3.519-2.037.926-2.963.74-4.63 1.852-2.036 1.111-2.592 2.037-2.222 3.333"/><path d="M57.543 96.414c.74 1.482 2.778-.74 4.074-1.666.926-.926 3.148-2.223 2.778-3.519-2.037.926-2.963.74-4.63 1.852-2.037 1.111-2.593 2.037-2.222 3.333"/><path d="M56.737 96.001c.74 1.482 2.777-.74 4.074-1.667.926-.926 3.148-2.222 2.778-3.518-2.037.926-2.963.74-4.63 1.852-2.037 1.11-2.593 2.037-2.222 3.333"/><path d="M55.9 95.64c.74 1.48 2.777-.741 4.074-1.667.926-.926 3.148-2.223 2.778-3.519-2.037.926-2.963.74-4.63 1.852-2.037 1.111-2.593 2.037-2.222 3.333"/><path d="M55.036 95.33c.741 1.481 2.778-.741 4.074-1.667.926-.926 3.149-2.222 2.778-3.518-2.037.925-2.963.74-4.63 1.851-2.037 1.112-2.592 2.037-2.222 3.334"/><path d="M54.151 95.073c.74 1.481 2.778-.741 4.074-1.667.926-.926 3.148-2.222 2.778-3.519-2.037.926-2.963.741-4.63 1.852-2.037 1.111-2.592 2.037-2.222 3.334"/><path d="M53.249 94.868c.74 1.481 2.777-.74 4.074-1.667.926-.926 3.148-2.222 2.778-3.518-2.038.925-2.964.74-4.63 1.851-2.037 1.112-2.593 2.038-2.222 3.334"/><path d="M52.333 94.716c.741 1.482 2.778-.74 4.075-1.667.925-.926 3.148-2.222 2.777-3.518-2.037.926-2.963.74-4.63 1.852-2.036 1.11-2.592 2.037-2.222 3.333"/><path d="M51.41 94.617c.74 1.482 2.778-.74 4.074-1.666.926-.926 3.149-2.223 2.778-3.519-2.037.926-2.963.74-4.63 1.852-2.037 1.111-2.592 2.037-2.222 3.333"/><path d="M50.483 94.572c.741 1.481 2.778-.74 4.075-1.667.926-.926 3.148-2.222 2.777-3.518-2.037.926-2.963.74-4.63 1.852-2.036 1.11-2.592 2.037-2.222 3.333"/><path d="M49.558 94.58c.74 1.482 2.778-.74 4.074-1.666.926-.926 3.148-2.223 2.778-3.519-2.037.926-2.963.74-4.63 1.852-2.037 1.111-2.593 2.037-2.222 3.333"/><path d="M48.638 94.643c.74 1.481 2.777-.741 4.074-1.667.926-.926 3.148-2.222 2.778-3.519-2.038.926-2.963.741-4.63 1.852-2.037 1.111-2.593 2.037-2.222 3.334"/><path d="M47.728 94.76c.74 1.48 2.777-.742 4.074-1.667.926-.926 3.148-2.223 2.778-3.52-2.038.927-2.963.742-4.63 1.853-2.037 1.111-2.593 2.037-2.222 3.333"/><path d="M46.832 94.93c.741 1.482 2.778-.74 4.075-1.666.925-.926 3.148-2.223 2.777-3.519-2.037.926-2.963.74-4.63 1.852-2.036 1.111-2.592 2.037-2.222 3.333"/><path d="M45.956 95.156c.741 1.482 2.778-.74 4.075-1.667.926-.926 3.148-2.222 2.777-3.518-2.037.926-2.963.74-4.63 1.852-2.036 1.11-2.592 2.037-2.222 3.333"/><path d="M45.104 95.437c.741 1.481 2.778-.74 4.075-1.667.925-.926 3.148-2.222 2.777-3.518-2.037.926-2.963.74-4.63 1.852-2.036 1.11-2.592 2.037-2.222 3.333"/><path d="M44.28 95.773c.742 1.482 2.779-.74 4.075-1.667.926-.926 3.148-2.222 2.778-3.518-2.037.926-2.963.74-4.63 1.852-2.037 1.11-2.593 2.037-2.222 3.333"/><path d="M43.49 96.165c.741 1.481 2.778-.74 4.074-1.667.926-.926 3.149-2.222 2.778-3.518-2.037.926-2.963.74-4.63 1.851-2.037 1.112-2.592 2.038-2.222 3.334"/><path d="M42.737 96.613c.74 1.481 2.778-.741 4.074-1.667.926-.926 3.149-2.222 2.778-3.519-2.037.926-2.963.741-4.63 1.852-2.037 1.111-2.592 2.037-2.222 3.334"/><path d="M42.026 97.116c.741 1.482 2.778-.74 4.074-1.666.926-.926 3.149-2.223 2.778-3.519-2.037.926-2.963.74-4.63 1.852-2.037 1.111-2.592 2.037-2.222 3.333"/><path d="M41.33 97.691c.74 1.482 2.778-.74 4.074-1.666.926-.926 3.148-2.223 2.778-3.519-2.037.926-2.963.74-4.63 1.852-2.037 1.111-2.592 2.037-2.222 3.333"/><path d="M40.652 98.308c.741 1.481 2.778-.74 4.074-1.667.926-.926 3.149-2.222 2.778-3.518-2.037.926-2.963.74-4.63 1.851-2.037 1.112-2.592 2.038-2.222 3.334"/><path d="M40.003 98.956c.74 1.481 2.778-.741 4.074-1.667.926-.926 3.148-2.222 2.778-3.519-2.037.926-2.963.741-4.63 1.852-2.037 1.111-2.593 2.037-2.222 3.334"/><path d="M39.382 99.633c.74 1.481 2.778-.741 4.074-1.667.926-.926 3.149-2.222 2.778-3.519-2.037.926-2.963.741-4.63 1.852-2.037 1.112-2.592 2.037-2.222 3.334"/><path d="M38.792 100.337c.74 1.482 2.778-.74 4.074-1.666.926-.926 3.148-2.222 2.778-3.519-2.037.926-2.963.741-4.63 1.852-2.037 1.111-2.593 2.037-2.222 3.333"/><path d="M38.232 101.068c.741 1.481 2.778-.74 4.074-1.667.926-.926 3.149-2.222 2.778-3.518-2.037.926-2.963.74-4.63 1.851-2.037 1.112-2.592 2.038-2.222 3.334"/><path d="M37.705 101.822c.74 1.482 2.778-.74 4.074-1.667.926-.926 3.148-2.222 2.778-3.518-2.037.926-2.963.74-4.63 1.852-2.037 1.11-2.593 2.037-2.222 3.333"/><path d="M37.21 102.598c.741 1.482 2.778-.74 4.075-1.667.926-.926 3.148-2.222 2.777-3.518-2.037.926-2.963.74-4.63 1.852-2.036 1.11-2.592 2.037-2.222 3.333"/><path d="M36.75 103.394c.74 1.482 2.778-.74 4.074-1.667.926-.926 3.148-2.222 2.778-3.518-2.037.926-2.963.74-4.63 1.852-2.037 1.11-2.592 2.037-2.222 3.333"/><path d="M36.324 104.208c.741 1.482 2.778-.74 4.075-1.667.925-.925 3.148-2.222 2.777-3.518-2.037.926-2.963.74-4.63 1.852-2.036 1.11-2.592 2.037-2.222 3.333"/><path d="M35.935 105.038c.74 1.482 2.778-.74 4.074-1.666.926-.926 3.148-2.222 2.778-3.519-2.037.926-2.963.74-4.63 1.852-2.037 1.111-2.593 2.037-2.222 3.333"/><path d="M35.582 105.883c.74 1.482 2.778-.74 4.074-1.667.926-.926 3.148-2.222 2.778-3.518-2.037.926-2.963.74-4.63 1.852-2.037 1.11-2.592 2.037-2.222 3.333"/><path d="M35.267 106.74c.74 1.482 2.778-.74 4.074-1.667.926-.925 3.148-2.222 2.778-3.518-2.037.926-2.963.74-4.63 1.852-2.037 1.11-2.592 2.037-2.222 3.333"/><path d="M34.991 107.608c.74 1.481 2.778-.74 4.074-1.667.926-.926 3.148-2.222 2.778-3.518-2.037.925-2.963.74-4.63 1.851-2.037 1.112-2.592 2.037-2.222 3.334"/><path d="M34.755 108.484c.74 1.482 2.778-.74 4.074-1.667.926-.926 3.148-2.222 2.778-3.518-2.037.926-2.963.74-4.63 1.852-2.037 1.11-2.593 2.037-2.222 3.333"/><path d="M34.56 109.367c.74 1.482 2.777-.74 4.074-1.667.926-.926 3.148-2.222 2.777-3.518-2.037.926-2.963.74-4.63 1.852-2.036 1.11-2.592 2.037-2.222 3.333"/><path d="M34.406 110.255c.74 1.482 2.778-.74 4.074-1.667.926-.926 3.148-2.222 2.778-3.518-2.037.926-2.963.74-4.63 1.852-2.037 1.11-2.593 2.037-2.222 3.333"/><path d="M34.295 111.146c.74 1.481 2.778-.74 4.074-1.667.926-.926 3.148-2.222 2.778-3.518-2.037.926-2.963.74-4.63 1.852-2.037 1.11-2.592 2.037-2.222 3.333"/><path d="M34.228 112.038c.74 1.481 2.778-.74 4.074-1.667.926-.926 3.148-2.222 2.778-3.518-2.037.926-2.963.74-4.63 1.852-2.037 1.11-2.593 2.037-2.222 3.333"/><path d="M34.205 112.93c.741 1.48 2.778-.742 4.075-1.668.926-.925 3.148-2.222 2.777-3.518-2.037.926-2.963.74-4.63 1.852-2.036 1.11-2.592 2.037-2.222 3.333"/><path d="M34.229 113.818c.74 1.481 2.778-.741 4.074-1.667.926-.926 3.148-2.222 2.778-3.519-2.037.926-2.963.741-4.63 1.852-2.037 1.111-2.593 2.037-2.222 3.334"/><path d="M34.299 114.702c.74 1.481 2.778-.741 4.074-1.667.926-.926 3.148-2.222 2.778-3.519-2.037.926-2.963.741-4.63 1.852-2.037 1.111-2.593 2.037-2.222 3.334"/><path d="M34.416 115.58c.741 1.48 2.778-.742 4.074-1.667.926-.926 3.149-2.223 2.778-3.519-2.037.926-2.963.74-4.63 1.852-2.036 1.111-2.592 2.037-2.222 3.333"/><path d="M34.583 116.448c.74 1.482 2.777-.74 4.074-1.666.926-.926 3.148-2.223 2.778-3.519-2.038.926-2.963.74-4.63 1.852-2.037 1.111-2.593 2.037-2.222 3.333"/><path d="M34.798 117.307c.741 1.482 2.778-.74 4.075-1.666.926-.926 3.148-2.223 2.777-3.519-2.037.926-2.963.74-4.63 1.852-2.036 1.111-2.592 2.037-2.222 3.333"/><path d="M35.065 118.154c.74 1.482 2.778-.74 4.074-1.667.926-.925 3.148-2.222 2.778-3.518-2.037.926-2.963.74-4.63 1.852-2.037 1.11-2.592 2.037-2.222 3.333"/><path d="M35.383 118.987c.74 1.481 2.778-.74 4.074-1.667.926-.926 3.148-2.222 2.778-3.518-2.037.926-2.963.74-4.63 1.852-2.037 1.11-2.592 2.037-2.222 3.333"/><path d="M35.753 119.804c.741 1.481 2.778-.74 4.075-1.667.926-.926 3.148-2.222 2.777-3.518-2.037.926-2.963.74-4.63 1.851-2.036 1.112-2.592 2.038-2.222 3.334"/><path d="M36.177 120.603c.741 1.482 2.778-.74 4.075-1.667.926-.926 3.148-2.222 2.777-3.518-2.037.926-2.963.74-4.63 1.852-2.036 1.11-2.592 2.037-2.222 3.333"/><path d="M36.667 121.401c.74 1.482 2.778-.74 4.074-1.666.926-.926 3.148-2.223 2.778-3.519-2.037.926-2.963.74-4.63 1.852-2.037 1.111-2.592 2.037-2.222 3.333"/><path d="M37.217 122.235c.74 1.482 2.778-.74 4.074-1.667.926-.926 3.148-2.222 2.778-3.518-2.037.926-2.963.74-4.63 1.852-2.037 1.11-2.593 2.037-2.222 3.333"/><path d="M37.767 123.03c.741 1.482 2.778-.74 4.075-1.666.926-.926 3.148-2.222 2.777-3.519-2.037.926-2.963.741-4.63 1.852-2.036 1.111-2.592 2.037-2.222 3.334"/><path d="M38.32 123.789c.741 1.481 2.778-.741 4.075-1.667.926-.926 3.148-2.222 2.777-3.519-2.037.926-2.963.741-4.63 1.852-2.036 1.111-2.592 2.037-2.222 3.334"/><path d="M38.877 124.51c.741 1.481 2.778-.741 4.075-1.667.926-.926 3.148-2.222 2.777-3.519-2.037.926-2.963.74-4.63 1.852-2.036 1.111-2.592 2.037-2.222 3.333"/><path d="M39.44 125.194c.74 1.481 2.778-.74 4.074-1.667.926-.926 3.149-2.222 2.778-3.518-2.037.925-2.963.74-4.63 1.851-2.037 1.112-2.592 2.038-2.222 3.334"/><path d="M40.01 125.842c.74 1.482 2.778-.74 4.074-1.666.926-.926 3.148-2.223 2.778-3.519-2.037.926-2.963.74-4.63 1.852-2.037 1.111-2.592 2.037-2.222 3.333"/><path d="M40.589 126.455c.74 1.482 2.778-.74 4.074-1.666.926-.926 3.148-2.223 2.778-3.519-2.037.926-2.963.74-4.63 1.852-2.037 1.111-2.592 2.037-2.222 3.333"/><path d="M41.178 127.034c.741 1.481 2.778-.741 4.075-1.667.925-.926 3.148-2.222 2.777-3.519-2.037.926-2.963.741-4.63 1.852-2.036 1.111-2.592 2.037-2.222 3.334"/><path d="M41.78 127.578c.74 1.481 2.778-.74 4.074-1.667.926-.926 3.148-2.222 2.778-3.518-2.037.926-2.963.74-4.63 1.852-2.037 1.11-2.592 2.037-2.222 3.333"/><path d="M42.395 128.089c.741 1.481 2.778-.741 4.074-1.667.926-.926 3.149-2.222 2.778-3.519-2.037.926-2.963.741-4.63 1.852-2.037 1.111-2.592 2.037-2.222 3.334"/><path d="M43.026 128.566c.74 1.482 2.778-.74 4.074-1.667.926-.926 3.148-2.222 2.778-3.518-2.037.926-2.963.74-4.63 1.852-2.037 1.11-2.592 2.037-2.222 3.333"/><path d="M43.674 129.011c.74 1.482 2.777-.74 4.074-1.666.926-.926 3.148-2.223 2.778-3.519-2.037.926-2.963.74-4.63 1.852-2.037 1.111-2.593 2.037-2.222 3.333"/><path d="M44.34 129.425c.74 1.481 2.778-.741 4.074-1.667.926-.926 3.148-2.222 2.778-3.519-2.037.926-2.963.741-4.63 1.852-2.037 1.111-2.592 2.037-2.222 3.334"/><path d="M45.027 129.807c.74 1.481 2.777-.741 4.074-1.667.926-.926 3.148-2.222 2.778-3.519-2.038.926-2.964.741-4.63 1.852-2.037 1.111-2.593 2.037-2.222 3.334"/><path d="M45.735 130.158c.74 1.481 2.778-.74 4.074-1.667.926-.926 3.148-2.222 2.778-3.518-2.037.926-2.963.74-4.63 1.851-2.037 1.112-2.592 2.038-2.222 3.334"/><path d="M46.467 130.479c.74 1.482 2.778-.74 4.074-1.667.926-.926 3.148-2.222 2.778-3.518-2.037.926-2.963.74-4.63 1.852-2.037 1.11-2.592 2.037-2.222 3.333"/><path d="M47.224 130.77c.74 1.482 2.778-.74 4.074-1.666.926-.926 3.148-2.222 2.778-3.519-2.037.926-2.963.741-4.63 1.852-2.037 1.111-2.592 2.037-2.222 3.334"/><path d="M48.008 131.033c.74 1.482 2.778-.74 4.074-1.666.926-.926 3.148-2.223 2.778-3.519-2.037.926-2.963.74-4.63 1.852-2.037 1.111-2.593 2.037-2.222 3.333"/><path d="M48.82 131.268c.74 1.481 2.778-.741 4.074-1.667.926-.926 3.148-2.222 2.778-3.519-2.037.926-2.963.741-4.63 1.852-2.037 1.111-2.592 2.037-2.222 3.334"/><path d="M49.662 131.474c.741 1.482 2.778-.74 4.074-1.666.926-.926 3.149-2.223 2.778-3.52-2.037.927-2.963.742-4.63 1.853-2.037 1.11-2.592 2.037-2.222 3.333"/><path d="M50.536 131.653c.74 1.482 2.778-.74 4.074-1.666.926-.926 3.148-2.222 2.778-3.519-2.037.926-2.963.741-4.63 1.852-2.037 1.111-2.592 2.037-2.222 3.333"/><path d="M51.443 131.806c.74 1.482 2.778-.74 4.074-1.667.926-.926 3.148-2.222 2.778-3.518-2.037.926-2.963.74-4.63 1.852-2.037 1.11-2.592 2.037-2.222 3.333"/><path d="M52.385 131.933c.74 1.481 2.778-.741 4.074-1.667.926-.926 3.148-2.222 2.778-3.519-2.037.926-2.963.741-4.63 1.852-2.037 1.111-2.592 2.037-2.222 3.334"/><path d="M53.363 132.034c.741 1.481 2.778-.74 4.074-1.667.926-.926 3.149-2.222 2.778-3.518-2.037.925-2.963.74-4.63 1.851-2.036 1.112-2.592 2.037-2.222 3.334"/><path d="M54.38 132.11c.74 1.482 2.778-.74 4.074-1.667.926-.926 3.148-2.222 2.778-3.518-2.037.926-2.963.74-4.63 1.852-2.037 1.11-2.593 2.037-2.222 3.333"/><path d="M55.277 132.147c.741 1.481 2.778-.741 4.075-1.667.925-.926 3.148-2.222 2.777-3.519-2.037.926-2.963.741-4.63 1.852-2.036 1.111-2.592 2.037-2.222 3.334"/><path d="M55.904 132.024c.74 1.481 2.778-.741 4.074-1.667.926-.926 3.148-2.222 2.778-3.519-2.037.926-2.963.741-4.63 1.852-2.037 1.111-2.592 2.037-2.222 3.334"/><path d="M56.634 131.662c.74 1.482 2.778-.74 4.074-1.666.926-.926 3.148-2.223 2.778-3.519-2.037.926-2.963.74-4.63 1.852-2.037 1.111-2.593 2.037-2.222 3.333"/></g><path d="M61.31 111.372c-1.203.99-2.606 2.147-3.194.971a9.712 9.712 0 0 0 2.027-1.268c.587 1.176 1.991.02 3.194-.97-.575.472-1.248.899-2.027 1.267"/><path d="M59.504 112.66c-.584.276-1.09.278-1.388-.317a9.712 9.712 0 0 0 2.027-1.268c.569 1.138 1.902.092 3.077-.875m0 0c-.937.77-2.092 1.692-3.716 2.46"/><path d="M59.504 112.66c.57-.27 1.212-.799 1.806-1.288a9.712 9.712 0 0 0 1.91-1.172m0 0c-.937.77-2.092 1.692-3.716 2.46"/><path d="M63.337 110.104c-1.203.99-2.607 2.147-3.194.971l.01-.009c.588 1.176 1.992.02 3.195-.97a8.488 8.488 0 0 1-.011.008"/><path d="M63.348 110.095c-1.203.99-2.607 2.147-3.194.971 1.253-1.033 2.036-2.284 2.435-3.62.587 1.175 1.991.018 3.194-.972-.4 1.337-1.182 2.588-2.435 3.621"/><path d="M65.783 106.474c-1.203.99-2.607 2.147-3.194.971.645-2.164.347-4.608-.672-6.651.588 1.176 1.991.02 3.194-.971 1.02 2.043 1.317 4.486.672 6.651"/><path d="M65.11 99.823c-1.202.99-2.605 2.147-3.193.971a9.494 9.494 0 0 0-.008-.017c.587 1.176 1.991.02 3.194-.97l.008.016"/><path d="M65.103 99.806c-1.203.99-2.607 2.147-3.194.971a8.995 8.995 0 0 0-1.334-1.97c.588 1.175 1.992.019 3.194-.971a8.995 8.995 0 0 1 1.334 1.97"/><path d="m61.91 100.779-.001-.002a8.995 8.995 0 0 0-1.334-1.97c.05.099.105.18.165.248m0 0c.474.53.865 1.117 1.17 1.724"/><path d="M61.91 100.779c.587 1.173 1.99.017 3.193-.973a8.995 8.995 0 0 0-1.334-1.97c-1.1.907-2.371 1.953-3.029 1.22.474.528.865 1.116 1.17 1.723"/><path d="M63.77 97.836c-1.203.99-2.607 2.146-3.195.97-3.446-3.847-9.712-5.134-14.732-3.616.588 1.175 1.992.02 3.194-.971 5.02-1.518 11.286-.231 14.732 3.617"/><path d="M60.74 99.055a1.12 1.12 0 0 1-.165-.248c-3.446-3.848-9.712-5.135-14.732-3.617.244.488.628.574 1.08.437m0 0c4.55-1.375 10.567-.2 13.817 3.428"/><path d="M60.74 99.055c.658.734 1.928-.312 3.03-1.22-3.447-3.847-9.713-5.134-14.733-3.616-.703.58-1.476 1.215-2.113 1.408m0 0c4.549-1.375 10.566-.2 13.816 3.428"/><path d="M49.037 94.219c-1.202.99-2.606 2.146-3.194.97a13.53 13.53 0 0 0-.039.013c.588 1.175 1.992.019 3.194-.971l.039-.012"/><path d="M46.924 95.627c-.453.137-.837.05-1.081-.437a13.53 13.53 0 0 0-.039.012c.245.49.631.574 1.086.435l.034-.01"/><path d="M46.924 95.627c.637-.193 1.41-.829 2.113-1.408a13.53 13.53 0 0 0-.039.012c-.702.577-1.472 1.212-2.108 1.406l.034-.01"/><path d="M48.998 94.23c-1.202.99-2.606 2.147-3.194.972-1.458.445-2.81 1.128-3.954 2.054.587 1.175 1.991.02 3.194-.971 1.145-.926 2.496-1.609 3.954-2.054"/><path d="M46.89 95.637c-.455.14-.841.054-1.086-.435-1.458.445-2.81 1.128-3.954 2.054.525 1.05 1.703.238 2.805-.653m0 0c-.23.186.581-.46 2.235-.966"/><path d="M46.89 95.637c.636-.194 1.406-.829 2.108-1.406-1.458.445-2.809 1.128-3.954 2.054l-.389.318m0 0c-.23.186.581-.46 2.235-.966"/><path d="M45.044 96.285c-1.203.99-2.607 2.146-3.194.97l-.115.095c.588 1.175 1.991.019 3.194-.972l.115-.093"/><path d="M44.929 96.378c-1.203.99-2.606 2.147-3.194.972-.014.01-.028.022-.042.034.588 1.175 1.992.02 3.194-.971l.042-.035"/><path d="M44.887 96.413c-1.202.99-2.606 2.146-3.194.97-6.49 5.361-9.601 15.064-5.907 22.488.588 1.175 1.992.019 3.195-.971-3.695-7.424-.584-17.127 5.906-22.487"/><path d="M38.98 118.9c-1.202.99-2.606 2.146-3.194.97l.024.048c.588 1.176 1.992.02 3.194-.97a14.508 14.508 0 0 1-.023-.048"/><path d="M39.004 118.947c-1.202.99-2.606 2.147-3.194.971.221.44.467.873.736 1.295.588 1.176 1.992.02 3.194-.97-.27-.423-.515-.856-.736-1.296"/><path d="M35.811 119.92v-.002c.22.44.466.873.735 1.295.022.043.044.082.067.119m0 0a15.785 15.785 0 0 1-.802-1.411"/><path d="M35.811 119.92c.589 1.172 1.992.017 3.193-.973.221.44.467.873.736 1.295-1.159.955-2.505 2.064-3.127 1.09m0 0a15.785 15.785 0 0 1-.802-1.411"/><path d="M39.74 120.242c-1.202.99-2.606 2.147-3.194.971 4.743 7.428 9.353 10.516 18.508 10.933.587 1.176 1.991.02 3.194-.971-9.155-.417-13.765-3.505-18.508-10.933"/><path d="M36.613 121.332a1.298 1.298 0 0 1-.067-.119c4.743 7.428 9.353 10.516 18.508 10.933.168.337.404.482.682.495m0 0c-9.421-.43-14.224-3.637-19.123-11.31"/><path d="M36.613 121.332c.622.974 1.968-.135 3.127-1.09 4.743 7.428 9.353 10.516 18.508 10.933-.858.707-1.819 1.498-2.512 1.466m0 0c-9.421-.43-14.224-3.637-19.123-11.31"/><path d="M58.248 131.175c-1.203.99-2.607 2.147-3.194.971a2.16 2.16 0 0 0 .75-.09c.588 1.176 1.991.02 3.194-.97a2.16 2.16 0 0 1-.75.089"/><path d="M55.736 132.641c-.278-.013-.514-.158-.682-.495a2.16 2.16 0 0 0 .75-.09c.244.489.629.575 1.081.438m0 0c-.432.13-.8.163-1.149.147"/><path d="M55.736 132.641c.693.032 1.654-.76 2.512-1.466a2.16 2.16 0 0 0 .75-.09c-.703.58-1.475 1.215-2.113 1.409m0 0c-.432.13-.8.163-1.149.147"/><path d="M58.998 131.085c-1.203.99-2.606 2.147-3.194.972l.004-.002c.588 1.176 1.992.02 3.194-.97h-.004"/><path d="M56.885 132.494c-.452.137-.837.05-1.081-.437l.004-.002c.245.49.63.575 1.085.436m0 0-.008.003"/><path d="M56.885 132.494c.638-.194 1.41-.83 2.113-1.409h.004c-.702.577-1.472 1.212-2.11 1.406m0 0-.007.003"/><path d="M59.002 131.084c-1.202.99-2.606 2.147-3.194.971.46-.14.985-.456 1.787-1.062.588 1.175 1.991.019 3.194-.971-.802.606-1.327.922-1.787 1.062"/><path d="M56.893 132.491c-.454.139-.84.053-1.085-.436.46-.14.985-.456 1.787-1.062.455.91 1.401.421 2.364-.306m0 0c-1.256.95-2.218 1.546-3.066 1.804"/><path d="M56.893 132.491c.637-.194 1.407-.829 2.11-1.407.46-.14.984-.456 1.786-1.062-.27.222-.551.454-.83.665m0 0c-1.256.95-2.218 1.546-3.066 1.804M62.19 110.677c-.268.19-.567.437-.88.695.573-.27 1.088-.573 1.549-.901.313-.258.612-.505.88-.696-.461.329-.976.63-1.549.902"/><path d="M63.739 109.775c-.268.191-.567.438-.88.696l.012-.009c.313-.258.612-.504.88-.696a9.058 9.058 0 0 1-.012.009"/><path d="M63.75 109.766c-.267.192-.566.438-.88.696.114-.082.225-.165.332-.25.313-.257.613-.504.88-.695a8.843 8.843 0 0 1-.331.25"/><path d="M63.747 109.77c-.267.19-.565.435-.876.692.113-.082.224-.165.331-.25.184-.15.363-.298.533-.432m0 0c.033-.026.024-.02.012-.01"/><path d="M63.747 109.77a8.843 8.843 0 0 0 .336-.252c-.111.078-.227.167-.348.262m0 0c.033-.026.024-.02.012-.01"/><path d="M64.082 109.517c-.267.191-.567.438-.88.696a8.64 8.64 0 0 0 .012-.01c.313-.257.612-.504.88-.695a8.64 8.64 0 0 1-.012.01"/><path d="M64.094 109.508c-.268.191-.567.438-.88.696l.123-.1c.313-.257.612-.504.88-.695l-.123.1"/><path d="M64.217 109.409c-.268.191-.567.438-.88.695l.01-.009c.314-.257.613-.504.88-.695a8.488 8.488 0 0 1-.01.009"/><path d="M64.228 109.4c-.268.191-.567.438-.88.695 1.253-1.033 2.036-2.284 2.435-3.62.313-.259.612-.505.88-.697-.4 1.337-1.182 2.588-2.435 3.622"/><path d="M66.663 105.778a17.33 17.33 0 0 0-.88.696c.874-2.93.018-6.37-2.014-8.638.314-.258.613-.505.88-.696 2.032 2.268 2.888 5.709 2.014 8.638"/><path d="M64.65 97.14a17.33 17.33 0 0 0-.88.696c-4.313-4.815-13.04-5.62-18.217-1.937.313-.258.612-.505.88-.696 5.176-3.683 13.904-2.878 18.217 1.937"/><path d="M46.433 95.203c-.268.191-.567.438-.88.696l-.032.022c.313-.257.612-.504.88-.695l.032-.023"/><path d="M46.401 95.226c-.268.191-.567.438-.88.695-.127.091-.251.185-.373.281.313-.258.612-.504.88-.696.122-.096.246-.19.373-.28"/><path d="M46.392 95.233c-.266.19-.562.434-.871.688-.127.091-.251.185-.373.281.187-.155.37-.306.545-.443.22-.173.451-.35.699-.526M46.392 95.233a19.471 19.471 0 0 1 0 0"/><path d="M46.028 95.506c-.268.192-.567.438-.88.696l-.031.024c.313-.257.612-.504.88-.695l.03-.025"/><path d="M45.693 95.76c-.175.136-.358.287-.545.442l-.031.024c.172-.141.34-.28.5-.407l.076-.06M45.693 95.76a9.087 9.087 0 0 1 0 0"/><path d="M45.997 95.53c-.268.192-.567.439-.88.696l-.073.059c.313-.258.612-.505.88-.696l.073-.058"/><path d="M45.617 95.82a36.089 36.089 0 0 0-.211.168m0 0 .21-.169"/><path d="M45.617 95.82a9.57 9.57 0 0 1 .38-.29l-.073.06c-.163.115-.337.252-.518.398m0 0 .21-.169"/><path d="M45.924 95.59c-.268.19-.567.437-.88.695-.039.03-.077.062-.115.093.313-.257.612-.504.88-.695l.115-.094"/><path d="M45.406 95.988a52.095 52.095 0 0 0-.33.27m0 0c.102-.084.212-.175.33-.27"/><path d="M45.406 95.988c.181-.146.355-.283.518-.399l-.115.094c-.226.161-.474.362-.734.575m0 0 .33-.27"/><path d="M45.809 95.683c-.268.191-.567.438-.88.695l-.042.035c.313-.258.613-.505.88-.696l.042-.034"/><path d="M45.767 95.717c-.267.191-.567.438-.88.696-6.889 5.69-9.971 16.273-5.147 23.83.313-.259.613-.505.88-.696-4.824-7.557-1.742-18.14 5.147-23.83"/><path d="M40.62 119.547c-.267.19-.567.437-.88.695 4.743 7.428 9.353 10.516 18.508 10.933.313-.258.612-.504.88-.696-9.154-.417-13.765-3.505-18.507-10.932"/><path d="M59.128 130.48a17.33 17.33 0 0 0-.88.695c.63.029 1.156-.155 2.141-.859.313-.258.613-.504.88-.696-.985.704-1.51.888-2.141.86M61.27 129.62a17.33 17.33 0 0 0 0 0"/><path d="M61.276 129.616a17.33 17.33 0 0 0-.88.695c.123-.088.254-.184.393-.29.313-.257.612-.504.88-.695-.139.105-.27.201-.393.29"/><path d="M61.275 129.617c-.268.19-.567.437-.88.694.124-.088.255-.184.394-.29.251-.206.494-.406.719-.576m0 0c-.085.064-.162.12-.233.172"/><path d="m61.275 129.617.001-.001a18.274 18.274 0 0 0 .232-.171m0 0c-.085.064-.162.12-.233.172M63.048 109.933c-.325.267-.63.516-.858.744a9.732 9.732 0 0 0 2.002-1.248c.227-.227.533-.477.859-.743a9.732 9.732 0 0 1-2.003 1.247M65.05 108.686a12.235 12.235 0 0 0 0 0"/><path d="M65.062 108.677c-.326.266-.632.516-.859.743l.172-.144c.227-.227.532-.477.858-.743a8.414 8.414 0 0 1-.171.144M65.233 108.533a12.235 12.235 0 0 0 0 0"/><path d="M65.244 108.523c-.326.267-.631.516-.859.744.146-.126.284-.255.416-.387.227-.227.533-.477.859-.743-.132.131-.271.26-.416.386"/><path d="M64.707 108.97a6.242 6.242 0 0 0-.322.297 8.095 8.095 0 0 0 .419-.39c-.069.069-.108.103-.097.094"/><path d="M64.707 108.97c.164-.142.347-.291.537-.447.145-.126.284-.255.416-.386-.325.265-.63.514-.856.74-.069.069-.108.103-.097.094"/><path d="M65.66 108.137a12.235 12.235 0 0 0-.85.733 12.235 12.235 0 0 1 .85-.733"/><path d="M65.67 108.127c-.327.266-.632.516-.86.743a7.29 7.29 0 0 0 1.853-3.092c.227-.227.532-.476.858-.743a7.29 7.29 0 0 1-1.852 3.092"/><path d="M67.521 105.035c-.326.267-.631.516-.858.743.874-2.93.018-6.37-2.013-8.638.227-.227.532-.477.858-.743 2.032 2.268 2.887 5.708 2.013 8.638"/><path d="M65.508 96.397c-.326.266-.631.516-.858.743-4.458-4.977-13.632-5.67-18.726-1.55.227-.228.532-.478.858-.744 5.095-4.119 14.269-3.426 18.726 1.55"/><path d="M46.782 94.846c-.326.266-.63.516-.858.743l-.059.048a12.235 12.235 0 0 1 .917-.79"/><path d="M46.723 94.894c-.325.266-.63.516-.858.743l-.042.034a12.235 12.235 0 0 1 .9-.777"/><path d="M46.682 94.928c-.326.266-.632.516-.859.743-.127.105-.254.211-.379.32.227-.228.533-.478.858-.744.126-.108.252-.214.38-.319"/><path d="M46.552 95.034c-.277.227-.532.44-.729.637-.127.105-.254.211-.379.32.1-.1.214-.205.34-.312.286-.247.546-.463.768-.645"/><path d="m46.552 95.034.13-.106c-.128.105-.254.211-.38.319-.182.15-.359.294-.519.432.287-.247.547-.463.769-.645"/><path d="M46.302 95.247c-.325.266-.63.516-.858.743l-.04.036c.226-.228.532-.477.858-.744l.04-.035"/><path d="M45.783 95.679c-.125.107-.24.211-.339.311l-.04.036c.093-.094.2-.192.316-.293m0 0 .063-.054"/><path d="M45.783 95.679c.16-.138.337-.283.52-.432l-.041.035c-.192.157-.376.307-.542.451m0 0 .063-.054"/><path d="M46.262 95.282c-.326.267-.632.516-.859.744-.345.3-.68.612-1.006.936.228-.227.533-.477.859-.743.325-.324.66-.637 1.006-.937"/><path d="M45.72 95.733a6.208 6.208 0 0 0-.317.293 19.88 19.88 0 0 0-1.002.932m0 0c.467-.466.912-.871 1.32-1.225"/><path d="M45.72 95.733c.166-.144.35-.294.542-.45-.346.3-.681.612-1.006.936-.324.265-.628.513-.855.74m0 0c.467-.467.912-.872 1.32-1.226"/><path d="M45.256 96.219a12.235 12.235 0 0 0-.897.781c.227-.227.533-.477.859-.743a20.2 20.2 0 0 1 .038-.038"/><path d="M45.218 96.257c-.326.266-.632.516-.859.743-5.879 5.895-8.22 15.527-3.738 22.547.227-.228.532-.477.858-.743-4.482-7.02-2.14-16.652 3.739-22.547"/><path d="M41.479 118.804c-.326.266-.631.515-.858.743 4.742 7.427 9.353 10.515 18.507 10.932.227-.227.532-.476.858-.743-9.154-.417-13.764-3.505-18.507-10.932"/><path d="M59.986 129.736c-.326.267-.63.516-.858.743.711.033 1.288-.205 2.541-1.153.227-.227.533-.477.858-.743-1.253.948-1.83 1.186-2.54 1.153M64.968 107.158c.28.978-.917 1.956-1.92 2.775a9.732 9.732 0 0 0 2.003-1.247c1.002-.82 2.199-1.797 1.919-2.776a9.732 9.732 0 0 1-2.002 1.248"/><path d="M66.97 105.91c.28.979-.917 1.957-1.92 2.776l.012-.01c1.002-.818 2.199-1.796 1.92-2.775a8.515 8.515 0 0 1-.012.01"/><path d="M66.981 105.901c.28.979-.917 1.957-1.92 2.776a7.752 7.752 0 0 0 1.472-1.583c1.002-.82 2.2-1.798 1.92-2.776a7.752 7.752 0 0 1-1.472 1.583"/><path d="m65.165 108.592-.103.085a7.752 7.752 0 0 0 1.471-1.583c.586-.479 1.238-1.012 1.623-1.568m0 0c-.944 1.362-2.118 2.351-2.99 3.066"/><path d="M65.165 108.592c.98-.801 2.086-1.746 1.816-2.69a7.752 7.752 0 0 0 1.472-1.584c.116.407-.023.813-.297 1.208m0 0c-.944 1.362-2.118 2.351-2.99 3.066"/><path d="M68.453 104.318c.28.978-.918 1.957-1.92 2.776l.008-.01c1.002-.82 2.198-1.798 1.919-2.776a7.302 7.302 0 0 1-.007.01"/><path d="M68.156 105.526c-.385.556-1.037 1.089-1.623 1.568l.008-.01c.587-.48 1.24-1.016 1.626-1.573m0 0-.01.015"/><path d="M68.156 105.526c.274-.395.413-.801.297-1.208l.007-.01c.116.405-.022.81-.293 1.203m0 0-.01.015"/><path d="M68.46 104.308c.28.978-.917 1.956-1.92 2.775a7.23 7.23 0 0 0 .981-2.048c1.002-.819 2.199-1.797 1.92-2.775a7.23 7.23 0 0 1-.981 2.048"/><path d="M68.167 105.511c-.385.557-1.04 1.092-1.626 1.572a7.23 7.23 0 0 0 .98-2.048c.782-.638 1.681-1.374 1.907-2.13m0 0a9.21 9.21 0 0 1-1.261 2.606"/><path d="M68.167 105.511c.271-.393.409-.798.293-1.203a7.23 7.23 0 0 0 .98-2.048c.062.215.052.43-.012.644m0 0a9.21 9.21 0 0 1-1.261 2.607"/><path d="M69.44 102.26c.28.978-.917 1.956-1.919 2.775.477-1.6.439-3.352-.025-4.982 1.002-.82 2.199-1.798 1.92-2.776.463 1.63.502 3.383.024 4.983"/><path d="M69.428 102.904c-.226.757-1.125 1.493-1.907 2.131.477-1.6.439-3.352-.025-4.982 1.002-.82 2.198-1.797 1.92-2.775m0 0c.506 1.781.573 3.748.012 5.626"/><path d="M69.428 102.904c.064-.213.074-.429.012-.644.478-1.6.44-3.352-.025-4.983v.001m0 0c.507 1.781.574 3.748.013 5.626"/><path d="M69.415 97.277c.28.978-.917 1.957-1.92 2.776a9.737 9.737 0 0 0-.004-.018c1.002-.82 2.199-1.797 1.92-2.776 0 .006.003.012.004.018"/><path d="M69.41 97.26c.28.978-.917 1.956-1.92 2.775-.386-1.349-1.064-2.613-1.982-3.638 1.002-.82 2.199-1.797 1.92-2.776.918 1.025 1.595 2.29 1.982 3.638"/><path d="M67.427 93.621c.28.979-.917 1.957-1.919 2.776-4.457-4.977-13.631-5.67-18.726-1.55 1.002-.82 2.2-1.798 1.92-2.776 5.094-4.119 14.268-3.426 18.725 1.55"/><path d="M48.702 92.07c.28.979-.918 1.957-1.92 2.776l-.059.048c1.003-.82 2.2-1.797 1.92-2.776l.059-.047"/><path d="M48.643 92.118c.28.979-.917 1.957-1.92 2.776l-.041.034c1.002-.819 2.198-1.797 1.919-2.775l.042-.035"/><path d="M48.601 92.153c.28.978-.917 1.956-1.92 2.775a20.51 20.51 0 0 0-3.832 4.174c1.002-.82 2.198-1.797 1.919-2.775a20.51 20.51 0 0 1 3.833-4.174"/><path d="m46.816 94.818-.134.11a20.51 20.51 0 0 0-3.833 4.174c.585-.479 1.237-1.011 1.622-1.567 1.276-1.84 2.431-2.787 2.345-2.717"/><path d="M46.816 94.818c.971-.796 2.052-1.73 1.785-2.665a20.51 20.51 0 0 0-3.833 4.174c.116.406-.023.813-.297 1.208 1.276-1.84 2.431-2.787 2.345-2.717"/><path d="M44.768 96.327c.28.978-.917 1.956-1.92 2.775l-.03.045c1.002-.82 2.198-1.798 1.919-2.776l.03-.044"/><path d="M44.471 97.535c-.385.556-1.037 1.088-1.622 1.567l-.031.045c.587-.48 1.242-1.016 1.626-1.573l.027-.039"/><path d="M44.471 97.535c.274-.395.413-.802.297-1.208l-.031.044c.116.405-.021.81-.293 1.203l.027-.039"/><path d="M44.737 96.371c.28.978-.917 1.957-1.92 2.776-3.2 4.64-4.563 10.546-3.08 15.77 1.001-.82 2.198-1.798 1.919-2.776-1.483-5.223-.119-11.13 3.081-15.77"/><path d="M44.444 97.574c-.384.557-1.039 1.092-1.626 1.573-3.2 4.64-4.564 10.546-3.082 15.77 1.002-.82 2.198-1.797 1.92-2.774m0 0c-1.403-4.944-.036-10.474 2.788-14.57"/><path d="M44.444 97.574c.272-.394.409-.798.293-1.203-3.2 4.64-4.564 10.547-3.081 15.77v.002m0 0c-1.403-4.944-.036-10.474 2.788-14.57"/><path d="M41.656 112.14c.28.979-.918 1.957-1.92 2.776l.015.05c1.002-.818 2.199-1.797 1.92-2.775l-.015-.05"/><path d="M41.67 112.191c.28.978-.917 1.957-1.92 2.776a14.612 14.612 0 0 0 1.729 3.837c1.002-.82 2.199-1.798 1.92-2.776a14.612 14.612 0 0 1-1.729-3.837"/><path d="M43.398 116.028c.28.978-.917 1.956-1.919 2.776 4.743 7.427 9.353 10.515 18.507 10.932 1.002-.819 2.2-1.797 1.92-2.775-9.155-.418-13.765-3.505-18.508-10.933"/><path d="M61.906 126.96c.28.979-.918 1.957-1.92 2.776.712.033 1.288-.205 2.541-1.153 1.003-.82 2.2-1.797 1.92-2.775-1.254.947-1.83 1.185-2.541 1.153M62.846 107.917c.602-.176 1.263-.369 2.122-.759 2.488-1.177 3.89-2.946 4.472-4.898-.858.39-1.52.583-2.122.759-.582 1.952-1.984 3.721-4.472 4.898"/><path d="M67.318 103.019c.603-.176 1.264-.369 2.122-.76.875-2.929.019-6.37-2.013-8.638-.858.39-1.52.584-2.122.76 2.032 2.268 2.887 5.708 2.013 8.638"/><path d="M65.305 94.38c.603-.175 1.264-.368 2.122-.759-3.412-3.81-9.59-5.109-14.585-3.66-.858.39-1.52.583-2.122.759 4.995-1.45 11.172-.15 14.585 3.66"/><path d="M50.72 90.72c.603-.176 1.264-.369 2.122-.76a13.65 13.65 0 0 0-.039.012c-.858.39-1.52.583-2.122.76.013-.005.026-.008.04-.012"/><path d="M50.681 90.731c.603-.176 1.264-.368 2.122-.759-.242.071-.48.149-.717.233-.858.39-1.52.583-2.122.759.236-.084.475-.162.717-.233"/><path d="M49.964 90.964c.602-.176 1.264-.369 2.122-.76l-.038.014c-.859.39-1.52.583-2.122.76l.038-.014"/><path d="M51.083 90.61c.306-.108.636-.239 1.003-.405l-.038.013c-.352.16-.67.287-.966.393m0 0s0 0 0 0"/><path d="M51.083 90.61c-.41.147-.774.253-1.12.354l-.037.013c.355-.103.731-.213 1.156-.366 0 0 0 0 0 0"/><path d="M49.926 90.977c.602-.176 1.263-.368 2.122-.759-.318.115-.63.24-.934.379-.859.39-1.52.583-2.123.758.305-.138.617-.264.935-.378"/><path d="M51.082 90.611c.295-.106.614-.233.966-.393a12.604 12.604 0 0 0-.955.388m0 0-.01.005"/><path d="M51.082 90.611c-.425.153-.8.263-1.156.366-.318.114-.63.24-.935.378.598-.174 1.254-.365 2.102-.75l-.01.006"/><path d="M48.991 91.355c.603-.175 1.264-.368 2.123-.758l-.037.016c-.858.39-1.52.583-2.122.759l.036-.017"/><path d="M48.955 91.372c.602-.176 1.264-.369 2.122-.759-.856.391-1.657.876-2.375 1.458-.859.39-1.52.583-2.123.759a11.105 11.105 0 0 1 2.376-1.458"/><path d="M46.58 92.83c.602-.176 1.263-.37 2.122-.76-6.999 5.659-10.165 16.345-5.304 23.958-.858.39-1.52.583-2.122.759-4.861-7.613-1.695-18.3 5.303-23.957"/><path d="M41.276 116.787c.603-.176 1.264-.369 2.122-.759 4.743 7.428 9.353 10.515 18.508 10.933-.859.39-1.52.583-2.123.759-9.154-.418-13.764-3.505-18.507-10.933"/><path d="M59.783 127.72c.603-.176 1.264-.369 2.123-.76.246.012.477-.01.725-.081-.859.39-1.52.583-2.122.759a2.163 2.163 0 0 1-.726.082"/><path d="M60.509 127.638c.602-.176 1.263-.37 2.122-.76h.004c-.859.39-1.52.583-2.122.758l-.004.002"/><path d="M60.513 127.636c.602-.175 1.263-.368 2.122-.759.044-.012.088-.027.133-.043-.859.39-1.52.583-2.123.76-.045.015-.089.03-.132.042"/><path d="M60.637 127.6c.57-.167 1.198-.359 1.998-.723.044-.012.088-.027.133-.043-.364.166-.692.296-.996.404-.426.152-.8.264-1.135.362"/><path d="m60.637 127.6-.124.036c.043-.012.087-.027.132-.043.348-.101.714-.208 1.127-.355-.426.152-.8.264-1.135.362"/><path d="M60.645 127.593c.603-.176 1.264-.368 2.123-.759l.004-.001c-.859.39-1.52.583-2.122.759l-.005.001"/><path d="M61.772 127.238a12.656 12.656 0 0 0 .027-.01m0 0-.027.01"/><path d="M61.772 127.238c-.413.147-.78.254-1.127.355l.005-.001c.353-.103.727-.212 1.149-.364l-.027.01"/><path d="M60.65 127.592c.602-.176 1.263-.369 2.122-.76.071-.025.144-.054.22-.089-.86.39-1.52.584-2.123.76a2.902 2.902 0 0 1-.22.089"/><path d="M61.799 127.228c.297-.106.618-.234.973-.395a2.902 2.902 0 0 0 .21-.085m0 0c-.434.196-.824.352-1.183.48"/><path d="M61.799 127.228c-.422.152-.796.26-1.15.364.072-.026.145-.055.22-.09.6-.175 1.259-.367 2.113-.754m0 0c-.434.196-.824.352-1.183.48"/><path d="M60.869 127.502c.602-.175 1.264-.368 2.122-.759.002 0 .003 0 .005-.002-.859.39-1.52.583-2.122.76l-.005.001"/><path d="M60.874 127.5c.602-.176 1.263-.368 2.122-.759.385-.175.836-.469 1.45-.933-.858.39-1.519.583-2.121.758-.615.465-1.067.759-1.451.934M60.338 109.01c.964-.643 1.68-.852 2.508-1.093.473-.224.907-.47 1.303-.733-.827.241-1.543.45-2.507 1.093-.397.264-.83.51-1.304.733"/><path d="M61.284 108.47c.539-.255 1.027-.397 1.562-.553.473-.224.907-.47 1.303-.733-.825.24-1.54.45-2.501 1.089-.018.012-.14.091-.364.197"/><path d="M61.284 108.47a7.38 7.38 0 0 0-.946.54 10.288 10.288 0 0 0 1.31-.737c-.018.012-.14.091-.364.197"/><path d="M61.642 108.277c.964-.643 1.68-.852 2.507-1.093l.013-.008c-.827.24-1.543.45-2.508 1.093a9.377 9.377 0 0 1-.012.008"/><path d="M61.654 108.269c.965-.643 1.68-.852 2.508-1.093 1.68-1.123 2.686-2.58 3.156-4.157-.827.241-1.543.45-2.507 1.093-.47 1.577-1.476 3.034-3.157 4.157"/><path d="M64.81 104.112c.965-.643 1.681-.852 2.508-1.093.874-2.93.019-6.37-2.013-8.639-.827.242-1.543.45-2.507 1.093 2.031 2.269 2.887 5.709 2.013 8.639"/><path d="M62.798 95.473c.964-.642 1.68-.851 2.507-1.093-3.413-3.81-9.59-5.11-14.585-3.66-.827.241-1.543.45-2.507 1.093 4.994-1.45 11.172-.15 14.585 3.66"/><path d="M48.213 91.813c.964-.643 1.68-.852 2.507-1.093a13.65 13.65 0 0 0-.039.011c-.827.241-1.543.45-2.507 1.093l.039-.011"/><path d="M48.174 91.824c.964-.643 1.68-.852 2.507-1.093-.52.153-1.026.335-1.515.547-.827.241-1.543.45-2.508 1.093.49-.212.996-.394 1.516-.547"/><path d="m50.532 90.775.15-.044c-.52.153-1.027.335-1.516.547-.469.137-.902.263-1.365.464m0 0a22.7 22.7 0 0 1 2.731-.967"/><path d="M50.532 90.775c-.765.224-1.452.445-2.358 1.05-.52.152-1.026.334-1.516.546a7.195 7.195 0 0 1 1.143-.629m0 0a22.7 22.7 0 0 1 2.731-.967"/><path d="M46.658 92.371c.965-.643 1.68-.852 2.508-1.093l-.037.016c-.827.241-1.543.45-2.507 1.093l.036-.016"/><path d="M47.8 91.742c.464-.2.897-.327 1.366-.464l-.037.016c-.475.139-.914.267-1.385.473m0 0 .057-.025"/><path d="M47.8 91.742c-.353.154-.724.35-1.142.629l-.036.016a7.21 7.21 0 0 1 1.122-.62m0 0 .057-.025"/><path d="M46.622 92.387c.964-.643 1.68-.852 2.507-1.093-.616.27-1.205.588-1.756.954-.827.241-1.543.45-2.508 1.093.552-.366 1.14-.684 1.757-.954"/><path d="M47.744 91.767c.47-.206.91-.334 1.385-.473-.616.27-1.205.588-1.756.954-.823.24-1.537.448-2.494 1.084m0 0c.907-.602 1.85-1.12 2.865-1.565"/><path d="M47.744 91.767a7.21 7.21 0 0 0-1.122.62 11.537 11.537 0 0 0-1.743.945m0 0c.907-.602 1.85-1.12 2.865-1.565"/><path d="M44.865 93.34c.965-.642 1.68-.85 2.508-1.092l-.033.022c-.827.241-1.543.45-2.508 1.093l.033-.022"/><path d="M44.832 93.363c.965-.643 1.681-.852 2.508-1.093-.262.175-.516.362-.76.56-.828.24-1.544.45-2.508 1.093.244-.198.498-.385.76-.56"/><path d="M44.072 93.923c.964-.643 1.68-.852 2.507-1.093-6.998 5.658-10.164 16.344-5.303 23.957-.827.241-1.543.45-2.507 1.093-4.862-7.613-1.696-18.3 5.303-23.957"/><path d="M38.769 117.88c.964-.643 1.68-.852 2.507-1.093 4.743 7.428 9.353 10.515 18.507 10.933-.827.24-1.543.45-2.507 1.093-9.154-.418-13.764-3.505-18.507-10.933"/><path d="M57.276 128.813c.964-.643 1.68-.852 2.507-1.093.247.01.477-.01.726-.082-.827.24-1.544.45-2.508 1.093a2.163 2.163 0 0 1-.725.082"/><path d="M58.001 128.73c.964-.642 1.68-.851 2.508-1.092l.004-.002c-.827.242-1.543.45-2.508 1.093l-.004.002"/><path d="M58.005 128.73c.965-.644 1.68-.852 2.508-1.094.1-.029.202-.066.31-.113-.827.241-1.543.45-2.507 1.093-.108.047-.21.084-.31.113"/><path d="M58.316 128.616c.964-.643 1.68-.852 2.507-1.093l.005-.002c-.827.241-1.544.45-2.508 1.093l-.004.002"/><path d="M58.32 128.614c.964-.643 1.68-.852 2.508-1.093.232-.102.489-.247.791-.449-.827.241-1.543.45-2.507 1.093a5.229 5.229 0 0 1-.792.449"/><path d="M59.112 128.165c.964-.643 1.68-.852 2.507-1.093a9.44 9.44 0 0 0 .006-.004c-.827.241-1.543.45-2.507 1.093a9.44 9.44 0 0 1-.006.004"/><path d="M59.118 128.161c.964-.643 1.68-.852 2.507-1.093.209-.14.44-.305.7-.502-.827.242-1.544.45-2.508 1.093-.26.197-.49.363-.7.502M58.116 112.343c-.37-1.296.185-2.222 2.222-3.333.19-.09.375-.184.553-.28-2.038 1.11-2.593 2.037-2.223 3.333-.178.097-.362.19-.552.28"/><path d="M58.668 112.063c-.37-1.296.185-2.222 2.223-3.334l.013-.007c-2.037 1.111-2.592 2.037-2.222 3.333l-.014.008"/><path d="M58.682 112.055c-.37-1.296.185-2.222 2.222-3.333 1.33-.727 2.31-1.637 2.989-2.654-2.037 1.11-2.593 2.037-2.223 3.333-.68 1.017-1.658 1.928-2.988 2.654"/><path d="m60.895 108.727.01-.005c1.329-.727 2.308-1.637 2.988-2.654-1.005.548-1.65 1.05-2 1.576-.555.83-1.14 1.16-.998 1.083"/><path d="M60.895 108.727c-2.03 1.109-2.583 2.034-2.213 3.328 1.33-.726 2.309-1.637 2.988-2.654-.187-.657-.137-1.219.223-1.757-.555.83-1.14 1.16-.998 1.083"/><path d="M61.67 109.4c-.37-1.295.186-2.221 2.223-3.332l.007-.011c-2.037 1.111-2.593 2.037-2.222 3.333a7.274 7.274 0 0 1-.008.01"/><path d="M61.893 107.644c.35-.525.995-1.028 2-1.576l.007-.011c-1.007.55-1.652 1.053-2.002 1.58a4.947 4.947 0 0 1-.005.007"/><path d="M61.893 107.644c-.36.538-.41 1.1-.223 1.757l.008-.01c-.188-.656-.138-1.217.22-1.755a4.947 4.947 0 0 1-.005.008"/><path d="M61.678 109.39c-.37-1.296.185-2.222 2.222-3.333.41-.615.71-1.27.91-1.945-2.036 1.11-2.592 2.037-2.221 3.333a7.231 7.231 0 0 1-.911 1.945"/><path d="M61.898 107.636c.35-.526.995-1.03 2.002-1.58.41-.614.71-1.268.91-1.944-1.337.73-2.036 1.38-2.253 2.107m0 0a5.277 5.277 0 0 1-.66 1.417"/><path d="M61.898 107.636c-.358.538-.408 1.099-.22 1.754.409-.615.709-1.269.91-1.945-.127-.445-.145-.846-.031-1.226m0 0a5.277 5.277 0 0 1-.66 1.417"/><path d="M62.589 107.445c-.37-1.296.185-2.222 2.222-3.333.477-1.6.439-3.352-.025-4.983-2.038 1.111-2.593 2.037-2.223 3.334.464 1.63.503 3.382.026 4.982"/><path d="M62.557 106.22c.217-.728.916-1.378 2.254-2.108.477-1.6.439-3.352-.025-4.983-2.036 1.11-2.592 2.036-2.224 3.33m0 0c.31 1.089.383 2.46-.005 3.76"/><path d="M62.557 106.22c-.114.38-.096.78.032 1.225.477-1.6.438-3.352-.026-4.982v-.004m0 0c.31 1.089.382 2.46-.006 3.76"/><path d="M62.563 102.463c-.37-1.297.185-2.223 2.223-3.334a9.737 9.737 0 0 0-.006-.018c-2.037 1.111-2.592 2.037-2.222 3.334l.005.018"/><path d="M62.558 102.445c-.37-1.297.185-2.223 2.222-3.334-.386-1.348-1.064-2.613-1.982-3.638-2.037 1.111-2.593 2.037-2.223 3.334.919 1.025 1.596 2.29 1.983 3.638"/><path d="M60.575 98.807c-.37-1.297.186-2.223 2.223-3.334-4.012-4.48-11.846-5.488-17.086-2.641-2.037 1.11-2.592 2.037-2.222 3.333 5.24-2.847 13.073-1.838 17.085 2.642"/><path d="M43.49 96.165c-.37-1.296.185-2.222 2.222-3.333l-.035.019c-2.037 1.11-2.592 2.037-2.222 3.333l.035-.019"/><path d="M43.455 96.184c-.37-1.296.185-2.222 2.222-3.333-.568.311-1.106.668-1.605 1.072-2.037 1.11-2.593 2.037-2.222 3.333.498-.403 1.036-.76 1.605-1.072"/><path d="m45.655 92.863.022-.012c-.568.311-1.106.668-1.605 1.072-.532.29-.962.567-1.302.842m0 0c.891-.721 1.863-1.343 2.885-1.902"/><path d="M45.655 92.863c-2.019 1.105-2.569 2.03-2.2 3.321-.569.312-1.107.669-1.605 1.072-.274-.958-.042-1.714.92-2.491m0 0c.891-.721 1.863-1.343 2.885-1.902"/><path d="M41.85 97.256c-.37-1.296.185-2.222 2.222-3.333a20.544 20.544 0 0 0-4.139 4.557c-2.037 1.11-2.592 2.037-2.222 3.333a20.544 20.544 0 0 1 4.139-4.557"/><path d="M42.77 94.765c.34-.275.77-.552 1.302-.842a20.544 20.544 0 0 0-4.139 4.557c-1.004.547-1.649 1.05-2 1.575m0 0a23.834 23.834 0 0 1 4.837-5.29"/><path d="M42.77 94.765c-.962.777-1.194 1.533-.92 2.49a20.544 20.544 0 0 0-4.14 4.558c-.187-.657-.137-1.219.224-1.758m0 0a23.834 23.834 0 0 1 4.836-5.29"/><path d="M37.71 101.813c-.37-1.296.186-2.222 2.223-3.333l-.03.045c-2.037 1.11-2.593 2.037-2.222 3.333l.03-.045"/><path d="M37.934 100.055c.35-.525.995-1.028 2-1.575l-.031.045c-1.008.55-1.653 1.054-2.003 1.58l.034-.05"/><path d="M37.934 100.055c-.36.539-.41 1.1-.223 1.758l-.03.045c-.187-.655-.138-1.215.22-1.753.01-.017.022-.033.033-.05"/><path d="M37.68 101.858c-.37-1.296.186-2.222 2.223-3.333-3.053 4.592-4.328 10.357-2.877 15.468-2.037 1.11-2.593 2.037-2.222 3.333-1.45-5.11-.176-10.876 2.877-15.468"/><path d="M37.9 100.105c.35-.526.995-1.03 2.003-1.58-3.053 4.592-4.328 10.357-2.877 15.468-2.034 1.11-2.591 2.034-2.224 3.327m0 0c-1.75-6.168-.076-12.44 3.098-17.215"/><path d="M37.9 100.105c-.357.538-.406 1.098-.22 1.753-3.052 4.592-4.327 10.358-2.876 15.468l-.002-.006m0 0c-1.75-6.168-.076-12.44 3.098-17.215"/><path d="M34.804 117.326c-.37-1.296.185-2.222 2.222-3.333l.014.05c-2.037 1.111-2.592 2.037-2.222 3.333l-.014-.05"/><path d="M34.818 117.376c-.37-1.296.185-2.222 2.222-3.333a14.612 14.612 0 0 0 1.729 3.837c-2.037 1.111-2.593 2.037-2.223 3.333a14.612 14.612 0 0 1-1.728-3.837"/><path d="M36.546 121.213c-.37-1.296.186-2.222 2.223-3.333 4.743 7.428 9.353 10.515 18.507 10.933-2.037 1.11-2.593 2.037-2.222 3.333-9.155-.417-13.765-3.505-18.508-10.933"/><path d="M55.054 132.146c-.37-1.296.185-2.222 2.222-3.333.435.02.82-.062 1.34-.345-2.037 1.11-2.592 2.037-2.222 3.333-.52.283-.905.365-1.34.345"/><path d="M56.394 131.801c-.37-1.296.185-2.222 2.222-3.333l.006-.003c-2.037 1.111-2.593 2.037-2.223 3.333l-.005.003"/><path d="M56.4 131.798c-.371-1.296.185-2.222 2.222-3.333.328-.18.711-.44 1.195-.806-2.037 1.112-2.593 2.037-2.222 3.334-.484.366-.867.626-1.196.805"/><path d="m58.614 128.47.008-.005c.328-.18.711-.44 1.195-.806-.46.251-.844.493-1.16.73m0 0c-.196.15-.293.217-.043.08"/><path d="M58.614 128.47c-2.03 1.108-2.585 2.034-2.215 3.328.33-.18.712-.44 1.196-.805-.287-1.004-.019-1.786 1.063-2.603m0 0c-.197.149-.294.216-.044.08"/><g class="annot" fill="none" stroke="#0804" stroke-width=".1"><path d="M61.31 111.372c-1.203.99-2.606 2.147-3.194.971a9.712 9.712 0 0 0 2.027-1.268c.587 1.176 1.991.02 3.194-.97-.575.472-1.248.899-2.027 1.267"/><path d="M59.504 112.66c-.584.276-1.09.278-1.388-.317a9.712 9.712 0 0 0 2.027-1.268c.569 1.138 1.902.092 3.077-.875m0 0c-.937.77-2.092 1.692-3.716 2.46"/><path d="M59.504 112.66c.57-.27 1.212-.799 1.806-1.288a9.712 9.712 0 0 0 1.91-1.172m0 0c-.937.77-2.092 1.692-3.716 2.46"/><path d="M63.337 110.104c-1.203.99-2.607 2.147-3.194.971l.01-.009c.588 1.176 1.992.02 3.195-.97a8.488 8.488 0 0 1-.011.008"/><path d="M63.348 110.095c-1.203.99-2.607 2.147-3.194.971 1.253-1.033 2.036-2.284 2.435-3.62.587 1.175 1.991.018 3.194-.972-.4 1.337-1.182 2.588-2.435 3.621"/><path d="M65.783 106.474c-1.203.99-2.607 2.147-3.194.971.645-2.164.347-4.608-.672-6.651.588 1.176 1.991.02 3.194-.971 1.02 2.043 1.317 4.486.672 6.651"/><path d="M65.11 99.823c-1.202.99-2.605 2.147-3.193.971a9.494 9.494 0 0 0-.008-.017c.587 1.176 1.991.02 3.194-.97l.008.016"/><path d="M65.103 99.806c-1.203.99-2.607 2.147-3.194.971a8.995 8.995 0 0 0-1.334-1.97c.588 1.175 1.992.019 3.194-.971a8.995 8.995 0 0 1 1.334 1.97"/><path d="m61.91 100.779-.001-.002a8.995 8.995 0 0 0-1.334-1.97c.05.099.105.18.165.248m0 0c.474.53.865 1.117 1.17 1.724"/><path d="M61.91 100.779c.587 1.173 1.99.017 3.193-.973a8.995 8.995 0 0 0-1.334-1.97c-1.1.907-2.371 1.953-3.029 1.22.474.528.865 1.116 1.17 1.723"/><path d="M63.77 97.836c-1.203.99-2.607 2.146-3.195.97-3.446-3.847-9.712-5.134-14.732-3.616.588 1.175 1.992.02 3.194-.971 5.02-1.518 11.286-.231 14.732 3.617"/><path d="M60.74 99.055a1.12 1.12 0 0 1-.165-.248c-3.446-3.848-9.712-5.135-14.732-3.617.244.488.628.574 1.08.437m0 0c4.55-1.375 10.567-.2 13.817 3.428"/><path d="M60.74 99.055c.658.734 1.928-.312 3.03-1.22-3.447-3.847-9.713-5.134-14.733-3.616-.703.58-1.476 1.215-2.113 1.408m0 0c4.549-1.375 10.566-.2 13.816 3.428"/><path d="M49.037 94.219c-1.202.99-2.606 2.146-3.194.97a13.53 13.53 0 0 0-.039.013c.588 1.175 1.992.019 3.194-.971l.039-.012"/><path d="M46.924 95.627c-.453.137-.837.05-1.081-.437a13.53 13.53 0 0 0-.039.012c.245.49.631.574 1.086.435l.034-.01"/><path d="M46.924 95.627c.637-.193 1.41-.829 2.113-1.408a13.53 13.53 0 0 0-.039.012c-.702.577-1.472 1.212-2.108 1.406l.034-.01"/><path d="M48.998 94.23c-1.202.99-2.606 2.147-3.194.972-1.458.445-2.81 1.128-3.954 2.054.587 1.175 1.991.02 3.194-.971 1.145-.926 2.496-1.609 3.954-2.054"/><path d="M46.89 95.637c-.455.14-.841.054-1.086-.435-1.458.445-2.81 1.128-3.954 2.054.525 1.05 1.703.238 2.805-.653m0 0c-.23.186.581-.46 2.235-.966"/><path d="M46.89 95.637c.636-.194 1.406-.829 2.108-1.406-1.458.445-2.809 1.128-3.954 2.054l-.389.318m0 0c-.23.186.581-.46 2.235-.966"/><path d="M45.044 96.285c-1.203.99-2.607 2.146-3.194.97l-.115.095c.588 1.175 1.991.019 3.194-.972l.115-.093"/><path d="M44.929 96.378c-1.203.99-2.606 2.147-3.194.972-.014.01-.028.022-.042.034.588 1.175 1.992.02 3.194-.971l.042-.035"/><path d="M44.887 96.413c-1.202.99-2.606 2.146-3.194.97-6.49 5.361-9.601 15.064-5.907 22.488.588 1.175 1.992.019 3.195-.971-3.695-7.424-.584-17.127 5.906-22.487"/><path d="M38.98 118.9c-1.202.99-2.606 2.146-3.194.97l.024.048c.588 1.176 1.992.02 3.194-.97a14.508 14.508 0 0 1-.023-.048"/><path d="M39.004 118.947c-1.202.99-2.606 2.147-3.194.971.221.44.467.873.736 1.295.588 1.176 1.992.02 3.194-.97-.27-.423-.515-.856-.736-1.296"/><path d="M35.811 119.92v-.002c.22.44.466.873.735 1.295.022.043.044.082.067.119m0 0a15.785 15.785 0 0 1-.802-1.411"/><path d="M35.811 119.92c.589 1.172 1.992.017 3.193-.973.221.44.467.873.736 1.295-1.159.955-2.505 2.064-3.127 1.09m0 0a15.785 15.785 0 0 1-.802-1.411"/><path d="M39.74 120.242c-1.202.99-2.606 2.147-3.194.971 4.743 7.428 9.353 10.516 18.508 10.933.587 1.176 1.991.02 3.194-.971-9.155-.417-13.765-3.505-18.508-10.933"/><path d="M36.613 121.332a1.298 1.298 0 0 1-.067-.119c4.743 7.428 9.353 10.516 18.508 10.933.168.337.404.482.682.495m0 0c-9.421-.43-14.224-3.637-19.123-11.31"/><path d="M36.613 121.332c.622.974 1.968-.135 3.127-1.09 4.743 7.428 9.353 10.516 18.508 10.933-.858.707-1.819 1.498-2.512 1.466m0 0c-9.421-.43-14.224-3.637-19.123-11.31"/><path d="M58.248 131.175c-1.203.99-2.607 2.147-3.194.971a2.16 2.16 0 0 0 .75-.09c.588 1.176 1.991.02 3.194-.97a2.16 2.16 0 0 1-.75.089"/><path d="M55.736 132.641c-.278-.013-.514-.158-.682-.495a2.16 2.16 0 0 0 .75-.09c.244.489.629.575 1.081.438m0 0c-.432.13-.8.163-1.149.147"/><path d="M55.736 132.641c.693.032 1.654-.76 2.512-1.466a2.16 2.16 0 0 0 .75-.09c-.703.58-1.475 1.215-2.113 1.409m0 0c-.432.13-.8.163-1.149.147"/><path d="M58.998 131.085c-1.203.99-2.606 2.147-3.194.972l.004-.002c.588 1.176 1.992.02 3.194-.97h-.004"/><path d="M56.885 132.494c-.452.137-.837.05-1.081-.437l.004-.002c.245.49.63.575 1.085.436m0 0-.008.003"/><path d="M56.885 132.494c.638-.194 1.41-.83 2.113-1.409h.004c-.702.577-1.472 1.212-2.11 1.406m0 0-.007.003"/><path d="M59.002 131.084c-1.202.99-2.606 2.147-3.194.971.46-.14.985-.456 1.787-1.062.588 1.175 1.991.019 3.194-.971-.802.606-1.327.922-1.787 1.062"/><path d="M56.893 132.491c-.454.139-.84.053-1.085-.436.46-.14.985-.456 1.787-1.062.455.91 1.401.421 2.364-.306m0 0c-1.256.95-2.218 1.546-3.066 1.804"/><path d="M56.893 132.491c.637-.194 1.407-.829 2.11-1.407.46-.14.984-.456 1.786-1.062-.27.222-.551.454-.83.665m0 0c-1.256.95-2.218 1.546-3.066 1.804M62.19 110.677c-.268.19-.567.437-.88.695.573-.27 1.088-.573 1.549-.901.313-.258.612-.505.88-.696-.461.329-.976.63-1.549.902"/><path d="M63.739 109.775c-.268.191-.567.438-.88.696l.012-.009c.313-.258.612-.504.88-.696a9.058 9.058 0 0 1-.012.009"/><path d="M63.75 109.766c-.267.192-.566.438-.88.696.114-.082.225-.165.332-.25.313-.257.613-.504.88-.695a8.843 8.843 0 0 1-.331.25"/><path d="M63.747 109.77c-.267.19-.565.435-.876.692.113-.082.224-.165.331-.25.184-.15.363-.298.533-.432m0 0c.033-.026.024-.02.012-.01"/><path d="M63.747 109.77a8.843 8.843 0 0 0 .336-.252c-.111.078-.227.167-.348.262m0 0c.033-.026.024-.02.012-.01"/><path d="M64.082 109.517c-.267.191-.567.438-.88.696a8.64 8.64 0 0 0 .012-.01c.313-.257.612-.504.88-.695a8.64 8.64 0 0 1-.012.01"/><path d="M64.094 109.508c-.268.191-.567.438-.88.696l.123-.1c.313-.257.612-.504.88-.695l-.123.1"/><path d="M64.217 109.409c-.268.191-.567.438-.88.695l.01-.009c.314-.257.613-.504.88-.695a8.488 8.488 0 0 1-.01.009"/><path d="M64.228 109.4c-.268.191-.567.438-.88.695 1.253-1.033 2.036-2.284 2.435-3.62.313-.259.612-.505.88-.697-.4 1.337-1.182 2.588-2.435 3.622"/><path d="M66.663 105.778a17.33 17.33 0 0 0-.88.696c.874-2.93.018-6.37-2.014-8.638.314-.258.613-.505.88-.696 2.032 2.268 2.888 5.709 2.014 8.638"/><path d="M64.65 97.14a17.33 17.33 0 0 0-.88.696c-4.313-4.815-13.04-5.62-18.217-1.937.313-.258.612-.505.88-.696 5.176-3.683 13.904-2.878 18.217 1.937"/><path d="M46.433 95.203c-.268.191-.567.438-.88.696l-.032.022c.313-.257.612-.504.88-.695l.032-.023"/><path d="M46.401 95.226c-.268.191-.567.438-.88.695-.127.091-.251.185-.373.281.313-.258.612-.504.88-.696.122-.096.246-.19.373-.28"/><path d="M46.392 95.233c-.266.19-.562.434-.871.688-.127.091-.251.185-.373.281.187-.155.37-.306.545-.443.22-.173.451-.35.699-.526M46.392 95.233a19.471 19.471 0 0 1 0 0"/><path d="M46.028 95.506c-.268.192-.567.438-.88.696l-.031.024c.313-.257.612-.504.88-.695l.03-.025"/><path d="M45.693 95.76c-.175.136-.358.287-.545.442l-.031.024c.172-.141.34-.28.5-.407l.076-.06M45.693 95.76a9.087 9.087 0 0 1 0 0"/><path d="M45.997 95.53c-.268.192-.567.439-.88.696l-.073.059c.313-.258.612-.505.88-.696l.073-.058"/><path d="M45.617 95.82a36.089 36.089 0 0 0-.211.168m0 0 .21-.169"/><path d="M45.617 95.82a9.57 9.57 0 0 1 .38-.29l-.073.06c-.163.115-.337.252-.518.398m0 0 .21-.169"/><path d="M45.924 95.59c-.268.19-.567.437-.88.695-.039.03-.077.062-.115.093.313-.257.612-.504.88-.695l.115-.094"/><path d="M45.406 95.988a52.095 52.095 0 0 0-.33.27m0 0c.102-.084.212-.175.33-.27"/><path d="M45.406 95.988c.181-.146.355-.283.518-.399l-.115.094c-.226.161-.474.362-.734.575m0 0 .33-.27"/><path d="M45.809 95.683c-.268.191-.567.438-.88.695l-.042.035c.313-.258.613-.505.88-.696l.042-.034"/><path d="M45.767 95.717c-.267.191-.567.438-.88.696-6.889 5.69-9.971 16.273-5.147 23.83.313-.259.613-.505.88-.696-4.824-7.557-1.742-18.14 5.147-23.83"/><path d="M40.62 119.547c-.267.19-.567.437-.88.695 4.743 7.428 9.353 10.516 18.508 10.933.313-.258.612-.504.88-.696-9.154-.417-13.765-3.505-18.507-10.932"/><path d="M59.128 130.48a17.33 17.33 0 0 0-.88.695c.63.029 1.156-.155 2.141-.859.313-.258.613-.504.88-.696-.985.704-1.51.888-2.141.86M61.27 129.62a17.33 17.33 0 0 0 0 0"/><path d="M61.276 129.616a17.33 17.33 0 0 0-.88.695c.123-.088.254-.184.393-.29.313-.257.612-.504.88-.695-.139.105-.27.201-.393.29"/><path d="M61.275 129.617c-.268.19-.567.437-.88.694.124-.088.255-.184.394-.29.251-.206.494-.406.719-.576m0 0c-.085.064-.162.12-.233.172"/><path d="m61.275 129.617.001-.001a18.274 18.274 0 0 0 .232-.171m0 0c-.085.064-.162.12-.233.172M63.048 109.933c-.325.267-.63.516-.858.744a9.732 9.732 0 0 0 2.002-1.248c.227-.227.533-.477.859-.743a9.732 9.732 0 0 1-2.003 1.247M65.05 108.686a12.235 12.235 0 0 0 0 0"/><path d="M65.062 108.677c-.326.266-.632.516-.859.743l.172-.144c.227-.227.532-.477.858-.743a8.414 8.414 0 0 1-.171.144M65.233 108.533a12.235 12.235 0 0 0 0 0"/><path d="M65.244 108.523c-.326.267-.631.516-.859.744.146-.126.284-.255.416-.387.227-.227.533-.477.859-.743-.132.131-.271.26-.416.386"/><path d="M64.707 108.97a6.242 6.242 0 0 0-.322.297 8.095 8.095 0 0 0 .419-.39c-.069.069-.108.103-.097.094"/><path d="M64.707 108.97c.164-.142.347-.291.537-.447.145-.126.284-.255.416-.386-.325.265-.63.514-.856.74-.069.069-.108.103-.097.094"/><path d="M65.66 108.137a12.235 12.235 0 0 0-.85.733 12.235 12.235 0 0 1 .85-.733"/><path d="M65.67 108.127c-.327.266-.632.516-.86.743a7.29 7.29 0 0 0 1.853-3.092c.227-.227.532-.476.858-.743a7.29 7.29 0 0 1-1.852 3.092"/><path d="M67.521 105.035c-.326.267-.631.516-.858.743.874-2.93.018-6.37-2.013-8.638.227-.227.532-.477.858-.743 2.032 2.268 2.887 5.708 2.013 8.638"/><path d="M65.508 96.397c-.326.266-.631.516-.858.743-4.458-4.977-13.632-5.67-18.726-1.55.227-.228.532-.478.858-.744 5.095-4.119 14.269-3.426 18.726 1.55"/><path d="M46.782 94.846c-.326.266-.63.516-.858.743l-.059.048a12.235 12.235 0 0 1 .917-.79"/><path d="M46.723 94.894c-.325.266-.63.516-.858.743l-.042.034a12.235 12.235 0 0 1 .9-.777"/><path d="M46.682 94.928c-.326.266-.632.516-.859.743-.127.105-.254.211-.379.32.227-.228.533-.478.858-.744.126-.108.252-.214.38-.319"/><path d="M46.552 95.034c-.277.227-.532.44-.729.637-.127.105-.254.211-.379.32.1-.1.214-.205.34-.312.286-.247.546-.463.768-.645"/><path d="m46.552 95.034.13-.106c-.128.105-.254.211-.38.319-.182.15-.359.294-.519.432.287-.247.547-.463.769-.645"/><path d="M46.302 95.247c-.325.266-.63.516-.858.743l-.04.036c.226-.228.532-.477.858-.744l.04-.035"/><path d="M45.783 95.679c-.125.107-.24.211-.339.311l-.04.036c.093-.094.2-.192.316-.293m0 0 .063-.054"/><path d="M45.783 95.679c.16-.138.337-.283.52-.432l-.041.035c-.192.157-.376.307-.542.451m0 0 .063-.054"/><path d="M46.262 95.282c-.326.267-.632.516-.859.744-.345.3-.68.612-1.006.936.228-.227.533-.477.859-.743.325-.324.66-.637 1.006-.937"/><path d="M45.72 95.733a6.208 6.208 0 0 0-.317.293 19.88 19.88 0 0 0-1.002.932m0 0c.467-.466.912-.871 1.32-1.225"/><path d="M45.72 95.733c.166-.144.35-.294.542-.45-.346.3-.681.612-1.006.936-.324.265-.628.513-.855.74m0 0c.467-.467.912-.872 1.32-1.226"/><path d="M45.256 96.219a12.235 12.235 0 0 0-.897.781c.227-.227.533-.477.859-.743a20.2 20.2 0 0 1 .038-.038"/><path d="M45.218 96.257c-.326.266-.632.516-.859.743-5.879 5.895-8.22 15.527-3.738 22.547.227-.228.532-.477.858-.743-4.482-7.02-2.14-16.652 3.739-22.547"/><path d="M41.479 118.804c-.326.266-.631.515-.858.743 4.742 7.427 9.353 10.515 18.507 10.932.227-.227.532-.476.858-.743-9.154-.417-13.764-3.505-18.507-10.932"/><path d="M59.986 129.736c-.326.267-.63.516-.858.743.711.033 1.288-.205 2.541-1.153.227-.227.533-.477.858-.743-1.253.948-1.83 1.186-2.54 1.153M64.968 107.158c.28.978-.917 1.956-1.92 2.775a9.732 9.732 0 0 0 2.003-1.247c1.002-.82 2.199-1.797 1.919-2.776a9.732 9.732 0 0 1-2.002 1.248"/><path d="M66.97 105.91c.28.979-.917 1.957-1.92 2.776l.012-.01c1.002-.818 2.199-1.796 1.92-2.775a8.515 8.515 0 0 1-.012.01"/><path d="M66.981 105.901c.28.979-.917 1.957-1.92 2.776a7.752 7.752 0 0 0 1.472-1.583c1.002-.82 2.2-1.798 1.92-2.776a7.752 7.752 0 0 1-1.472 1.583"/><path d="m65.165 108.592-.103.085a7.752 7.752 0 0 0 1.471-1.583c.586-.479 1.238-1.012 1.623-1.568m0 0c-.944 1.362-2.118 2.351-2.99 3.066"/><path d="M65.165 108.592c.98-.801 2.086-1.746 1.816-2.69a7.752 7.752 0 0 0 1.472-1.584c.116.407-.023.813-.297 1.208m0 0c-.944 1.362-2.118 2.351-2.99 3.066"/><path d="M68.453 104.318c.28.978-.918 1.957-1.92 2.776l.008-.01c1.002-.82 2.198-1.798 1.919-2.776a7.302 7.302 0 0 1-.007.01"/><path d="M68.156 105.526c-.385.556-1.037 1.089-1.623 1.568l.008-.01c.587-.48 1.24-1.016 1.626-1.573m0 0-.01.015"/><path d="M68.156 105.526c.274-.395.413-.801.297-1.208l.007-.01c.116.405-.022.81-.293 1.203m0 0-.01.015"/><path d="M68.46 104.308c.28.978-.917 1.956-1.92 2.775a7.23 7.23 0 0 0 .981-2.048c1.002-.819 2.199-1.797 1.92-2.775a7.23 7.23 0 0 1-.981 2.048"/><path d="M68.167 105.511c-.385.557-1.04 1.092-1.626 1.572a7.23 7.23 0 0 0 .98-2.048c.782-.638 1.681-1.374 1.907-2.13m0 0a9.21 9.21 0 0 1-1.261 2.606"/><path d="M68.167 105.511c.271-.393.409-.798.293-1.203a7.23 7.23 0 0 0 .98-2.048c.062.215.052.43-.012.644m0 0a9.21 9.21 0 0 1-1.261 2.607"/><path d="M69.44 102.26c.28.978-.917 1.956-1.919 2.775.477-1.6.439-3.352-.025-4.982 1.002-.82 2.199-1.798 1.92-2.776.463 1.63.502 3.383.024 4.983"/><path d="M69.428 102.904c-.226.757-1.125 1.493-1.907 2.131.477-1.6.439-3.352-.025-4.982 1.002-.82 2.198-1.797 1.92-2.775m0 0c.506 1.781.573 3.748.012 5.626"/><path d="M69.428 102.904c.064-.213.074-.429.012-.644.478-1.6.44-3.352-.025-4.983v.001m0 0c.507 1.781.574 3.748.013 5.626"/><path d="M69.415 97.277c.28.978-.917 1.957-1.92 2.776a9.737 9.737 0 0 0-.004-.018c1.002-.82 2.199-1.797 1.92-2.776 0 .006.003.012.004.018"/><path d="M69.41 97.26c.28.978-.917 1.956-1.92 2.775-.386-1.349-1.064-2.613-1.982-3.638 1.002-.82 2.199-1.797 1.92-2.776.918 1.025 1.595 2.29 1.982 3.638"/><path d="M67.427 93.621c.28.979-.917 1.957-1.919 2.776-4.457-4.977-13.631-5.67-18.726-1.55 1.002-.82 2.2-1.798 1.92-2.776 5.094-4.119 14.268-3.426 18.725 1.55"/><path d="M48.702 92.07c.28.979-.918 1.957-1.92 2.776l-.059.048c1.003-.82 2.2-1.797 1.92-2.776l.059-.047"/><path d="M48.643 92.118c.28.979-.917 1.957-1.92 2.776l-.041.034c1.002-.819 2.198-1.797 1.919-2.775l.042-.035"/><path d="M48.601 92.153c.28.978-.917 1.956-1.92 2.775a20.51 20.51 0 0 0-3.832 4.174c1.002-.82 2.198-1.797 1.919-2.775a20.51 20.51 0 0 1 3.833-4.174"/><path d="m46.816 94.818-.134.11a20.51 20.51 0 0 0-3.833 4.174c.585-.479 1.237-1.011 1.622-1.567 1.276-1.84 2.431-2.787 2.345-2.717"/><path d="M46.816 94.818c.971-.796 2.052-1.73 1.785-2.665a20.51 20.51 0 0 0-3.833 4.174c.116.406-.023.813-.297 1.208 1.276-1.84 2.431-2.787 2.345-2.717"/><path d="M44.768 96.327c.28.978-.917 1.956-1.92 2.775l-.03.045c1.002-.82 2.198-1.798 1.919-2.776l.03-.044"/><path d="M44.471 97.535c-.385.556-1.037 1.088-1.622 1.567l-.031.045c.587-.48 1.242-1.016 1.626-1.573l.027-.039"/><path d="M44.471 97.535c.274-.395.413-.802.297-1.208l-.031.044c.116.405-.021.81-.293 1.203l.027-.039"/><path d="M44.737 96.371c.28.978-.917 1.957-1.92 2.776-3.2 4.64-4.563 10.546-3.08 15.77 1.001-.82 2.198-1.798 1.919-2.776-1.483-5.223-.119-11.13 3.081-15.77"/><path d="M44.444 97.574c-.384.557-1.039 1.092-1.626 1.573-3.2 4.64-4.564 10.546-3.082 15.77 1.002-.82 2.198-1.797 1.92-2.774m0 0c-1.403-4.944-.036-10.474 2.788-14.57"/><path d="M44.444 97.574c.272-.394.409-.798.293-1.203-3.2 4.64-4.564 10.547-3.081 15.77v.002m0 0c-1.403-4.944-.036-10.474 2.788-14.57"/><path d="M41.656 112.14c.28.979-.918 1.957-1.92 2.776l.015.05c1.002-.818 2.199-1.797 1.92-2.775l-.015-.05"/><path d="M41.67 112.191c.28.978-.917 1.957-1.92 2.776a14.612 14.612 0 0 0 1.729 3.837c1.002-.82 2.199-1.798 1.92-2.776a14.612 14.612 0 0 1-1.729-3.837"/><path d="M43.398 116.028c.28.978-.917 1.956-1.919 2.776 4.743 7.427 9.353 10.515 18.507 10.932 1.002-.819 2.2-1.797 1.92-2.775-9.155-.418-13.765-3.505-18.508-10.933"/><path d="M61.906 126.96c.28.979-.918 1.957-1.92 2.776.712.033 1.288-.205 2.541-1.153 1.003-.82 2.2-1.797 1.92-2.775-1.254.947-1.83 1.185-2.541 1.153M62.846 107.917c.602-.176 1.263-.369 2.122-.759 2.488-1.177 3.89-2.946 4.472-4.898-.858.39-1.52.583-2.122.759-.582 1.952-1.984 3.721-4.472 4.898"/><path d="M67.318 103.019c.603-.176 1.264-.369 2.122-.76.875-2.929.019-6.37-2.013-8.638-.858.39-1.52.584-2.122.76 2.032 2.268 2.887 5.708 2.013 8.638"/><path d="M65.305 94.38c.603-.175 1.264-.368 2.122-.759-3.412-3.81-9.59-5.109-14.585-3.66-.858.39-1.52.583-2.122.759 4.995-1.45 11.172-.15 14.585 3.66"/><path d="M50.72 90.72c.603-.176 1.264-.369 2.122-.76a13.65 13.65 0 0 0-.039.012c-.858.39-1.52.583-2.122.76.013-.005.026-.008.04-.012"/><path d="M50.681 90.731c.603-.176 1.264-.368 2.122-.759-.242.071-.48.149-.717.233-.858.39-1.52.583-2.122.759.236-.084.475-.162.717-.233"/><path d="M49.964 90.964c.602-.176 1.264-.369 2.122-.76l-.038.014c-.859.39-1.52.583-2.122.76l.038-.014"/><path d="M51.083 90.61c.306-.108.636-.239 1.003-.405l-.038.013c-.352.16-.67.287-.966.393m0 0s0 0 0 0"/><path d="M51.083 90.61c-.41.147-.774.253-1.12.354l-.037.013c.355-.103.731-.213 1.156-.366 0 0 0 0 0 0"/><path d="M49.926 90.977c.602-.176 1.263-.368 2.122-.759-.318.115-.63.24-.934.379-.859.39-1.52.583-2.123.758.305-.138.617-.264.935-.378"/><path d="M51.082 90.611c.295-.106.614-.233.966-.393a12.604 12.604 0 0 0-.955.388m0 0-.01.005"/><path d="M51.082 90.611c-.425.153-.8.263-1.156.366-.318.114-.63.24-.935.378.598-.174 1.254-.365 2.102-.75l-.01.006"/><path d="M48.991 91.355c.603-.175 1.264-.368 2.123-.758l-.037.016c-.858.39-1.52.583-2.122.759l.036-.017"/><path d="M48.955 91.372c.602-.176 1.264-.369 2.122-.759-.856.391-1.657.876-2.375 1.458-.859.39-1.52.583-2.123.759a11.105 11.105 0 0 1 2.376-1.458"/><path d="M46.58 92.83c.602-.176 1.263-.37 2.122-.76-6.999 5.659-10.165 16.345-5.304 23.958-.858.39-1.52.583-2.122.759-4.861-7.613-1.695-18.3 5.303-23.957"/><path d="M41.276 116.787c.603-.176 1.264-.369 2.122-.759 4.743 7.428 9.353 10.515 18.508 10.933-.859.39-1.52.583-2.123.759-9.154-.418-13.764-3.505-18.507-10.933"/><path d="M59.783 127.72c.603-.176 1.264-.369 2.123-.76.246.012.477-.01.725-.081-.859.39-1.52.583-2.122.759a2.163 2.163 0 0 1-.726.082"/><path d="M60.509 127.638c.602-.176 1.263-.37 2.122-.76h.004c-.859.39-1.52.583-2.122.758l-.004.002"/><path d="M60.513 127.636c.602-.175 1.263-.368 2.122-.759.044-.012.088-.027.133-.043-.859.39-1.52.583-2.123.76-.045.015-.089.03-.132.042"/><path d="M60.637 127.6c.57-.167 1.198-.359 1.998-.723.044-.012.088-.027.133-.043-.364.166-.692.296-.996.404-.426.152-.8.264-1.135.362"/><path d="m60.637 127.6-.124.036c.043-.012.087-.027.132-.043.348-.101.714-.208 1.127-.355-.426.152-.8.264-1.135.362"/><path d="M60.645 127.593c.603-.176 1.264-.368 2.123-.759l.004-.001c-.859.39-1.52.583-2.122.759l-.005.001"/><path d="M61.772 127.238a12.656 12.656 0 0 0 .027-.01m0 0-.027.01"/><path d="M61.772 127.238c-.413.147-.78.254-1.127.355l.005-.001c.353-.103.727-.212 1.149-.364l-.027.01"/><path d="M60.65 127.592c.602-.176 1.263-.369 2.122-.76.071-.025.144-.054.22-.089-.86.39-1.52.584-2.123.76a2.902 2.902 0 0 1-.22.089"/><path d="M61.799 127.228c.297-.106.618-.234.973-.395a2.902 2.902 0 0 0 .21-.085m0 0c-.434.196-.824.352-1.183.48"/><path d="M61.799 127.228c-.422.152-.796.26-1.15.364.072-.026.145-.055.22-.09.6-.175 1.259-.367 2.113-.754m0 0c-.434.196-.824.352-1.183.48"/><path d="M60.869 127.502c.602-.175 1.264-.368 2.122-.759.002 0 .003 0 .005-.002-.859.39-1.52.583-2.122.76l-.005.001"/><path d="M60.874 127.5c.602-.176 1.263-.368 2.122-.759.385-.175.836-.469 1.45-.933-.858.39-1.519.583-2.121.758-.615.465-1.067.759-1.451.934M60.338 109.01c.964-.643 1.68-.852 2.508-1.093.473-.224.907-.47 1.303-.733-.827.241-1.543.45-2.507 1.093-.397.264-.83.51-1.304.733"/><path d="M61.284 108.47c.539-.255 1.027-.397 1.562-.553.473-.224.907-.47 1.303-.733-.825.24-1.54.45-2.501 1.089-.018.012-.14.091-.364.197"/><path d="M61.284 108.47a7.38 7.38 0 0 0-.946.54 10.288 10.288 0 0 0 1.31-.737c-.018.012-.14.091-.364.197"/><path d="M61.642 108.277c.964-.643 1.68-.852 2.507-1.093l.013-.008c-.827.24-1.543.45-2.508 1.093a9.377 9.377 0 0 1-.012.008"/><path d="M61.654 108.269c.965-.643 1.68-.852 2.508-1.093 1.68-1.123 2.686-2.58 3.156-4.157-.827.241-1.543.45-2.507 1.093-.47 1.577-1.476 3.034-3.157 4.157"/><path d="M64.81 104.112c.965-.643 1.681-.852 2.508-1.093.874-2.93.019-6.37-2.013-8.639-.827.242-1.543.45-2.507 1.093 2.031 2.269 2.887 5.709 2.013 8.639"/><path d="M62.798 95.473c.964-.642 1.68-.851 2.507-1.093-3.413-3.81-9.59-5.11-14.585-3.66-.827.241-1.543.45-2.507 1.093 4.994-1.45 11.172-.15 14.585 3.66"/><path d="M48.213 91.813c.964-.643 1.68-.852 2.507-1.093a13.65 13.65 0 0 0-.039.011c-.827.241-1.543.45-2.507 1.093l.039-.011"/><path d="M48.174 91.824c.964-.643 1.68-.852 2.507-1.093-.52.153-1.026.335-1.515.547-.827.241-1.543.45-2.508 1.093.49-.212.996-.394 1.516-.547"/><path d="m50.532 90.775.15-.044c-.52.153-1.027.335-1.516.547-.469.137-.902.263-1.365.464m0 0a22.7 22.7 0 0 1 2.731-.967"/><path d="M50.532 90.775c-.765.224-1.452.445-2.358 1.05-.52.152-1.026.334-1.516.546a7.195 7.195 0 0 1 1.143-.629m0 0a22.7 22.7 0 0 1 2.731-.967"/><path d="M46.658 92.371c.965-.643 1.68-.852 2.508-1.093l-.037.016c-.827.241-1.543.45-2.507 1.093l.036-.016"/><path d="M47.8 91.742c.464-.2.897-.327 1.366-.464l-.037.016c-.475.139-.914.267-1.385.473m0 0 .057-.025"/><path d="M47.8 91.742c-.353.154-.724.35-1.142.629l-.036.016a7.21 7.21 0 0 1 1.122-.62m0 0 .057-.025"/><path d="M46.622 92.387c.964-.643 1.68-.852 2.507-1.093-.616.27-1.205.588-1.756.954-.827.241-1.543.45-2.508 1.093.552-.366 1.14-.684 1.757-.954"/><path d="M47.744 91.767c.47-.206.91-.334 1.385-.473-.616.27-1.205.588-1.756.954-.823.24-1.537.448-2.494 1.084m0 0c.907-.602 1.85-1.12 2.865-1.565"/><path d="M47.744 91.767a7.21 7.21 0 0 0-1.122.62 11.537 11.537 0 0 0-1.743.945m0 0c.907-.602 1.85-1.12 2.865-1.565"/><path d="M44.865 93.34c.965-.642 1.68-.85 2.508-1.092l-.033.022c-.827.241-1.543.45-2.508 1.093l.033-.022"/><path d="M44.832 93.363c.965-.643 1.681-.852 2.508-1.093-.262.175-.516.362-.76.56-.828.24-1.544.45-2.508 1.093.244-.198.498-.385.76-.56"/><path d="M44.072 93.923c.964-.643 1.68-.852 2.507-1.093-6.998 5.658-10.164 16.344-5.303 23.957-.827.241-1.543.45-2.507 1.093-4.862-7.613-1.696-18.3 5.303-23.957"/><path d="M38.769 117.88c.964-.643 1.68-.852 2.507-1.093 4.743 7.428 9.353 10.515 18.507 10.933-.827.24-1.543.45-2.507 1.093-9.154-.418-13.764-3.505-18.507-10.933"/><path d="M57.276 128.813c.964-.643 1.68-.852 2.507-1.093.247.01.477-.01.726-.082-.827.24-1.544.45-2.508 1.093a2.163 2.163 0 0 1-.725.082"/><path d="M58.001 128.73c.964-.642 1.68-.851 2.508-1.092l.004-.002c-.827.242-1.543.45-2.508 1.093l-.004.002"/><path d="M58.005 128.73c.965-.644 1.68-.852 2.508-1.094.1-.029.202-.066.31-.113-.827.241-1.543.45-2.507 1.093-.108.047-.21.084-.31.113"/><path d="M58.316 128.616c.964-.643 1.68-.852 2.507-1.093l.005-.002c-.827.241-1.544.45-2.508 1.093l-.004.002"/><path d="M58.32 128.614c.964-.643 1.68-.852 2.508-1.093.232-.102.489-.247.791-.449-.827.241-1.543.45-2.507 1.093a5.229 5.229 0 0 1-.792.449"/><path d="M59.112 128.165c.964-.643 1.68-.852 2.507-1.093a9.44 9.44 0 0 0 .006-.004c-.827.241-1.543.45-2.507 1.093a9.44 9.44 0 0 1-.006.004"/><path d="M59.118 128.161c.964-.643 1.68-.852 2.507-1.093.209-.14.44-.305.7-.502-.827.242-1.544.45-2.508 1.093-.26.197-.49.363-.7.502M58.116 112.343c-.37-1.296.185-2.222 2.222-3.333.19-.09.375-.184.553-.28-2.038 1.11-2.593 2.037-2.223 3.333-.178.097-.362.19-.552.28"/><path d="M58.668 112.063c-.37-1.296.185-2.222 2.223-3.334l.013-.007c-2.037 1.111-2.592 2.037-2.222 3.333l-.014.008"/><path d="M58.682 112.055c-.37-1.296.185-2.222 2.222-3.333 1.33-.727 2.31-1.637 2.989-2.654-2.037 1.11-2.593 2.037-2.223 3.333-.68 1.017-1.658 1.928-2.988 2.654"/><path d="m60.895 108.727.01-.005c1.329-.727 2.308-1.637 2.988-2.654-1.005.548-1.65 1.05-2 1.576-.555.83-1.14 1.16-.998 1.083"/><path d="M60.895 108.727c-2.03 1.109-2.583 2.034-2.213 3.328 1.33-.726 2.309-1.637 2.988-2.654-.187-.657-.137-1.219.223-1.757-.555.83-1.14 1.16-.998 1.083"/><path d="M61.67 109.4c-.37-1.295.186-2.221 2.223-3.332l.007-.011c-2.037 1.111-2.593 2.037-2.222 3.333a7.274 7.274 0 0 1-.008.01"/><path d="M61.893 107.644c.35-.525.995-1.028 2-1.576l.007-.011c-1.007.55-1.652 1.053-2.002 1.58a4.947 4.947 0 0 1-.005.007"/><path d="M61.893 107.644c-.36.538-.41 1.1-.223 1.757l.008-.01c-.188-.656-.138-1.217.22-1.755a4.947 4.947 0 0 1-.005.008"/><path d="M61.678 109.39c-.37-1.296.185-2.222 2.222-3.333.41-.615.71-1.27.91-1.945-2.036 1.11-2.592 2.037-2.221 3.333a7.231 7.231 0 0 1-.911 1.945"/><path d="M61.898 107.636c.35-.526.995-1.03 2.002-1.58.41-.614.71-1.268.91-1.944-1.337.73-2.036 1.38-2.253 2.107m0 0a5.277 5.277 0 0 1-.66 1.417"/><path d="M61.898 107.636c-.358.538-.408 1.099-.22 1.754.409-.615.709-1.269.91-1.945-.127-.445-.145-.846-.031-1.226m0 0a5.277 5.277 0 0 1-.66 1.417"/><path d="M62.589 107.445c-.37-1.296.185-2.222 2.222-3.333.477-1.6.439-3.352-.025-4.983-2.038 1.111-2.593 2.037-2.223 3.334.464 1.63.503 3.382.026 4.982"/><path d="M62.557 106.22c.217-.728.916-1.378 2.254-2.108.477-1.6.439-3.352-.025-4.983-2.036 1.11-2.592 2.036-2.224 3.33m0 0c.31 1.089.383 2.46-.005 3.76"/><path d="M62.557 106.22c-.114.38-.096.78.032 1.225.477-1.6.438-3.352-.026-4.982v-.004m0 0c.31 1.089.382 2.46-.006 3.76"/><path d="M62.563 102.463c-.37-1.297.185-2.223 2.223-3.334a9.737 9.737 0 0 0-.006-.018c-2.037 1.111-2.592 2.037-2.222 3.334l.005.018"/><path d="M62.558 102.445c-.37-1.297.185-2.223 2.222-3.334-.386-1.348-1.064-2.613-1.982-3.638-2.037 1.111-2.593 2.037-2.223 3.334.919 1.025 1.596 2.29 1.983 3.638"/><path d="M60.575 98.807c-.37-1.297.186-2.223 2.223-3.334-4.012-4.48-11.846-5.488-17.086-2.641-2.037 1.11-2.592 2.037-2.222 3.333 5.24-2.847 13.073-1.838 17.085 2.642"/><path d="M43.49 96.165c-.37-1.296.185-2.222 2.222-3.333l-.035.019c-2.037 1.11-2.592 2.037-2.222 3.333l.035-.019"/><path d="M43.455 96.184c-.37-1.296.185-2.222 2.222-3.333-.568.311-1.106.668-1.605 1.072-2.037 1.11-2.593 2.037-2.222 3.333.498-.403 1.036-.76 1.605-1.072"/><path d="m45.655 92.863.022-.012c-.568.311-1.106.668-1.605 1.072-.532.29-.962.567-1.302.842m0 0c.891-.721 1.863-1.343 2.885-1.902"/><path d="M45.655 92.863c-2.019 1.105-2.569 2.03-2.2 3.321-.569.312-1.107.669-1.605 1.072-.274-.958-.042-1.714.92-2.491m0 0c.891-.721 1.863-1.343 2.885-1.902"/><path d="M41.85 97.256c-.37-1.296.185-2.222 2.222-3.333a20.544 20.544 0 0 0-4.139 4.557c-2.037 1.11-2.592 2.037-2.222 3.333a20.544 20.544 0 0 1 4.139-4.557"/><path d="M42.77 94.765c.34-.275.77-.552 1.302-.842a20.544 20.544 0 0 0-4.139 4.557c-1.004.547-1.649 1.05-2 1.575m0 0a23.834 23.834 0 0 1 4.837-5.29"/><path d="M42.77 94.765c-.962.777-1.194 1.533-.92 2.49a20.544 20.544 0 0 0-4.14 4.558c-.187-.657-.137-1.219.224-1.758m0 0a23.834 23.834 0 0 1 4.836-5.29"/><path d="M37.71 101.813c-.37-1.296.186-2.222 2.223-3.333l-.03.045c-2.037 1.11-2.593 2.037-2.222 3.333l.03-.045"/><path d="M37.934 100.055c.35-.525.995-1.028 2-1.575l-.031.045c-1.008.55-1.653 1.054-2.003 1.58l.034-.05"/><path d="M37.934 100.055c-.36.539-.41 1.1-.223 1.758l-.03.045c-.187-.655-.138-1.215.22-1.753.01-.017.022-.033.033-.05"/><path d="M37.68 101.858c-.37-1.296.186-2.222 2.223-3.333-3.053 4.592-4.328 10.357-2.877 15.468-2.037 1.11-2.593 2.037-2.222 3.333-1.45-5.11-.176-10.876 2.877-15.468"/><path d="M37.9 100.105c.35-.526.995-1.03 2.003-1.58-3.053 4.592-4.328 10.357-2.877 15.468-2.034 1.11-2.591 2.034-2.224 3.327m0 0c-1.75-6.168-.076-12.44 3.098-17.215"/><path d="M37.9 100.105c-.357.538-.406 1.098-.22 1.753-3.052 4.592-4.327 10.358-2.876 15.468l-.002-.006m0 0c-1.75-6.168-.076-12.44 3.098-17.215"/><path d="M34.804 117.326c-.37-1.296.185-2.222 2.222-3.333l.014.05c-2.037 1.111-2.592 2.037-2.222 3.333l-.014-.05"/><path d="M34.818 117.376c-.37-1.296.185-2.222 2.222-3.333a14.612 14.612 0 0 0 1.729 3.837c-2.037 1.111-2.593 2.037-2.223 3.333a14.612 14.612 0 0 1-1.728-3.837"/><path d="M36.546 121.213c-.37-1.296.186-2.222 2.223-3.333 4.743 7.428 9.353 10.515 18.507 10.933-2.037 1.11-2.593 2.037-2.222 3.333-9.155-.417-13.765-3.505-18.508-10.933"/><path d="M55.054 132.146c-.37-1.296.185-2.222 2.222-3.333.435.02.82-.062 1.34-.345-2.037 1.11-2.592 2.037-2.222 3.333-.52.283-.905.365-1.34.345"/><path d="M56.394 131.801c-.37-1.296.185-2.222 2.222-3.333l.006-.003c-2.037 1.111-2.593 2.037-2.223 3.333l-.005.003"/><path d="M56.4 131.798c-.371-1.296.185-2.222 2.222-3.333.328-.18.711-.44 1.195-.806-2.037 1.112-2.593 2.037-2.222 3.334-.484.366-.867.626-1.196.805"/><path d="m58.614 128.47.008-.005c.328-.18.711-.44 1.195-.806-.46.251-.844.493-1.16.73m0 0c-.196.15-.293.217-.043.08"/><path d="M58.614 128.47c-2.03 1.108-2.585 2.034-2.215 3.328.33-.18.712-.44 1.196-.805-.287-1.004-.019-1.786 1.063-2.603m0 0c-.197.149-.294.216-.044.08"/></g><g class="annot" fill="none" stroke="#9008" stroke-width=".1" style="pointer-events:none"><path d="M59.504 112.66c1.624-.768 2.78-1.69 3.716-2.46M61.91 100.779a7.885 7.885 0 0 0-1.17-1.724M60.74 99.055c-3.25-3.628-9.267-4.803-13.816-3.428M46.924 95.627l-.034.01M46.89 95.637c-1.654.506-2.465 1.152-2.235.966M35.811 119.92c.25.496.518.966.802 1.412M36.613 121.332c4.9 7.672 9.702 10.88 19.123 11.309"/><path d="M55.736 132.641c.35.016.717-.016 1.15-.147M56.885 132.494l.008-.003M56.893 132.491c.848-.258 1.81-.855 3.066-1.804M63.747 109.77c.012-.01.021-.016-.012.01M46.392 95.233c-.248.177-.48.353-.7.526M45.693 95.76l-.076.06M45.617 95.82a29.56 29.56 0 0 0-.211.168M45.406 95.988c-.118.095-.228.186-.33.27M61.275 129.617c.07-.051.148-.108.233-.172M64.707 108.97c-.011.01.028-.024.097-.093M46.552 95.034c-.222.182-.482.398-.769.645M45.783 95.679l-.063.054"/><path d="M45.72 95.733c-.407.354-.852.76-1.319 1.225M65.165 108.592c.873-.715 2.047-1.704 2.991-3.066M68.156 105.526l.01-.015M68.167 105.511a9.21 9.21 0 0 0 1.261-2.607M69.428 102.904c.56-1.878.494-3.845-.012-5.626M46.816 94.818c.086-.07-1.069.876-2.345 2.717M44.471 97.535l-.027.039M44.444 97.574c-2.824 4.095-4.191 9.625-2.788 14.569M51.083 90.61v.001M51.082 90.611l.011-.005M60.637 127.6c.335-.098.709-.21 1.135-.362M61.772 127.238l.027-.01M61.799 127.228c.359-.128.75-.284 1.183-.48M61.284 108.47c.224-.106.346-.185.364-.197M50.532 90.775a22.7 22.7 0 0 0-2.731.967M47.8 91.742l-.056.025M47.744 91.767a18.703 18.703 0 0 0-2.865 1.565M60.895 108.727c-.142.078.443-.252.998-1.083M61.893 107.644l.005-.008M61.898 107.636c.271-.408.5-.882.659-1.417M62.557 106.22c.388-1.301.315-2.672.005-3.76"/><path d="M45.655 92.863c-1.022.56-1.994 1.181-2.885 1.902M42.77 94.765a23.834 23.834 0 0 0-4.836 5.29M37.934 100.055l-.034.05M37.9 100.105c-3.174 4.775-4.849 11.047-3.098 17.215M58.614 128.47c-.25.136-.153.069.044-.08"/></g></svg>