<?xml version="1.0" encoding="UTF-8" standalone="no"?>
<!-- Created with Inkscape (http://www.inkscape.org/) -->

<svg
   width="120"
   height="120"
   viewBox="0 0 31.749999 31.75"
   version="1.1"
   id="svg5"
   xml:space="preserve"
   inkscape:version="1.2.1 (9c6d41e4, 2022-07-14)"
   sodipodi:docname="halfanise.svg"
   xmlns:inkscape="http://www.inkscape.org/namespaces/inkscape"
   xmlns:sodipodi="http://sodipodi.sourceforge.net/DTD/sodipodi-0.dtd"
   xmlns:xlink="http://www.w3.org/1999/xlink"
   xmlns="http://www.w3.org/2000/svg"
   xmlns:svg="http://www.w3.org/2000/svg"><sodipodi:namedview
     id="namedview7"
     pagecolor="#ffffff"
     bordercolor="#666666"
     borderopacity="1.0"
     inkscape:showpageshadow="2"
     inkscape:pageopacity="0.0"
     inkscape:pagecheckerboard="0"
     inkscape:deskcolor="#d1d1d1"
     inkscape:document-units="px"
     showgrid="false"
     showguides="false"
     inkscape:zoom="2.1555918"
     inkscape:cx="75.849242"
     inkscape:cy="82.112023"
     inkscape:window-width="1286"
     inkscape:window-height="702"
     inkscape:window-x="0"
     inkscape:window-y="25"
     inkscape:window-maximized="0"
     inkscape:current-layer="g3870"><inkscape:grid
       type="xygrid"
       id="grid1511"
       spacingx="3.96875"
       spacingy="3.96875"
       empspacing="4"
       originx="-14.552082"
       originy="1.322916" /><sodipodi:guide
       position="17.197917,14.552084"
       orientation="0.7071068,-0.70710676"
       id="guide1569"
       inkscape:locked="false" /><sodipodi:guide
       position="1.322917,14.552084"
       orientation="0.7071068,0.70710676"
       id="guide1632"
       inkscape:locked="false" /><sodipodi:guide
       position="1.3229166,-1.3229172"
       orientation="0,-1"
       id="guide1772"
       inkscape:locked="false" /></sodipodi:namedview><defs
     id="defs2"><linearGradient
       inkscape:collect="always"
       id="linearGradient28558"><stop
         style="stop-color:#0f0f0f;stop-opacity:0.09;"
         offset="0"
         id="stop28554" /><stop
         style="stop-color:#0f0f0f;stop-opacity:0.16;"
         offset="1"
         id="stop28556" /></linearGradient><linearGradient
       inkscape:collect="always"
       id="linearGradient22600"><stop
         style="stop-color:#0f0f0f;stop-opacity:0.08;"
         offset="0"
         id="stop22596" /><stop
         style="stop-color:#0f0f0f;stop-opacity:0.14;"
         offset="1"
         id="stop22598" /></linearGradient><linearGradient
       inkscape:collect="always"
       id="linearGradient15894"><stop
         style="stop-color:#0f0f0f;stop-opacity:0.13333334;"
         offset="0"
         id="stop15890" /><stop
         style="stop-color:#0f0f0f;stop-opacity:0.07843138;"
         offset="1"
         id="stop15892" /></linearGradient><radialGradient
       inkscape:collect="always"
       xlink:href="#linearGradient15894"
       id="radialGradient15896"
       cx="96.515883"
       cy="124.6875"
       fx="96.515883"
       fy="124.6875"
       r="17.197917"
       gradientTransform="translate(0,1.0875227e-5)"
       gradientUnits="userSpaceOnUse" /><radialGradient
       inkscape:collect="always"
       xlink:href="#linearGradient28558"
       id="radialGradient22602"
       cx="96.515883"
       cy="124.68749"
       fx="96.515883"
       fy="124.68749"
       r="1.3229165"
       gradientTransform="matrix(1,0,0,0.99999887,0,1.4148473e-4)"
       gradientUnits="userSpaceOnUse" /><radialGradient
       inkscape:collect="always"
       xlink:href="#linearGradient22600"
       id="radialGradient24058"
       gradientUnits="userSpaceOnUse"
       gradientTransform="matrix(1,0,0,0.99999887,-15.875,15.875138)"
       cx="96.515883"
       cy="124.68749"
       fx="96.515883"
       fy="124.68749"
       r="1.3229165" /></defs><g
     inkscape:label="Design"
     inkscape:groupmode="layer"
     id="layer1"
     transform="rotate(90,110.60169,31.283723)"
     style="display:none"><use
       x="0"
       y="0"
       xlink:href="#g1764"
       id="use1766"
       inkscape:transform-center-x="7.9375001"
       inkscape:transform-center-y="-7.9374991"
       transform="rotate(90,96.515892,124.6875)" /><use
       x="0"
       y="0"
       xlink:href="#g1764"
       id="use1768"
       inkscape:transform-center-x="-7.9375001"
       inkscape:transform-center-y="7.9375001"
       transform="rotate(-90,96.515892,124.6875)" /><use
       x="0"
       y="0"
       xlink:href="#g1764"
       id="use1770"
       inkscape:transform-center-x="-7.9375"
       inkscape:transform-center-y="-7.9374991"
       transform="rotate(180,96.515892,124.6875)" /><g
       id="g1764"
       inkscape:label="Motif"><circle
         style="fill:#000000;stroke-width:1;stroke-linejoin:round;stroke-miterlimit:3"
         id="path1565"
         cx="80.640892"
         cy="140.5625"
         r="1.3229166"
         inkscape:label="corner" /><circle
         style="fill:#000000;stroke-width:1;stroke-linejoin:round;stroke-miterlimit:3"
         id="circle1567"
         cx="96.515892"
         cy="124.6875"
         r="1.3229166"
         inkscape:label="center" /><path
         style="fill:#000000;stroke-width:1;stroke-linejoin:round;stroke-miterlimit:3"
         d="m 82.594289,138.6091 c 1.259479,-2.23205 3.524316,-4.9569 5.26781,-6.70039 l 0.716293,0.71629 z"
         id="path1634"
         sodipodi:nodetypes="cccc"
         inkscape:label="edge" /><use
         x="0"
         y="0"
         xlink:href="#path1634"
         id="use1734"
         transform="matrix(0,-1,-1,0,221.20339,221.20339)" /><use
         x="0"
         y="0"
         xlink:href="#path1634"
         id="use1740"
         transform="rotate(180,88.578391,132.625)" /><use
         x="0"
         y="0"
         xlink:href="#path1634"
         id="use1742"
         transform="matrix(0,1,1,0,-44.046607,44.046611)" /></g></g><g
     inkscape:label="Merged"
     id="g3870"
     transform="rotate(90,110.60169,31.283723)"
     inkscape:groupmode="layer"
     style="opacity:0.75"><path
       style="stroke-linejoin:round;stroke-miterlimit:3;fill:url(#radialGradient15896);fill-opacity:1"
       d="m 98.469253,122.73413 c 2.232047,-1.25948 4.956877,-3.52441 6.700367,-5.2679 1.7435,-1.74349 4.00843,-4.46832 5.26789,-6.70036 -2.23204,1.25947 -4.95687,3.5244 -6.70036,5.26789 -1.74349,1.74349 -4.00842,4.46832 -5.267897,6.70037 z"
       id="path21862" /><path
       style="stroke-linejoin:round;stroke-miterlimit:3;fill:url(#radialGradient15896);fill-opacity:1"
       d="m 98.469253,126.64087 c 1.259478,2.23204 3.524407,4.95687 5.267897,6.70036 1.74349,1.7435 4.46832,4.00842 6.70036,5.2679 -1.25947,-2.23205 -3.5244,-4.95688 -5.26789,-6.70037 -1.74349,-1.7435 -4.46832,-4.00842 -6.700367,-5.26789 z"
       id="path21860" /><path
       style="stroke-linejoin:round;stroke-miterlimit:3;fill:url(#radialGradient22602);fill-opacity:1"
       d="m 95.192967,124.6875 a 1.3229166,1.3229166 0 0 0 0.42323,0.96996 1.3229166,1.3229166 0 0 0 0.154512,0.12299 1.3229166,1.3229166 0 0 0 0.745174,0.22996 1.3229166,1.3229166 0 0 0 1.145667,-0.66146 1.3229166,1.3229166 0 0 0 0.08578,-0.17828 1.3229166,1.3229166 0 0 0 0.09147,-0.48317 1.3229166,1.3229166 0 0 0 -1.322917,-1.32292 1.3229166,1.3229166 0 0 0 -1.322916,1.32292 z"
       id="path21858" /><path
       style="stroke-linejoin:round;stroke-miterlimit:3;fill:url(#radialGradient15896);fill-opacity:1"
       d="m 82.594253,110.76587 c 1.259478,2.23204 3.524407,4.95687 5.267895,6.70036 1.743488,1.7435 4.468319,4.00842 6.700366,5.2679 -1.259478,-2.23205 -3.524407,-4.95688 -5.267895,-6.70037 -1.743488,-1.7435 -4.468318,-4.00842 -6.700366,-5.26789 z"
       id="path21856" /><path
       style="stroke-linejoin:round;stroke-miterlimit:3;fill:url(#radialGradient15896);fill-opacity:1"
       d="m 82.594253,138.60913 c 2.232048,-1.25948 4.956878,-3.52441 6.700366,-5.2679 1.743492,-1.74349 4.008418,-4.46832 5.267895,-6.70036 -2.232047,1.25947 -4.956878,3.5244 -6.700366,5.26789 -1.743492,1.74349 -4.008418,4.46832 -5.267895,6.70037 z"
       id="path21854" /><path
       style="fill:url(#radialGradient24058);fill-opacity:1;stroke-linejoin:round;stroke-miterlimit:3;opacity:0.8"
       d="m 79.317967,140.5625 a 1.3229166,1.3229166 0 0 0 0.42323,0.96996 1.3229166,1.3229166 0 0 0 0.154512,0.12299 1.3229166,1.3229166 0 0 0 0.745174,0.22996 1.3229166,1.3229166 0 0 0 1.145667,-0.66146 1.3229166,1.3229166 0 0 0 0.08578,-0.17828 1.3229166,1.3229166 0 0 0 0.09147,-0.48317 1.3229166,1.3229166 0 0 0 -1.322917,-1.32292 1.3229166,1.3229166 0 0 0 -1.322916,1.32292 z"
       id="path24056" /><use
       x="0"
       y="0"
       xlink:href="#path24056"
       id="use28548"
       transform="translate(0,-31.749996)" /><use
       x="0"
       y="0"
       xlink:href="#path24056"
       id="use28550"
       transform="translate(31.75)" /><use
       x="0"
       y="0"
       xlink:href="#use28550"
       id="use28552"
       transform="translate(-4.9773874e-7,-31.749996)" /></g></svg>
